<svg width="60" height="60" viewBox="0 0 60 60" fill="none" xmlns="http://www.w3.org/2000/svg">
<path fill-rule="evenodd" clip-rule="evenodd" d="M11.7579 51.3536H48.2421C48.9946 51.3536 49.6417 51.011 50.0648 50.3886C50.4878 49.7663 50.5682 49.0385 50.2913 48.3388L47.2302 40.6047H12.7699L9.70869 48.3388C9.4318 49.0385 9.51215 49.7663 9.93522 50.3886C10.3582 51.011 11.0054 51.3536 11.7579 51.3536Z" fill="#85CAFF"></path>
<path fill-rule="evenodd" clip-rule="evenodd" d="M11.7578 51.3535H48.2421C48.9945 51.3535 49.6417 51.0109 50.0647 50.3886C50.4878 49.7661 50.5681 49.0384 50.2913 48.3387H9.70873C9.43176 49.0384 9.51219 49.7661 9.93518 50.3886C10.3582 51.0109 11.0054 51.3535 11.7578 51.3535Z" fill="#1176E8"></path>
<path fill-rule="evenodd" clip-rule="evenodd" d="M11.7578 51.3535H46.3594C47.1118 51.3535 47.759 51.0109 48.182 50.3886C48.6051 49.7661 48.6854 49.0384 48.4085 48.3387H9.70873C9.43176 49.0384 9.51219 49.7661 9.93518 50.3886C10.3582 51.0109 11.0053 51.3535 11.7578 51.3535Z" fill="#2A92FA"></path>
<path fill-rule="evenodd" clip-rule="evenodd" d="M23.2031 48.3386H36.7967L35.1632 45.7861H24.8366L23.2031 48.3386Z" fill="#CFE8FF"></path>
<path fill-rule="evenodd" clip-rule="evenodd" d="M14.2512 19.5089H45.748C46.563 19.5089 47.2298 20.1756 47.2298 20.9906V40.6048H12.7695V20.9906C12.7695 20.1757 13.4362 19.5089 14.2512 19.5089Z" fill="#B6DBFF"></path>
<path fill-rule="evenodd" clip-rule="evenodd" d="M14.2513 19.5089H43.8654C44.6804 19.5089 45.3471 20.1756 45.3471 20.9906V40.6047H12.7695V20.9905C12.7695 20.1756 13.4362 19.5088 14.2512 19.5088L14.2513 19.5089Z" fill="#E3F1FF"></path>
<path fill-rule="evenodd" clip-rule="evenodd" d="M50.2915 48.3388L47.2304 40.6047H45.3477L48.4087 48.3388H50.2915Z" fill="#4EB1FC"></path>
<path fill-rule="evenodd" clip-rule="evenodd" d="M23.2031 48.3387H36.7968L36.724 48.571C36.5631 49.0844 36.1065 49.4199 35.5685 49.4199H24.4314C23.8935 49.4199 23.4367 49.0844 23.2759 48.571L23.2031 48.3387Z" fill="#0062D9"></path>
<path fill-rule="evenodd" clip-rule="evenodd" d="M14.9099 43.7241C14.5776 43.7241 14.3083 43.4547 14.3083 43.1225C14.3083 42.7903 14.5776 42.5209 14.9099 42.5209H16.3147C16.6469 42.5209 16.9163 42.7903 16.9163 43.1225C16.9163 43.4547 16.6469 43.7241 16.3147 43.7241H14.9099ZM13.8457 46.4251C13.5135 46.4251 13.2441 46.1557 13.2441 45.8235C13.2441 45.4913 13.5135 45.222 13.8457 45.222H15.3496C15.6818 45.222 15.9512 45.4913 15.9512 45.8235C15.9512 46.1557 15.6818 46.4251 15.3496 46.4251H13.8457ZM44.6491 46.4251C44.3169 46.4251 44.0476 46.1557 44.0476 45.8235C44.0476 45.4913 44.3169 45.222 44.6491 45.222H46.153C46.4853 45.222 46.7546 45.4913 46.7546 45.8235C46.7546 46.1557 46.4853 46.4251 46.153 46.4251H44.6491ZM39.5152 46.4251C39.183 46.4251 38.9137 46.1557 38.9137 45.8235C38.9137 45.4913 39.183 45.222 39.5152 45.222H41.0191C41.3514 45.222 41.6207 45.4913 41.6207 45.8235C41.6207 46.1557 41.3514 46.4251 41.0191 46.4251H39.5152ZM18.9796 46.4251C18.6474 46.4251 18.378 46.1557 18.378 45.8235C18.378 45.4913 18.6474 45.222 18.9796 45.222H20.4835C20.8158 45.222 21.0851 45.4913 21.0851 45.8235C21.0851 46.1557 20.8158 46.4251 20.4835 46.4251H18.9796ZM43.6842 43.7241C43.3519 43.7241 43.0826 43.4547 43.0826 43.1225C43.0826 42.7903 43.3519 42.5209 43.6842 42.5209H45.089C45.4212 42.5209 45.6905 42.7903 45.6905 43.1225C45.6905 43.4547 45.4212 43.7241 45.089 43.7241H43.6842ZM38.8884 43.7241C38.5562 43.7241 38.2868 43.4547 38.2868 43.1225C38.2868 42.7903 38.5562 42.5209 38.8884 42.5209H40.2932C40.6255 42.5209 40.8948 42.7903 40.8948 43.1225C40.8948 43.4547 40.6255 43.7241 40.2932 43.7241H38.8884ZM34.0927 43.7241C33.7604 43.7241 33.4911 43.4547 33.4911 43.1225C33.4911 42.7903 33.7604 42.5209 34.0927 42.5209H35.4975C35.8297 42.5209 36.099 42.7903 36.099 43.1225C36.099 43.4547 35.8297 43.7241 35.4975 43.7241H34.0927ZM29.2969 43.7241C28.9647 43.7241 28.6954 43.4547 28.6954 43.1225C28.6954 42.7903 28.9647 42.5209 29.2969 42.5209H30.7017C31.034 42.5209 31.3033 42.7903 31.3033 43.1225C31.3033 43.4547 31.034 43.7241 30.7017 43.7241H29.2969ZM24.5012 43.7241C24.1689 43.7241 23.8996 43.4547 23.8996 43.1225C23.8996 42.7903 24.1689 42.5209 24.5012 42.5209H25.906C26.2382 42.5209 26.5076 42.7903 26.5076 43.1225C26.5076 43.4547 26.2382 43.7241 25.906 43.7241H24.5012ZM19.7054 43.7241C19.3732 43.7241 19.1039 43.4547 19.1039 43.1225C19.1039 42.7903 19.3732 42.5209 19.7054 42.5209H21.1103C21.4425 42.5209 21.7118 42.7903 21.7118 43.1225C21.7118 43.4547 21.4425 43.7241 21.1103 43.7241H19.7054Z" fill="#F3F3FF"></path>
<path d="M35.9397 9.21399H24.0593C22.9845 9.21399 22.1133 10.0852 22.1133 11.16V35.0542C22.1133 36.1289 22.9845 37.0001 24.0593 37.0001H35.9397C37.0145 37.0001 37.8857 36.1289 37.8857 35.0542V11.16C37.8857 10.0852 37.0145 9.21399 35.9397 9.21399Z" fill="#FDB0A0"></path>
<path d="M24.0593 9.21375H34.408C35.482 9.21375 36.354 10.0857 36.354 11.1597V35.054C36.354 36.128 35.482 37 34.408 37H24.0592C22.9851 37 22.1133 36.128 22.1133 35.0541V11.1597C22.1133 10.0857 22.9852 9.21375 24.0593 9.21375Z" fill="#FFCEC0"></path>
<path fill-rule="evenodd" clip-rule="evenodd" d="M25.3945 9.21399L26.135 10.4965C26.2916 10.7678 26.5605 10.9231 26.8738 10.9231H33.1269C33.4402 10.9231 33.7091 10.7678 33.8657 10.4965L34.6062 9.21399H25.3946H25.3945Z" fill="#EA806F"></path>
<path fill-rule="evenodd" clip-rule="evenodd" d="M27.825 10.9228H33.1272C33.4405 10.9228 33.7094 10.7675 33.8661 10.4962L34.6065 9.21375H26.3457L27.0862 10.4962C27.2428 10.7675 27.5118 10.9228 27.825 10.9228Z" fill="#F29988"></path>
<path fill-rule="evenodd" clip-rule="evenodd" d="M29.328 34.6452C28.916 34.6452 28.582 34.3112 28.582 33.8992C28.582 33.4872 28.916 33.1532 29.328 33.1532H30.672C31.084 33.1532 31.418 33.4872 31.418 33.8992C31.418 34.3112 31.084 34.6452 30.672 34.6452H29.328Z" fill="#F29988"></path>
<path d="M25.358 23.9536L24.6737 23.4404C24.6357 23.4132 24.614 23.3752 24.6086 23.3264C24.6031 23.2775 24.6113 23.234 24.633 23.196C24.633 23.1906 24.6466 23.1743 24.6737 23.1472L25.1788 22.7399L24.5353 22.7073C24.519 22.7019 24.5054 22.6992 24.4945 22.6992C24.4891 22.6937 24.4837 22.691 24.4782 22.691C24.4348 22.6801 24.3995 22.653 24.3723 22.6095C24.3506 22.5607 24.3452 22.5118 24.3561 22.4629L24.6249 21.6484C24.6357 21.6049 24.6656 21.5723 24.7145 21.5506C24.7633 21.5289 24.8068 21.5235 24.8448 21.5343C24.8556 21.5343 24.8774 21.5452 24.91 21.5669L25.4476 21.909L25.2846 21.2981C25.2792 21.2818 25.2765 21.2682 25.2765 21.2574C25.2765 21.2465 25.2765 21.2384 25.2765 21.233C25.2765 21.1895 25.2928 21.1488 25.3254 21.1108C25.3634 21.0728 25.4068 21.0537 25.4557 21.0537H26.311C26.3599 21.0537 26.4006 21.0728 26.4332 21.1108C26.4712 21.1488 26.4902 21.1895 26.4902 21.233C26.4902 21.2384 26.4902 21.2465 26.4902 21.2574C26.4902 21.2682 26.4875 21.2818 26.482 21.2981L26.311 21.9172L26.8486 21.5669C26.8812 21.5452 26.9029 21.5343 26.9138 21.5343C26.9572 21.5235 27.0006 21.5289 27.0441 21.5506C27.093 21.5723 27.1228 21.6049 27.1337 21.6484L27.4025 22.4629C27.4134 22.5118 27.4079 22.5607 27.3862 22.6095C27.3645 22.653 27.3319 22.6801 27.2885 22.691C27.283 22.691 27.2749 22.6937 27.264 22.6992C27.2586 22.6992 27.245 22.7019 27.2233 22.7073L26.5798 22.7399L27.0848 23.1472C27.112 23.1743 27.1255 23.1906 27.1255 23.196C27.1527 23.234 27.1636 23.2775 27.1581 23.3264C27.1527 23.3752 27.1283 23.4132 27.0848 23.4404L26.4006 23.9536C26.3571 23.9753 26.311 23.9834 26.2621 23.978C26.2132 23.9671 26.1752 23.9427 26.1481 23.9047C26.1426 23.8938 26.1372 23.8857 26.1318 23.8803C26.1264 23.8694 26.1182 23.8612 26.1073 23.8558L25.8793 23.253L25.6512 23.8558C25.6458 23.8612 25.6403 23.8694 25.6349 23.8803C25.6295 23.8857 25.6213 23.8938 25.6105 23.9047C25.5887 23.9427 25.5507 23.9671 25.4964 23.978C25.4476 23.9834 25.4014 23.9753 25.358 23.9536ZM28.9773 23.9536L28.2931 23.4404C28.2551 23.4132 28.2334 23.3752 28.2279 23.3264C28.2225 23.2775 28.2306 23.234 28.2524 23.196C28.2524 23.1906 28.2659 23.1743 28.2931 23.1472L28.7981 22.7399L28.1546 22.7073C28.1383 22.7019 28.1247 22.6992 28.1139 22.6992C28.1085 22.6937 28.103 22.691 28.0976 22.691C28.0542 22.6801 28.0189 22.653 27.9917 22.6095C27.97 22.5607 27.9646 22.5118 27.9754 22.4629L28.2442 21.6484C28.2551 21.6049 28.2849 21.5723 28.3338 21.5506C28.3827 21.5289 28.4261 21.5235 28.4641 21.5343C28.475 21.5343 28.4967 21.5452 28.5293 21.5669L29.0669 21.909L28.904 21.2981C28.8986 21.2818 28.8959 21.2682 28.8959 21.2574C28.8959 21.2465 28.8959 21.2384 28.8959 21.233C28.8959 21.1895 28.9122 21.1488 28.9447 21.1108C28.9827 21.0728 29.0262 21.0537 29.0751 21.0537H29.9303C29.9792 21.0537 30.0199 21.0728 30.0525 21.1108C30.0905 21.1488 30.1095 21.1895 30.1095 21.233C30.1095 21.2384 30.1095 21.2465 30.1095 21.2574C30.1095 21.2682 30.1068 21.2818 30.1014 21.2981L29.9303 21.9172L30.468 21.5669C30.5005 21.5452 30.5223 21.5343 30.5331 21.5343C30.5766 21.5235 30.62 21.5289 30.6634 21.5506C30.7123 21.5723 30.7422 21.6049 30.753 21.6484L31.0218 22.4629C31.0327 22.5118 31.0273 22.5607 31.0056 22.6095C30.9838 22.653 30.9513 22.6801 30.9078 22.691C30.9024 22.691 30.8942 22.6937 30.8834 22.6992C30.8779 22.6992 30.8644 22.7019 30.8426 22.7073L30.1991 22.7399L30.7042 23.1472C30.7313 23.1743 30.7449 23.1906 30.7449 23.196C30.7721 23.234 30.7829 23.2775 30.7775 23.3264C30.7721 23.3752 30.7476 23.4132 30.7042 23.4404L30.0199 23.9536C29.9765 23.9753 29.9303 23.9834 29.8815 23.978C29.8326 23.9671 29.7946 23.9427 29.7674 23.9047C29.762 23.8938 29.7566 23.8857 29.7511 23.8803C29.7457 23.8694 29.7376 23.8612 29.7267 23.8558L29.4986 23.253L29.2706 23.8558C29.2651 23.8612 29.2597 23.8694 29.2543 23.8803C29.2488 23.8857 29.2407 23.8938 29.2298 23.9047C29.2081 23.9427 29.1701 23.9671 29.1158 23.978C29.0669 23.9834 29.0208 23.9753 28.9773 23.9536ZM32.5967 23.9536L31.9125 23.4404C31.8744 23.4132 31.8527 23.3752 31.8473 23.3264C31.8419 23.2775 31.85 23.234 31.8717 23.196C31.8717 23.1906 31.8853 23.1743 31.9125 23.1472L32.4175 22.7399L31.774 22.7073C31.7577 22.7019 31.7441 22.6992 31.7332 22.6992C31.7278 22.6937 31.7224 22.691 31.717 22.691C31.6735 22.6801 31.6382 22.653 31.6111 22.6095C31.5893 22.5607 31.5839 22.5118 31.5948 22.4629L31.8636 21.6484C31.8744 21.6049 31.9043 21.5723 31.9532 21.5506C32.0021 21.5289 32.0455 21.5235 32.0835 21.5343C32.0944 21.5343 32.1161 21.5452 32.1487 21.5669L32.6863 21.909L32.5234 21.2981C32.5179 21.2818 32.5152 21.2682 32.5152 21.2574C32.5152 21.2465 32.5152 21.2384 32.5152 21.233C32.5152 21.1895 32.5315 21.1488 32.5641 21.1108C32.6021 21.0728 32.6456 21.0537 32.6944 21.0537H33.5497C33.5986 21.0537 33.6393 21.0728 33.6719 21.1108C33.7099 21.1488 33.7289 21.1895 33.7289 21.233C33.7289 21.2384 33.7289 21.2465 33.7289 21.2574C33.7289 21.2682 33.7262 21.2818 33.7208 21.2981L33.5497 21.9172L34.0873 21.5669C34.1199 21.5452 34.1416 21.5343 34.1525 21.5343C34.1959 21.5235 34.2394 21.5289 34.2828 21.5506C34.3317 21.5723 34.3615 21.6049 34.3724 21.6484L34.6412 22.4629C34.6521 22.5118 34.6466 22.5607 34.6249 22.6095C34.6032 22.653 34.5706 22.6801 34.5272 22.691C34.5217 22.691 34.5136 22.6937 34.5027 22.6992C34.4973 22.6992 34.4837 22.7019 34.462 22.7073L33.8185 22.7399L34.3235 23.1472C34.3507 23.1743 34.3643 23.1906 34.3643 23.196C34.3914 23.234 34.4023 23.2775 34.3968 23.3264C34.3914 23.3752 34.367 23.4132 34.3235 23.4404L33.6393 23.9536C33.5959 23.9753 33.5497 23.9834 33.5008 23.978C33.452 23.9671 33.4139 23.9427 33.3868 23.9047C33.3814 23.8938 33.3759 23.8857 33.3705 23.8803C33.3651 23.8694 33.3569 23.8612 33.3461 23.8558L33.118 23.253L32.8899 23.8558C32.8845 23.8612 32.8791 23.8694 32.8736 23.8803C32.8682 23.8857 32.86 23.8938 32.8492 23.9047C32.8275 23.9427 32.7895 23.9671 32.7352 23.978C32.6863 23.9834 32.6401 23.9753 32.5967 23.9536Z" fill="#AF5544"></path>
</svg>