<svg xmlns="http://www.w3.org/2000/svg" viewBox="0 0 60 60" fill="none"><path fill="#E8D4D4" d="M46.527 8.846H14.471a3.414 3.414 0 0 0-3.414 3.415v34.47a3.42 3.42 0 0 0 3.415 3.414h32.055a3.42 3.42 0 0 0 3.415-3.415V12.26a3.42 3.42 0 0 0-3.415-3.414Zm-31.156 2.441c.12-.018.239-.036.367-.036 1.12 0 2.02.909 2.02 2.02 0 1.12-.909 2.028-2.02 2.028a1.61 1.61 0 0 1-.367-.037 2.013 2.013 0 0 1-1.652-1.982 2.03 2.03 0 0 1 1.652-1.992Z"></path><path fill="#101419" d="M44.618 30.923v6.187c0 .79-.643 1.423-1.423 1.423h-4.011a9.744 9.744 0 0 0 1.11-4.535 9.789 9.789 0 0 0-1.092-4.507h4.002c.744 0 1.35.569 1.414 1.294v.138Z"></path><path fill="#FFF4F4" d="M49.942 12.26v33.57H36.806a13.461 13.461 0 0 0 6.316-7.297h.073c.79 0 1.423-.643 1.423-1.423v-6.187c0-.046 0-.092-.009-.129a1.419 1.419 0 0 0-1.414-1.294h-.064c-1.845-5.186-6.802-8.904-12.631-8.904-7.399 0-13.402 6.003-13.402 13.402 0 5.086 2.827 9.51 7.004 11.778-4.902-.515-8.721-4.655-8.721-9.694v-20.81c.12.018.239.036.367.036 1.12 0 2.02-.909 2.02-2.028a2.02 2.02 0 0 0-2.02-2.02c-.128 0-.248.01-.367.037V8.846h31.156a3.418 3.418 0 0 1 3.405 3.415Z"></path><path fill="#41644A" d="M39.174 38.533h3.947A13.394 13.394 0 0 1 30.5 47.4a13.4 13.4 0 0 1-13.412-13.402c0-7.399 6.004-13.402 13.403-13.402 5.82 0 10.777 3.718 12.631 8.904h-3.938a9.787 9.787 0 0 1 1.093 4.507 9.617 9.617 0 0 1-1.102 4.526Z"></path><path fill="#F1C376" d="M40.284 34.007a9.8 9.8 0 0 1-2.065 6.022 9.767 9.767 0 0 1-7.72 3.773 9.782 9.782 0 0 1-9.786-9.786c0-3.14 1.478-5.93 3.773-7.72a9.745 9.745 0 0 1 6.012-2.065c3.783 0 7.06 2.148 8.694 5.287a9.656 9.656 0 0 1 1.092 4.49Z"></path><path fill="#F1C376" d="M40.285 34.007a9.8 9.8 0 0 1-2.065 6.022 9.745 9.745 0 0 1-6.013 2.065 9.782 9.782 0 0 1-9.785-9.785c0-2.267.771-4.351 2.065-6.013a9.745 9.745 0 0 1 6.013-2.065c3.782 0 7.06 2.148 8.693 5.287a9.657 9.657 0 0 1 1.093 4.49Z"></path><path fill="#20262E" d="M44.619 30.923v6.187c0 .79-.643 1.423-1.423 1.423h-2.167a9.765 9.765 0 0 0 .551-3.24 9.51 9.51 0 0 0-.064-1.148c-.211-1.78 1.175-3.36 2.974-3.36.046 0 .083 0 .129.01v.128Z"></path><path fill="#CC9F5E" d="M30.499 31.52c-.239 0-.468.027-.689.11a1.54 1.54 0 0 0-.541.303c-.138.128-.212.275-.212.431 0 .22.065.386.202.496.129.11.303.183.524.23.22.045.459.082.716.128a5.879 5.879 0 0 1 1.643.468c.495.22.9.523 1.202.89.303.377.45.827.45 1.359 0 .477-.12.9-.358 1.276-.239.376-.56.68-.964.918a3.685 3.685 0 0 1-1.35.468v1.276h-1.238v-1.276a4.103 4.103 0 0 1-1.157-.34 3.39 3.39 0 0 1-.936-.642 2.496 2.496 0 0 1-.588-.918l1.744-.643c.037.12.138.239.276.35.146.11.32.201.541.274.22.074.46.11.735.11.248 0 .477-.036.697-.11.22-.073.395-.174.533-.302a.588.588 0 0 0 .202-.45.535.535 0 0 0-.212-.432 1.872 1.872 0 0 0-.541-.275c-.22-.064-.45-.12-.68-.147a6.877 6.877 0 0 1-1.688-.45c-.496-.21-.89-.495-1.175-.863-.285-.367-.432-.835-.432-1.404 0-.477.12-.909.358-1.285.239-.377.56-.689.964-.927a3.685 3.685 0 0 1 1.35-.469v-1.266h1.239v1.266c.404.056.79.175 1.147.34.358.165.68.386.946.652.266.266.459.578.587.927l-1.744.633a.78.78 0 0 0-.275-.34 1.657 1.657 0 0 0-.542-.265 2.628 2.628 0 0 0-.734-.101Z"></path><path fill="#E26940" d="M13.72 13.28a2.03 2.03 0 0 0 1.66 1.992v2.827h-4.314V12.26a3.407 3.407 0 0 1 3.406-3.415h.9v2.441a2.03 2.03 0 0 0-1.653 1.992Z"></path><path fill="#FF8551" d="M49.942 12.26V18.1h-34.57V15.27c.118.019.238.037.366.037 1.12 0 2.02-.909 2.02-2.028a2.02 2.02 0 0 0-2.02-2.02c-.128 0-.248.01-.367.037V8.846h31.156a3.42 3.42 0 0 1 3.415 3.415Z"></path><path fill="#101419" d="M47.059 12.196v2.167a.872.872 0 0 1-.872.872H36.52a.872.872 0 0 1-.873-.872v-2.167c0-.486.395-.872.872-.872h9.667c.486 0 .872.395.872.872Z"></path><path fill="#20262E" d="M47.06 12.729v1.634a.872.872 0 0 1-.873.872H37.1c.11-.624.413-1.184.844-1.616.55-.55 1.313-.89 2.148-.89h6.968Z"></path><path fill="#E8D4D4" d="M24 13.28c0 1.12-.909 2.028-2.02 2.028a1.93 1.93 0 0 1-.89-.21 2.022 2.022 0 0 1 .89-3.838A2.014 2.014 0 0 1 24 13.28Z"></path><path fill="#E26940" d="M17.758 13.28c0 1.12-.909 2.028-2.02 2.028-.128 0-.248-.009-.367-.037a2.022 2.022 0 0 1-1.652-1.992 2.03 2.03 0 0 1 1.661-1.992c.12-.018.239-.036.367-.036.8 0 1.488.459 1.818 1.138.12.266.193.57.193.89Z"></path><path fill="#FFF4F4" d="M24 13.28c0 1.12-.908 2.028-2.019 2.028a1.93 1.93 0 0 1-.89-.21 2.046 2.046 0 0 1-.202-.891c0-1.12.909-2.029 2.02-2.029.32 0 .623.073.89.211.128.266.202.57.202.89Z"></path><path fill="#FF8551" d="M17.758 13.28c0 1.12-.908 2.028-2.02 2.028-.128 0-.247-.009-.366-.037a2.065 2.065 0 0 1-.524-.174 2.03 2.03 0 0 1 1.46-2.882 1.93 1.93 0 0 1 1.258.174c.119.266.192.57.192.89Z"></path></svg>