<svg width="60" height="60" viewBox="0 0 60 60" fill="none" xmlns="http://www.w3.org/2000/svg">
<g clip-path="url(#clip0_1266_1691)">
<path fill-rule="evenodd" clip-rule="evenodd" d="M23.0196 17.9832L14.4381 20.4909L12.5234 28.0857C12.8547 30.8754 13.3776 33.4868 15.1023 34.9488L29.3353 46.5163L31.0573 47.8411C33.6499 49.8353 36.1056 47.0484 34.1345 44.9884C34.1071 44.9582 34.077 44.928 34.0469 44.8978C34.7122 45.4574 35.4596 45.6165 36.1138 45.5096C37.5538 45.2764 38.5394 43.7513 37.2144 42.3276C39.8042 44.3958 42.0163 41.1014 39.9876 39.2937C42.2489 40.0069 44.7128 37.0746 42.3639 34.5839C42.3475 34.5647 42.3282 34.5428 42.3091 34.5236L36.4204 25.7568L28.5222 20.6959L23.0196 17.9832Z" fill="#FFBC85"></path>
<path fill-rule="evenodd" clip-rule="evenodd" d="M29.1203 46.7631C31.3104 44.4287 28.1156 41.7434 26.3498 43.326L24.4581 45.1255C24.4362 45.1474 24.4171 45.1666 24.3951 45.183C22.8073 46.7795 25.6928 50.4167 28.08 47.8712L29.1203 46.7631Z" fill="#FFE5C1"></path>
<path fill-rule="evenodd" clip-rule="evenodd" d="M23.0521 40.0702L21.0536 42.1659L21.0454 42.1769C20.0434 43.2412 20.7387 44.8733 21.9242 45.5097C22.6579 45.9047 23.5778 45.9212 24.3963 45.1833L26.5372 45.1504L26.351 43.3263L26.6247 43.0684C28.7656 41.0331 25.6748 37.5166 23.2629 39.8481L23.0521 40.0702Z" fill="#FFE5C1"></path>
<path fill-rule="evenodd" clip-rule="evenodd" d="M19.4828 37.1982L17.6102 39.1869L17.3474 39.4694C15.4995 41.4307 18.8094 44.5194 20.7174 42.517L21.0459 42.1768C21.0733 42.1467 23.08 41.9382 23.299 41.9135L23.2634 39.848L23.904 39.176C26.1078 36.8637 22.6639 33.8188 20.5668 36.049L19.4828 37.1982Z" fill="#FFE5C1"></path>
<path fill-rule="evenodd" clip-rule="evenodd" d="M15.1018 34.9489L14.4666 35.6374C12.5119 37.7605 15.4248 41.1454 17.6094 39.1869L19.4026 38.9098L19.482 37.1981C21.2532 35.193 18.1652 31.6243 15.7341 34.2631L15.1018 34.9489Z" fill="#FFE5C1"></path>
<path fill-rule="evenodd" clip-rule="evenodd" d="M17.7847 12.0253L9.09265 20.3943L6.62046 22.7725C5.81562 23.546 5.79096 24.838 6.56299 25.6444L10.2507 29.4902C10.4642 29.7123 10.8228 29.7206 11.0473 29.5067L12.523 28.0858L23.0191 17.9832L24.3222 16.7268C24.5468 16.5129 24.5549 16.1536 24.3387 15.9287L20.651 12.0829C19.879 11.2764 18.5895 11.2517 17.7847 12.0253Z" fill="#7BACDF"></path>
<path fill-rule="evenodd" clip-rule="evenodd" d="M34.3148 26.5745L31.6758 27.1779L32.7106 28.2285L40.7046 36.1778L40.7593 36.2382C41.723 37.2586 41.8763 38.3504 41.5697 39.2391C43.1493 38.6356 44.154 36.4823 42.3636 34.5841L42.3088 34.5237L39.9106 32.14L34.3148 26.5745Z" fill="#F5A96C"></path>
<path fill-rule="evenodd" clip-rule="evenodd" d="M23.0188 17.9832L21.3379 19.5987L26.5915 22.1909L28.5215 20.696L23.0188 17.9832Z" fill="#F5A96C"></path>
<path fill-rule="evenodd" clip-rule="evenodd" d="M28.5216 20.6961L26.5915 22.191L24.7737 23.5955C20.1827 27.1505 23.9907 30.6615 26.7147 29.4574L29.7782 27.6113L31.6754 27.1779L34.3145 26.5745L39.9102 32.1401L42.3084 34.5238C43.8169 33.9588 45.9495 32.3294 48.2519 28.6208L44.7521 21.2984L36.5785 17.3826L34.4815 19.0585C34.1366 19.3328 34.2406 19.2807 33.8053 19.267C32.2312 19.2176 30.23 19.374 29.0555 20.282L28.5216 20.6961Z" fill="#FFE5C1"></path>
<path fill-rule="evenodd" clip-rule="evenodd" d="M28.5142 26.3907L25.4507 28.2367C24.6157 28.607 23.6767 28.533 22.9102 28.149C23.5754 29.4273 25.2947 30.0856 26.7155 29.4575L29.7789 27.6114L31.6762 27.178L34.2824 26.5828C33.0751 25.5486 32.8588 25.3978 30.4087 25.9601L28.5142 26.3907Z" fill="#FED1A3"></path>
<path fill-rule="evenodd" clip-rule="evenodd" d="M46.3469 26.7856C44.2964 30.0856 42.3827 31.7396 40.9236 32.4637C40.7594 32.546 40.6005 32.6146 40.4473 32.6722L42.3089 34.5238C43.8173 33.9587 45.9499 32.3294 48.2523 28.6207L46.3469 26.7856Z" fill="#FED1A3"></path>
<path fill-rule="evenodd" clip-rule="evenodd" d="M14.8105 14.889C15.6154 14.1237 16.8967 14.1539 17.6659 14.9548L21.3535 18.8005C21.5671 19.0254 21.5616 19.3848 21.3371 19.5987L23.0181 17.983L24.3212 16.7267C24.5457 16.5127 24.5539 16.1534 24.3376 15.9285L20.65 12.0828C19.8779 11.2763 18.5885 11.2516 17.7836 12.0252L14.8105 14.889Z" fill="#3987D0"></path>
<path fill-rule="evenodd" clip-rule="evenodd" d="M13.8242 37.2614C13.8433 39.0581 15.9404 40.6847 17.6104 39.187L18.7848 37.9416L19.4829 37.1983C20.2138 36.3699 20.1153 35.2782 19.5814 34.4635C19.5787 34.9408 19.4199 35.4181 19.0558 35.8323L17.8128 37.1517L17.1859 37.821C15.9678 38.9099 14.525 38.3421 13.8242 37.2614Z" fill="#FED1A3"></path>
<path fill-rule="evenodd" clip-rule="evenodd" d="M16.8887 41.3375C17.3267 42.8077 19.3717 43.9296 20.7159 42.5169L21.0444 42.1768C21.0471 42.1713 21.0499 42.1685 21.0527 42.1658L23.0511 40.0701C23.1223 39.9905 23.1907 39.9165 23.262 39.848L23.9026 39.176C25.0907 37.9306 24.639 36.4714 23.6398 35.7389C23.8205 36.4109 23.6754 37.1872 23.0019 37.8921L22.3613 38.5641C22.2902 38.6327 22.2217 38.7067 22.1505 38.7836V38.7863L20.152 40.882C20.1493 40.8847 20.1466 40.8875 20.141 40.8903L19.8153 41.2331C18.9227 42.1714 17.7236 41.993 16.8887 41.3375Z" fill="#FED1A3"></path>
<path fill-rule="evenodd" clip-rule="evenodd" d="M24.459 45.1257L25.9181 43.7405L26.3506 43.3263L26.6244 43.0685C27.7633 41.985 27.4211 40.4818 26.4848 39.6643C26.6847 40.3803 26.5368 41.1894 25.8469 41.845L25.5759 42.1028L24.8039 42.8352L23.6814 43.905L23.6184 43.9598C22.7999 44.6977 21.88 44.6812 21.1463 44.289C20.9656 44.1903 20.7959 44.0695 20.6426 43.9297C20.8232 44.5797 21.3078 45.1805 21.9238 45.5096C22.6575 45.9046 23.5773 45.9211 24.3959 45.1832L24.459 45.1257Z" fill="#FED1A3"></path>
<path fill-rule="evenodd" clip-rule="evenodd" d="M29.1211 46.7632C30.2162 45.5947 29.9643 44.3411 29.2196 43.5758C29.2032 44.0942 28.9842 44.6511 28.4805 45.186L27.4402 46.2969C26.1617 47.6575 24.7408 47.2487 23.9414 46.3298C23.9524 47.9948 26.1754 49.904 28.0807 47.8714L29.1211 46.7632Z" fill="#FED1A3"></path>
<path d="M39.9863 40.0188C39.8097 40.0188 39.6325 39.9545 39.4929 39.8246L36.5745 37.1062C36.2818 36.8334 36.2653 36.3747 36.5379 36.0817C36.8104 35.7887 37.2688 35.7722 37.5617 36.0449L40.4801 38.7633C40.7728 39.0361 40.7893 39.4947 40.5167 39.7878C40.374 39.9413 40.1804 40.0188 39.9863 40.0188Z" fill="#F5A96C"></path>
<path d="M37.2136 43.0527C37.037 43.0527 36.8598 42.9884 36.7202 42.8583L33.7991 40.1372C33.5064 39.8644 33.4899 39.4059 33.7626 39.1128C34.0349 38.8199 34.4934 38.8033 34.7863 39.0762L37.7074 41.7973C38.0002 42.0701 38.0166 42.5286 37.7439 42.8217C37.6013 42.9751 37.4077 43.0527 37.2136 43.0527Z" fill="#F5A96C"></path>
<path d="M34.1423 45.7189C33.9659 45.7189 33.7889 45.6546 33.6494 45.525L32.1629 44.1425C31.8698 43.8699 31.8531 43.4114 32.1254 43.1181C32.3977 42.8249 32.8561 42.8081 33.1492 43.0805L34.6357 44.463C34.9287 44.7356 34.9455 45.1941 34.6732 45.4874C34.5305 45.641 34.3367 45.7189 34.1423 45.7189Z" fill="#F5A96C"></path>
<path fill-rule="evenodd" clip-rule="evenodd" d="M36.5782 17.3825L46.3461 26.7856L48.2514 28.6206L48.9523 29.2955C49.1769 29.5094 49.5354 29.5011 49.749 29.279L51.6736 27.271L53.4367 25.4331C54.2087 24.6267 54.184 23.3347 53.3792 22.5612L51.6736 20.9209L42.2151 11.814C41.4102 11.0405 40.1208 11.0651 39.3488 11.8715L35.6611 15.7173C35.4448 15.9422 35.4531 16.3015 35.6775 16.5155L36.5782 17.3825Z" fill="#FE636E"></path>
<path fill-rule="evenodd" clip-rule="evenodd" d="M49.2408 24.9259L47.3162 26.9365C47.0999 27.1586 46.7441 27.1669 46.5195 26.9501L48.2525 28.6207L48.9534 29.2955C49.1779 29.5094 49.5365 29.5012 49.7501 29.279L51.6747 27.2711L53.4377 25.4332C54.2098 24.6267 54.1851 23.3348 53.3802 22.5612L51.223 20.4848L51.4064 20.6631L50.9547 20.227C51.7486 21.0005 51.7733 22.287 51.0041 23.0879L49.2408 24.9259Z" fill="#FB2A39"></path>
</g>
<defs>
<clipPath id="clip0_1266_1691">
<rect width="48" height="48" fill="white" transform="translate(6 6)"></rect>
</clipPath>
</defs>
</svg>