<svg id="Layer_1" data-name="Layer 1" xmlns="http://www.w3.org/2000/svg" viewBox="0 0 77.1 76">
  <path d="M4.61,3.13v76h77.1v-76Zm71.6,70.6H10.11V8.53h66.1Z" transform="translate(-4.61 -3.13)" style="fill: #0086ff"></path>
  <path d="M40,28h5a3.08,3.08,0,0,1,1,.1l.3-7.6Z" transform="translate(-4.61 -3.13)" style="fill: #1390cf"></path>
  <path d="M48.91,22.13l-2.6-1.5v.3l-.2,7.3a.76.76,0,0,1,.4.1l.9-.8,1.6-3.2.4-1.3Z" transform="translate(-4.61 -3.13)" style="fill: #33c0dd"></path>
  <path d="M50.31,20.53a5.7,5.7,0,0,0-1.3.1v1.7l.2.3,2.1.3H54l2.6-.1A9.4,9.4,0,0,0,50.31,20.53Z" transform="translate(-4.61 -3.13)" style="fill: #0099d6"></path>
  <path d="M56.51,22.63l-7.5-.4L46,28v.1c.1,0,.3.1.4.1l3.6-.8,3.8-2.4,3.4-1.8Z" transform="translate(-4.61 -3.13)" style="fill: #96d8ed"></path>
  <path d="M56.71,22.73l-.1-.1-10.5,5.5a4.59,4.59,0,0,1,3.5,4.4h.2l3.1-2,3-3.9,1-3.5Z" transform="translate(-4.61 -3.13)" style="fill: #1ba0da"></path>
  <path d="M56.51,22.63l-7,9.9,5,1,4.3-1.7,1.2-.4c0-.4.1-.8.1-1.3A9.38,9.38,0,0,0,56.51,22.63Z" transform="translate(-4.61 -3.13)" style="fill: #1190cf"></path>
  <path d="M60.21,30l-10.6,2.5v.8l.7,2,2.8,3.5,1.4.3a9.65,9.65,0,0,0,5.9-8.9C60.21,30.13,60.21,30,60.21,30Z" transform="translate(-4.61 -3.13)" style="fill: #056db5"></path>
  <path d="M49,34.53a4.52,4.52,0,0,1-3.8,2.5h-5.7l6.4,7.1h.3l.5-.5,1.9-5.1.5-2.9Z" transform="translate(-4.61 -3.13)" style="fill: #1c3a69"></path>
  <path d="M49.51,32.43h0a4.55,4.55,0,0,1-.8,2.7L46,44.23h.7a3.89,3.89,0,0,1,1.5.2H49l2.8-2.3,1.8-1.7.9-1.2Z" transform="translate(-4.61 -3.13)" style="fill: #005893"></path>
  <path d="M55.71,40.63l-.8-1.4c-.1,0-.3-.1-.4-.1L46,44.23h.6a5.4,5.4,0,0,1,5.5,5.4v.5l2.3-1.3L56,46Z" transform="translate(-4.61 -3.13)" style="fill: #056db5"></path>
  <path d="M54.41,39.13l-2.3,10.4v.6l3.9,1.3,7.4.1v-.8A12.12,12.12,0,0,0,54.41,39.13Z" transform="translate(-4.61 -3.13)" style="fill: #005d9d"></path>
  <path d="M63.31,49.73l-11.2-.1a5.66,5.66,0,0,1-.3,1.8l.3,2.2,1.2,3,2.6,3.7,1.5.7a11.94,11.94,0,0,0,6-10.4A2.77,2.77,0,0,1,63.31,49.73Z" transform="translate(-4.61 -3.13)" style="fill: #1c3a69"></path>
  <path d="M52.11,49.53h0a5.46,5.46,0,0,1-5.5,5.4h-.8l.2,2.8,7.1,2.7,3.1,1a8.26,8.26,0,0,0,1.3-.7Z" transform="translate(-4.61 -3.13)" style="fill: #134f7e"></path>
  <path d="M46.31,55h-.8l-1.2,5.5-.5,2h7.4a12.84,12.84,0,0,0,6.4-1.8Z" transform="translate(-4.61 -3.13)" style="fill: #1c3a69"></path>
  <path d="M46.31,55h-7.4l-.1.1.8,2.3,2.8,4.4,1.3.8h1.6Z" transform="translate(-4.61 -3.13)" style="fill: #134f7e"></path>
  <path d="M38.91,55l-.5.3v.1L37,58.63l-.4.7v3.3h8.6Z" transform="translate(-4.61 -3.13)" style="fill: #056db5"></path>
  <path d="M36.61,56.53v6l2.3-7.4Z" transform="translate(-4.61 -3.13)" style="fill: #1d4d82"></path>
  <path d="M25.41,20.43l-4.2,4.1,6.6.1Z" transform="translate(-4.61 -3.13)" style="fill: #4da2d3"></path>
  <path d="M29.91,20.43l-1.3,3.8,5.3-.5Z" transform="translate(-4.61 -3.13)" style="fill: #2d68b1"></path>
  <path d="M21.11,59l3.6,3.6,2.2-3.7Z" transform="translate(-4.61 -3.13)" style="fill: #50a2d2"></path>
  <path d="M43.51,15.93v3.9l3.2-3.9Z" transform="translate(-4.61 -3.13)" style="fill: #6aacd1"></path>
  <path d="M30.61,16.33l5.1,2.9.1-2.7Z" transform="translate(-4.61 -3.13)" style="fill: #72cde6"></path>
  <path d="M44.31,63.13l-.1,3.7h3.6Z" transform="translate(-4.61 -3.13)" style="fill: #42467f"></path>
  <path d="M46.31,64.13l3.5,3.7v-3.7Z" transform="translate(-4.61 -3.13)" style="fill: #1c3a69"></path>
  <path d="M30.31,63.43l-.3,3.4,4.8.2Z" transform="translate(-4.61 -3.13)" style="fill: #98cbe6"></path>
  <path d="M29.61,51.33l.7,6.7,5.8-4.4Z" transform="translate(-4.61 -3.13)" style="fill: #056db5"></path>
  <path d="M25.81,55.53l2,3.7.8-3.7Z" transform="translate(-4.61 -3.13)" style="fill: #54a4d3"></path>
  <path d="M39.51,48.23l-4.8,2.1,4.9,2.3Z" transform="translate(-4.61 -3.13)" style="fill: #0062a7"></path>
  <path d="M31.91,47.73l-1.6,2.5,4.4-.7Z" transform="translate(-4.61 -3.13)" style="fill: #5cabd8"></path>
  <path d="M26.41,45.83l.1,3h2.3Z" transform="translate(-4.61 -3.13)" style="fill: #1278b9"></path>
  <path d="M39.21,44l-1.4,3.9,3.5-2Z" transform="translate(-4.61 -3.13)" style="fill: #53a5d4"></path>
  <path d="M32.51,40l2,6.8,4.1-3.7Z" transform="translate(-4.61 -3.13)" style="fill: #0678bd"></path>
  <path d="M27.31,43.93l2.3,1.3,1.6-2.6Z" transform="translate(-4.61 -3.13)" style="fill: #98cbe6"></path>
  <path d="M39.71,39v3.3l3,.1Z" transform="translate(-4.61 -3.13)" style="fill: #1279bb"></path>
  <path d="M30.51,37.43l-1.1,2.5,2-.5Z" transform="translate(-4.61 -3.13)" style="fill: #54a4d3"></path>
  <path d="M38.51,37.43l-5.8-1.3,5.9,5.2Z" transform="translate(-4.61 -3.13)" style="fill: #4ba1d3"></path>
  <path d="M25.31,36l1.1,1.7,1.5-.8Z" transform="translate(-4.61 -3.13)" style="fill: #4da2d3"></path>
  <path d="M28.81,32.53l.2,4.4,1.9-1.3Z" transform="translate(-4.61 -3.13)" style="fill: #92c7e6"></path>
  <path d="M31.31,32.73l7.4,3.3,1.4-6.4Z" transform="translate(-4.61 -3.13)" style="fill: #21c1e4"></path>
  <path d="M26.11,32l.8.7v-2.1Z" transform="translate(-4.61 -3.13)" style="fill: #92c6e4"></path>
  <path d="M27.71,26.53l-1,1.1,1.9,1Z" transform="translate(-4.61 -3.13)" style="fill: #4ba2d3"></path>
  <path d="M30.81,24.63l1.7,6,3.6-3.8Z" transform="translate(-4.61 -3.13)" style="fill: #94d7ec"></path>
  <path d="M35.81,57.23l-6.1,4.4,6.1,4.9Z" transform="translate(-4.61 -3.13)" style="fill: #056db5"></path>
  <path d="M28.21,62.43l-1.8,1.3h3.5Z" transform="translate(-4.61 -3.13)" style="fill: #2763a1"></path>
  <path d="M28.21,16l.1,3,7.1,1.1Z" transform="translate(-4.61 -3.13)" style="fill: #38c3e3"></path>
  <path d="M45.31,19.33l3.1,1.8v-5.3Z" transform="translate(-4.61 -3.13)" style="fill: #2d68b1"></path>
  <path d="M44,20.43l-7.9-.1h0l1.7,1.1h0l-.1.3a.14.14,0,0,1-.2,0l.4,1.6,2.9.7h.3l.5-.6Z" transform="translate(-4.61 -3.13)" style="fill: #6aacd1"></path>
  <path d="M37.81,21.43l-.9,1v2l2,1.6.1.2h0l2.5-2.8Z" transform="translate(-4.61 -3.13)" style="fill: #72cde6"></path>
  <path d="M37.81,21.43,31,20.33l8,5.8Z" transform="translate(-4.61 -3.13)" style="fill: #38c3e3"></path>
</svg>