<svg width="60" height="60" viewBox="0 0 60 60" fill="none" xmlns="http://www.w3.org/2000/svg">
<g clip-path="url(#clip0_1266_1051)">
<path d="M24.9155 51.3345C34.9567 51.3345 43.0967 43.1945 43.0967 33.1533C43.0967 23.1122 34.9567 14.9722 24.9155 14.9722C14.8744 14.9722 6.73438 23.1122 6.73438 33.1533C6.73438 43.1945 14.8744 51.3345 24.9155 51.3345Z" fill="#FCC16D"></path>
<path d="M43.0966 33.1533C43.0966 43.1943 34.9564 51.3345 24.9154 51.3345C24.434 51.3345 23.9563 51.3154 23.4844 51.2789C32.856 50.5488 40.2337 42.7121 40.2337 33.1533C40.2337 23.5945 32.856 15.7579 23.4844 15.0277C23.9563 14.9911 24.4341 14.9722 24.9154 14.9722C34.9563 14.9722 43.0966 23.1123 43.0966 33.1533Z" fill="#FCB44D"></path>
<path d="M24.9153 48.1878C33.2186 48.1878 39.9497 41.4566 39.9497 33.1534C39.9497 24.8501 33.2186 18.1189 24.9153 18.1189C16.612 18.1189 9.88086 24.8501 9.88086 33.1534C9.88086 41.4566 16.612 48.1878 24.9153 48.1878Z" fill="#FEE7C9"></path>
<path d="M39.9507 33.1534C39.9507 41.4565 33.2195 48.1877 24.9164 48.1877C24.4159 48.1877 23.9211 48.1633 23.4336 48.1152C31.0402 47.3705 36.9844 40.956 36.9844 33.1534C36.9844 25.3508 31.0402 18.9362 23.4336 18.1916C23.9211 18.1435 24.4159 18.119 24.9164 18.119C33.2195 18.1191 39.9507 24.8503 39.9507 33.1534Z" fill="#FFD496"></path>
<path d="M33.3583 41.6005C38.0241 36.9347 38.0241 29.3699 33.3583 24.7041C28.6925 20.0383 21.1277 20.0383 16.4619 24.7041C11.7961 29.3699 11.7961 36.9347 16.4619 41.6005C21.1277 46.2663 28.6925 46.2663 33.3583 41.6005Z" fill="#FB9927"></path>
<path d="M36.8659 33.1537C36.8659 39.7421 31.5052 45.1028 24.9168 45.1028C24.4121 45.1028 23.914 45.0709 23.4258 45.0095C29.3131 44.2744 33.8839 39.2374 33.8839 33.1537C33.8839 27.0689 29.3131 22.0329 23.4258 21.2978C23.914 21.2364 24.4121 21.2046 24.9168 21.2046C31.5051 21.2045 36.8659 26.5641 36.8659 33.1537Z" fill="#F98824"></path>
<path d="M29.4026 32.9702C29.1874 32.8031 29.147 32.4951 29.3144 32.2802C29.7661 31.7005 30.0357 30.9725 30.0357 30.1823C30.0357 28.6385 29.008 27.3311 27.601 26.9063C27.3946 26.8439 27.2539 26.6532 27.2539 26.4376V25.4768C27.2539 25.2056 27.0341 24.9858 26.7628 24.9858H26.2718C26.0006 24.9858 25.7807 25.2056 25.7807 25.4768V26.2691C25.7807 26.5403 25.5609 26.7601 25.2897 26.7601H24.477C24.2057 26.7601 23.9859 26.5403 23.9859 26.2691V25.4768C23.9859 25.2056 23.7661 24.9858 23.4948 24.9858H23.0038C22.7326 24.9858 22.5127 25.2056 22.5127 25.4768V26.2691C22.5127 26.5403 22.2929 26.7601 22.0217 26.7601H20.8016C20.5304 26.7601 20.3105 26.9799 20.3105 27.2512V27.7422C20.3105 28.0134 20.5304 28.2333 20.8016 28.2333H21.5922C21.8634 28.2333 22.0833 28.4531 22.0833 28.7243V38.1534C22.0833 38.4246 21.8634 38.6445 21.5922 38.6445H20.8016C20.5304 38.6445 20.3105 38.8643 20.3105 39.1355V39.6266C20.3105 39.8978 20.5304 40.1176 20.8016 40.1176H22.0218C22.293 40.1176 22.5128 40.3375 22.5128 40.6087V41.4009C22.5128 41.6721 22.7327 41.892 23.0039 41.892H23.4949C23.7662 41.892 23.986 41.6721 23.986 41.4009V40.6087C23.986 40.3375 24.2058 40.1176 24.4771 40.1176H25.2898C25.561 40.1176 25.7808 40.3375 25.7808 40.6087V41.4009C25.7808 41.6721 26.0007 41.892 26.2719 41.892H26.7629C27.0342 41.892 27.254 41.6721 27.254 41.4009V40.5376C27.254 40.2984 27.4267 40.0963 27.6622 40.0542C29.5294 39.7208 30.9515 38.086 30.9515 36.1244C30.9514 34.8429 30.3441 33.7012 29.4026 32.9702ZM26.6136 28.2333C27.7133 28.2333 28.6031 29.1487 28.5612 30.2575C28.5214 31.3121 27.6212 32.1312 26.5658 32.1312H24.0475C23.7763 32.1312 23.5564 31.9114 23.5564 31.6402V28.7243C23.5564 28.4531 23.7763 28.2333 24.0475 28.2333H26.6136ZM26.9009 38.6446H24.0475C23.7763 38.6446 23.5564 38.4247 23.5564 38.1535V34.0955C23.5564 33.8243 23.7763 33.6044 24.0475 33.6044H26.9582C28.3334 33.6044 29.4548 34.7116 29.4779 36.0814C29.5017 37.4908 28.3107 38.6446 26.9009 38.6446Z" fill="#FFD496"></path>
<path d="M41.8423 22.1499L52.9018 19.2164L46.3521 17.1166C46.072 17.0268 45.9332 16.7127 46.0553 16.4451L49.7763 8.29308L41.6243 12.014C41.3567 12.1361 41.0426 11.9972 40.9528 11.7172L38.853 5.1676L35.9195 16.227C35.862 16.4436 35.9242 16.6743 36.0826 16.8328L41.2368 21.9869C41.395 22.1451 41.6258 22.2073 41.8423 22.1499Z" fill="#FCB44D"></path>
<path d="M52.9011 19.2164L41.8416 22.1495C41.6256 22.2073 41.3944 22.145 41.2362 21.9868L39.2578 20.0085C39.4161 20.1667 39.6468 20.2285 39.8633 20.1712L49.0062 17.968L52.9011 19.2164Z" fill="#FB9927"></path>
<path d="M49.7749 10.2732C50.8684 10.2732 51.7548 9.38676 51.7548 8.29326C51.7548 7.19975 50.8684 6.31329 49.7749 6.31329C48.6814 6.31329 47.7949 7.19975 47.7949 8.29326C47.7949 9.38676 48.6814 10.2732 49.7749 10.2732Z" fill="#72F4C3"></path>
<path d="M51.7551 8.29358C51.7551 9.38657 50.8686 10.2731 49.7755 10.2731C49.3494 10.2731 48.9537 10.1385 48.6299 9.90776C49.395 9.76809 49.9739 9.0981 49.9739 8.29358C49.9739 7.48802 49.394 6.81803 48.6289 6.67941C48.9528 6.44871 49.3485 6.31305 49.7756 6.31305C50.8686 6.31305 51.7551 7.19964 51.7551 8.29358Z" fill="#27E19D"></path>
<path d="M52.9505 20.7121C53.8034 20.7121 54.4948 20.0207 54.4948 19.1678C54.4948 18.3149 53.8034 17.6235 52.9505 17.6235C52.0977 17.6235 51.4062 18.3149 51.4062 19.1678C51.4062 20.0207 52.0977 20.7121 52.9505 20.7121Z" fill="#72F4C3"></path>
<path d="M54.495 19.1681C54.495 20.0206 53.8035 20.7121 52.951 20.7121C52.6186 20.7121 52.31 20.6071 52.0574 20.4271C52.6542 20.3182 53.1057 19.7957 53.1057 19.1681C53.1057 18.5398 52.6533 18.0172 52.0566 17.909C52.3093 17.729 52.6179 17.6233 52.951 17.6233C53.8035 17.6233 54.495 18.3148 54.495 19.1681Z" fill="#27E19D"></path>
<path d="M38.9004 6.85137C39.8573 6.85137 40.6329 6.07572 40.6329 5.11889C40.6329 4.16207 39.8573 3.38641 38.9004 3.38641C37.9436 3.38641 37.168 4.16207 37.168 5.11889C37.168 6.07572 37.9436 6.85137 38.9004 6.85137Z" fill="#72F4C3"></path>
<path d="M40.6338 5.11919C40.6338 6.07556 39.8581 6.85129 38.9017 6.85129C38.5289 6.85129 38.1826 6.73355 37.8993 6.53164C38.5687 6.40942 39.0753 5.82322 39.0753 5.11919C39.0753 4.4143 38.5679 3.8281 37.8984 3.70674C38.1818 3.50492 38.528 3.38623 38.9017 3.38623C39.858 3.38623 40.6338 4.16195 40.6338 5.11919Z" fill="#27E19D"></path>
<path d="M40.3537 24.084L33.7522 17.4826C33.6295 17.3598 33.6295 17.1609 33.7522 17.0381L35.313 15.4773C35.4358 15.3545 35.6348 15.3545 35.7576 15.4773L42.359 22.0787C42.4818 22.2015 42.4818 22.4004 42.359 22.5232L40.7982 24.084C40.6755 24.2068 40.4764 24.2068 40.3537 24.084Z" fill="#FEE7C9"></path>
<path d="M42.3599 22.5229L40.7989 24.0839C40.6762 24.2066 40.4771 24.2066 40.3544 24.0839L38.4316 22.1612C38.5543 22.2839 38.7535 22.2839 38.8762 22.1612L40.4372 20.6002C40.5598 20.4775 40.5598 20.2784 40.4372 20.1557L42.3599 22.0784C42.4826 22.2011 42.4826 22.4002 42.3599 22.5229Z" fill="#FFD496"></path>
<path d="M39.9506 52.1961C44.6696 52.1961 48.495 48.3707 48.495 43.6518C48.495 38.9328 44.6696 35.1074 39.9506 35.1074C35.2317 35.1074 31.4062 38.9328 31.4062 43.6518C31.4062 48.3707 35.2317 52.1961 39.9506 52.1961Z" fill="#64B9FC"></path>
<path d="M48.496 43.6518C48.496 48.3713 44.6706 52.1966 39.9512 52.1966C39.343 52.1966 38.7494 52.133 38.1777 52.0119C42.0459 51.1962 44.9491 47.7629 44.9491 43.6517C44.9491 39.5405 42.046 36.1074 38.1777 35.2915C38.7494 35.1706 39.343 35.1069 39.9512 35.1069C44.6706 35.107 48.496 38.9324 48.496 43.6518Z" fill="#31A7FB"></path>
<path d="M39.4894 42.5691C39.47 42.2204 39.2127 41.9188 38.8539 41.8581C38.4377 41.7878 38.0428 42.0682 37.9724 42.4846L37.9614 42.5496H37.0844C37.0723 42.194 36.812 41.884 36.4474 41.8224C36.0311 41.7516 35.6365 42.0326 35.566 42.4489L35.549 42.5496H35.4469C35.0245 42.5496 34.6823 42.892 34.6823 43.3143C34.6823 43.6838 34.9445 43.9922 35.293 44.0635L35.1469 44.9283H35.081C34.6586 44.9283 34.3164 45.2706 34.3164 45.6929C34.3164 46.0568 34.5709 46.3608 34.9114 46.438C34.9308 46.7868 35.1881 47.0884 35.547 47.149C35.5901 47.1563 35.633 47.1598 35.6754 47.1598C36.0416 47.1598 36.3654 46.8958 36.4285 46.5226L36.4395 46.4575H37.3166C37.3286 46.8131 37.5889 47.1232 37.9535 47.1848C37.9967 47.1921 38.0395 47.1955 38.0819 47.1955C38.4482 47.1955 38.7719 46.9315 38.835 46.5583L38.8521 46.4575H38.9541C39.3765 46.4575 39.7187 46.1152 39.7187 45.6929C39.7187 45.3233 39.4566 45.015 39.108 44.9437L39.2542 44.0789H39.32C39.7424 44.0789 40.0846 43.7366 40.0846 43.3143C40.0844 42.9504 39.83 42.6463 39.4894 42.5691ZM37.5591 44.9283H36.6978L36.8414 44.079H37.7027L37.5591 44.9283Z" fill="#B0DCFF"></path>
<path d="M43.3267 47C43.2616 47 43.2053 46.9793 43.158 46.9378C43.1165 46.8905 43.0958 46.8342 43.0958 46.7691V42.8608L41.9855 43.7135C41.9263 43.7491 41.8671 43.7609 41.8078 43.7491C41.7545 43.7372 41.7042 43.7017 41.6568 43.6425L41.0084 42.7986C40.9788 42.7453 40.967 42.6861 40.9729 42.621C40.9847 42.5559 41.0203 42.5055 41.0795 42.47L43.1757 40.8445C43.2053 40.8208 43.2349 40.806 43.2645 40.8001C43.2942 40.7883 43.3297 40.7823 43.3711 40.7823H44.7657C44.8308 40.7823 44.8871 40.806 44.9344 40.8534C44.9818 40.8949 45.0055 40.9481 45.0055 41.0133V46.7691C45.0055 46.8342 44.9818 46.8905 44.9344 46.9378C44.8871 46.9793 44.8308 47 44.7657 47H43.3267Z" fill="#B0DCFF"></path>
</g>
<defs>
<clipPath id="clip0_1266_1051">
<rect width="48.8103" height="48.8103" fill="white" transform="translate(6.20898 3.38623)"></rect>
</clipPath>
</defs>
</svg>