<svg xmlns="http://www.w3.org/2000/svg" viewBox="0 0 60 60" fill="none"><path fill="#E9E9ED" d="m30 14.7 12.228-9.912 4.916 4.956-8.572 14.394L30 14.7ZM30 14.7 17.772 4.787l-4.916 4.956 8.572 14.394L30 14.7Z"></path><path fill="#393D47" d="m32.741 22.255 2.065-2.261-4.807-5.294-4.806 5.294 2.065 2.261h5.483Z"></path><path fill="#414753" d="m27.257 22.255-4.31 25.551L30 55.212l7.051-7.406-4.31-25.55h-5.483Z"></path><path fill="#646B79" d="m32.42 22.255-6.248 6.256.433-2.545 3.703-3.71h2.112ZM33.358 26.03l-8.14 8.13.426-2.537 7.398-7.398.316 1.804ZM34.025 30.055l-9.753 9.77.425-2.53 9.029-9.036.3 1.796ZM34.711 34.089l-11.4 11.393.425-2.53 10.676-10.667.3 1.804ZM35.397 38.107 24.28 49.224l-1.032-1.08 11.834-11.833.315 1.796ZM36.067 42.133l-9.502 9.502-1.016-1.08 10.219-10.218.299 1.796ZM36.753 46.167l-7.887 7.88-1.024-1.08 8.611-8.604.3 1.804Z"></path></svg>