<svg width="60" height="60" viewBox="0 0 60 60" fill="none" xmlns="http://www.w3.org/2000/svg">
<g clip-path="url(#clip0_1266_1141)">
<path d="M46.7484 34.4869C45.9453 34.9948 45.0004 35.0581 44.2836 34.6537C43.3713 34.1362 42.8691 32.9325 42.8691 31.2535V26.2357C42.8691 23.813 41.9108 22.088 40.3084 21.6222C37.5944 20.8307 35.5513 24.1522 34.7846 25.4019L29.9968 33.1644V23.6769C29.9431 21.4919 29.2339 20.1867 27.8884 19.7918C26.9953 19.5331 25.6632 19.6366 24.3675 21.6184L13.6399 38.8435C12.2038 36.1172 11.4551 33.0814 11.4588 30C11.4588 19.6232 19.7752 11.1822 29.9968 11.1822C40.2164 11.1822 48.5309 19.6232 48.5309 30C48.5386 30.0345 48.5348 30.0652 48.5367 30.1016C48.6325 32.1122 47.9808 33.7107 46.7484 34.4907V34.4869ZM52.6518 30.0019L52.6498 29.8965C52.5923 17.2599 42.4532 7 29.9948 7C17.5039 7 7.33984 17.3174 7.33984 30C7.33984 42.6807 17.5039 53 29.9948 53C35.7276 53 41.1997 50.8207 45.3991 46.8667C46.2328 46.0808 46.2808 44.7583 45.5083 43.9131C45.3261 43.712 45.1056 43.5494 44.8597 43.4346C44.6139 43.3198 44.3475 43.2553 44.0764 43.2448C43.8053 43.2342 43.5347 43.2779 43.2807 43.3733C43.0267 43.4686 42.7942 43.6137 42.5969 43.8C39.1933 47.0227 34.684 48.8184 29.9968 48.8178C24.5228 48.8178 19.5988 46.3971 16.2025 42.5542L25.8778 27.0196V34.1822C25.8778 37.6207 27.2118 38.7323 28.3312 39.0582C29.4505 39.384 31.1602 39.1617 32.9561 36.2445C34.8689 33.151 36.8373 29.9252 38.7502 26.8912V31.2535C38.7502 34.4697 40.0382 37.0418 42.2826 38.3068C44.3066 39.4511 46.8519 39.3476 48.9238 38.0385C51.4385 36.4515 52.7917 33.5267 52.6498 30.0019H52.6518Z" fill="white"></path>
</g>
<defs>
<clipPath id="clip0_1266_1141">
<rect width="46" height="46" fill="white" transform="translate(7 7)"></rect>
</clipPath>
</defs>
</svg>