<svg width="60" height="60" viewBox="0 0 60 60" fill="none" xmlns="http://www.w3.org/2000/svg">
<g clip-path="url(#clip0_2383_2306)">
<path d="M36.4027 42.4483L27.6615 46.2053V45.8291C25.9758 46.2555 24.109 46.5017 22.3401 46.5805C14.1207 46.5017 7.5964 42.2489 7.52013 37.1885V35.3087C10.2198 39.1896 15.7162 41.7896 22.3401 41.696C24.5822 41.7896 26.8745 41.4395 28.8011 40.9446L29.5612 39.0657C27.2767 39.7399 24.7824 40.2088 22.341 40.1923C14.1207 40.2088 7.5964 35.9561 7.521 30.8011V29.2983C10.2198 32.8863 15.7041 35.4863 22.341 35.3095C25.3267 35.4872 28.2465 34.8658 30.7009 33.8059L31.0822 31.9278C28.6833 33.1784 25.5745 33.9047 22.341 33.8059C14.1207 33.9047 7.5964 29.6519 7.521 24.4147V22.911C10.2198 26.5822 15.7162 29.1831 22.341 29.2983C26.1058 29.1831 29.6756 28.1994 32.6023 26.668L32.9819 24.4138C30.3265 26.3595 26.449 27.6135 22.341 27.7947C14.1207 27.6135 7.59727 23.3599 7.521 18.0273C7.5964 12.9556 14.1207 8.702 22.341 8.63526C27.2411 8.70286 31.792 10.4015 34.5021 13.1437L34.7664 13.5779L36.6817 13.5865L36.4027 13.1437C33.7073 9.5236 28.3167 7.13333 22.341 7.13333C13.2453 7.13333 6 12.0889 6 18.0282V37.5637C6.3198 43.3617 13.3996 48.0825 22.341 48.0825C28.2465 48.0825 33.5539 45.7858 36.4027 42.4483Z" fill="white"></path>
<path d="M32.8463 55.6667L35.9143 42.775L27.0942 46.5667L32.4641 24.1963H22.1074L24.7915 13.2H57.776L55.091 24.1963H44.353L42.0512 30.2629L53.9401 25.3333L32.8463 55.6667ZM38.2162 40.1204L36.6822 47.7037L49.3381 28.7463L38.9823 33.2963L43.5852 22.6796H53.9401L55.858 14.7167H25.9416L24.0236 22.6796H34.3803L29.3935 43.9129L38.2153 40.1221L38.2162 40.1204Z" fill="#FABF2C"></path>
</g>
<defs>
<clipPath id="clip0_2383_2306">
<rect width="52" height="48.5333" fill="white" transform="translate(6 7.13333)"></rect>
</clipPath>
</defs>
</svg>