<svg width="60" height="60" viewBox="0 0 60 60" fill="none" xmlns="http://www.w3.org/2000/svg">
<g clip-path="url(#clip0_2383_2289)">
<path d="M30.3019 32.3352C31.3802 32.3352 32.2542 31.4594 32.2542 30.379C32.2542 29.2986 31.3802 28.4228 30.3019 28.4228C29.2237 28.4228 28.3496 29.2986 28.3496 30.379C28.3496 31.4594 29.2237 32.3352 30.3019 32.3352Z" fill="#F8BF1E"></path>
<path d="M45.8683 32.3352C46.9465 32.3352 47.8206 31.4594 47.8206 30.379C47.8206 29.2986 46.9465 28.4228 45.8683 28.4228C44.7901 28.4228 43.916 29.2986 43.916 30.379C43.916 31.4594 44.7901 32.3352 45.8683 32.3352Z" fill="#F8BF1E"></path>
<path d="M45.8683 47.9589C46.9465 47.9589 47.8206 47.083 47.8206 46.0027C47.8206 44.9223 46.9465 44.0465 45.8683 44.0465C44.7901 44.0465 43.916 44.9223 43.916 46.0027C43.916 47.083 44.7901 47.9589 45.8683 47.9589Z" fill="#F8BF1E"></path>
<path d="M51.5974 14.3948C51.3919 11.5377 49.1056 9.22116 46.2542 9.01525C44.4303 8.88655 42.7862 9.58151 41.6303 10.7655C40.7569 11.6664 39.5752 12.2069 38.3165 12.2069H37.8541C36.5697 12.2069 35.3623 11.6664 34.4632 10.7398C33.41 9.65873 31.9458 9.01525 30.3274 9.01525C28.709 9.01525 27.2448 9.68447 26.1916 10.7398C25.2925 11.6664 24.0851 12.2069 22.8007 12.2069H22.364C21.1053 12.2069 19.8979 11.7179 19.0245 10.817C18.8447 10.6368 18.6649 10.4567 18.4851 10.3022C16.3016 8.5262 13.0905 8.57768 10.9841 10.4567C8.4409 12.696 8.33815 16.6084 10.7015 18.9763C10.7272 19.0021 10.7529 19.0278 10.7785 19.0536C11.7033 19.9287 12.1914 21.1642 12.1914 22.4255V22.863C12.1914 24.15 11.652 25.3597 10.7272 26.2606C9.64826 27.3159 9.00605 28.783 9.00605 30.4047C9.00605 32.0262 9.67395 33.4934 10.7272 34.5487C11.652 35.4496 12.1914 36.6593 12.1914 37.9463V38.5383C12.1914 39.7995 11.652 40.9835 10.7529 41.8587C9.62257 42.9655 8.92898 44.5355 9.00605 46.2601C9.13449 49.2973 11.6006 51.7426 14.6061 51.8455C16.3529 51.897 17.9199 51.202 19.0245 50.0438C19.8979 49.1429 21.0796 48.5766 22.3383 48.5766H22.8264C24.0851 48.5766 25.2668 49.1172 26.1402 50.0438C27.2962 51.2535 28.9659 51.9485 30.7898 51.8198C33.6412 51.6139 35.9531 49.2973 36.1587 46.4145C36.3899 42.9912 33.7183 40.1599 30.3531 40.1599C28.7604 40.1599 27.2962 40.8033 26.2429 41.8587C25.3438 42.7595 24.1365 43.3001 22.8778 43.3001H22.3383C21.0796 43.3001 19.8465 42.811 18.9474 41.8844C18.9218 41.8587 18.9218 41.8587 18.8961 41.8329C17.9713 40.932 17.4318 39.7223 17.4318 38.4353V37.9205C17.4318 36.6336 17.9713 35.4238 18.8961 34.523C19.975 33.4676 20.6172 32.0005 20.6172 30.3789C20.6172 28.7574 19.9493 27.2902 18.8961 26.2349C17.9713 25.334 17.4318 24.1242 17.4318 22.8373V22.374C17.4318 21.087 17.9713 19.8772 18.8704 18.9763C18.8961 18.9507 18.8961 18.9507 18.9218 18.9249C18.9474 18.8992 18.9474 18.8992 18.9731 18.8734C19.8722 17.9726 21.0796 17.432 22.364 17.432H22.8264C24.1108 17.432 25.3182 17.9726 26.2173 18.8992C27.2705 19.9802 28.7347 20.6237 30.3531 20.6237C31.9715 20.6237 33.4357 19.9545 34.4889 18.8992C35.388 17.9726 36.5954 17.432 37.8798 17.432H38.2908C39.5752 17.432 40.7826 17.9726 41.6817 18.8992C42.7349 19.9802 44.1991 20.6237 45.8175 20.6237C49.157 20.6494 51.8286 17.8181 51.5974 14.3948Z" fill="#F8BF1E"></path>
</g>
<defs>
<clipPath id="clip0_2383_2289">
<rect width="43" height="43" fill="white" transform="translate(9 9)"></rect>
</clipPath>
</defs>
</svg>