<svg width="60" height="60" viewBox="0 0 60 60" fill="none" xmlns="http://www.w3.org/2000/svg">
<g clip-path="url(#clip0_1266_2006)">
<path d="M21.7688 21.6812C23.389 20.0434 24.2721 17.8741 24.2577 15.5728C24.2276 10.8411 20.3625 7.0126 15.6302 7.0126C15.6116 7.0126 15.5919 7.0126 15.5733 7.0126C13.2689 7.02769 11.1083 7.93746 9.48879 9.57491C7.86924 11.2124 6.98613 13.3817 7.00016 15.6833C7.03069 20.415 10.8957 24.2435 15.6274 24.2435H15.6842C17.0887 24.234 18.4405 23.8919 19.6482 23.2555L22.3603 25.5203L23.2806 24.4175L20.913 22.4398C21.2119 22.2078 21.4986 21.9549 21.7688 21.6812ZM19.2279 19.9392H16.3515L16.3473 21.3788L14.9102 21.3742L14.9144 19.9392H12.7609C12.4844 19.9392 12.2335 19.7813 12.1135 19.5319C11.9943 19.2835 12.0272 18.9873 12.1999 18.7716L17.014 12.7537H12.0423V11.3166H14.9123L14.9165 9.87735L16.3536 9.88191L16.3494 11.3166H18.5093C18.7861 11.3166 19.037 11.4748 19.157 11.7243C19.2763 11.9727 19.2429 12.2688 19.0707 12.4842L14.2562 18.5021H19.2279V19.9392Z" fill="#2196F3"></path>
<path d="M16.3531 25.6876H14.916V34.3103H16.3531V30.7175H19.2273V29.2804H16.3531V25.6876Z" fill="white"></path>
<path d="M20.6641 29.2804H22.1012V30.7175H20.6641V29.2804Z" fill="white"></path>
<path d="M43.6594 25.6876V29.2804H40.7852V30.7175H43.6594V34.3103H45.0965V25.6876H43.6594Z" fill="white"></path>
<path d="M37.9102 29.2804H39.3473V30.7175H37.9102V29.2804Z" fill="white"></path>
<path d="M25.6953 15.6279H29.2881V18.5021H30.7252V15.6279H34.318V14.1908H25.6953V15.6279Z" fill="white"></path>
<path d="M29.2871 19.9392H30.7242V21.3763H29.2871V19.9392Z" fill="white"></path>
<path d="M30.7252 41.4958H29.2881V44.37H25.6953V45.8071H34.318V44.37H30.7252V41.4958Z" fill="white"></path>
<path d="M29.2871 38.6216H30.7242V40.0587H29.2871V38.6216Z" fill="white"></path>
<path d="M30.0066 24.3354L25.6953 26.4062L30.0066 28.4773L34.318 26.4062L30.0066 24.3354Z" fill="white"></path>
<path d="M44.0556 18.4266L43.6016 18.1996L44.3766 19.3624L45.152 18.1989L44.698 18.4259C44.4959 18.5273 44.2573 18.5273 44.0556 18.4266Z" fill="#2196F3"></path>
<path d="M46.1344 13.9459L44.3766 11.7485L42.6191 13.9459L44.3766 14.8248L46.1344 13.9459Z" fill="#2196F3"></path>
<path d="M44.3724 7.0126C44.3538 7.0126 44.3341 7.0126 44.3155 7.0126C42.0111 7.02769 39.8505 7.93746 38.231 9.57421C36.6114 11.2117 35.7283 13.381 35.7424 15.6826C35.7599 18.3902 37.0332 20.8016 39.0053 22.3696L36.7111 24.4347L37.6724 25.5024L40.2414 23.1895C41.4687 23.8604 42.8763 24.2421 44.3696 24.2421H44.4264C46.7308 24.227 48.8921 23.3172 50.5109 21.6805C52.1312 20.0427 53.0143 17.8734 52.9999 15.5721C52.9697 10.8411 49.1047 7.0126 44.3724 7.0126ZM40.942 13.7417L43.8163 10.1489C44.0899 9.80788 44.6657 9.80788 44.9386 10.1489L47.8129 13.7417C47.9479 13.9115 47.9995 14.1329 47.9529 14.3448C47.9062 14.5567 47.7669 14.7364 47.5729 14.8332L44.6987 16.2703C44.598 16.3215 44.4874 16.3464 44.3773 16.3464C44.2675 16.3464 44.1569 16.3215 44.0562 16.271L41.182 14.8339C40.9873 14.7371 40.848 14.5574 40.8017 14.3455C40.7557 14.1336 40.8063 13.9115 40.942 13.7417ZM47.8493 16.7454L44.9751 21.0567C44.8415 21.2563 44.6173 21.3763 44.3773 21.3763C44.1373 21.3763 43.9131 21.2563 43.7794 21.0567L40.9052 16.7454C40.7242 16.4745 40.7487 16.1159 40.9641 15.8717C41.182 15.6272 41.5346 15.5591 41.8244 15.7044L44.3773 16.9804L46.9305 15.7044C47.2199 15.5584 47.5736 15.6265 47.7904 15.8717C48.0062 16.1152 48.0304 16.4738 47.8493 16.7454Z" fill="#2196F3"></path>
<path d="M35.7424 44.4255C35.749 45.4135 35.923 46.3618 36.2371 47.2442H40.7845V40.7773C40.7845 40.4331 41.0291 40.1373 41.3673 40.0717C41.6992 40.0078 42.042 40.1903 42.1707 40.5102L44.3773 46.0285L46.5842 40.511C46.7126 40.1903 47.0533 40.0078 47.3873 40.0724C47.7258 40.1373 47.97 40.4331 47.97 40.7773V47.2442H52.5108C52.8392 46.3159 53.0066 45.3286 52.9999 44.3149C52.9697 39.5833 49.1047 35.7547 44.3724 35.7547C44.3538 35.7547 44.3341 35.7547 44.3155 35.7547C42.8023 35.7642 41.3508 36.1607 40.074 36.895L37.6998 34.5208L36.6837 35.5369L38.8748 37.728C38.652 37.9125 38.4369 38.1086 38.231 38.317C36.6114 39.9545 35.7283 42.1238 35.7424 44.4255Z" fill="#2196F3"></path>
<path d="M47.2516 48.6813C46.8544 48.6813 46.533 48.3596 46.533 47.9628V44.5083L45.045 48.2294C44.9352 48.5024 44.6714 48.6813 44.3773 48.6813C44.0837 48.6813 43.8198 48.5024 43.71 48.2301L42.2217 44.5083V47.9628C42.2217 48.3596 41.9006 48.6813 41.5031 48.6813H36.9023C38.3977 51.2545 41.1877 52.9856 44.3696 52.9856H44.4265C46.7309 52.9706 48.8922 52.0608 50.511 50.424C51.0348 49.8942 51.4811 49.3087 51.8453 48.682H47.2516V48.6813Z" fill="#2196F3"></path>
<path d="M17.7898 45.0886H13.4785V46.5257H17.7898C18.1867 46.5257 18.5084 46.2032 18.5084 45.8071C18.5084 45.4113 18.1867 45.0886 17.7898 45.0886Z" fill="#2196F3"></path>
<path d="M17.7898 42.2144H13.4785V43.6515H17.7898C18.1867 43.6515 18.5084 43.329 18.5084 42.9329C18.5084 42.5371 18.1867 42.2144 17.7898 42.2144Z" fill="#2196F3"></path>
<path d="M21.0583 37.6788L23.775 35.3853L22.8206 34.3103L19.8303 36.847C18.5854 36.1512 17.1536 35.7547 15.6302 35.7547C15.6116 35.7547 15.5919 35.7547 15.5733 35.7547C13.2689 35.7698 11.1083 36.6796 9.48879 38.3163C7.86924 39.9538 6.98613 42.1231 7.00016 44.4248C7.03069 49.1571 10.8957 52.9857 15.6274 52.9857H15.6842C17.9886 52.9706 20.1499 52.0608 21.7688 50.424C23.389 48.7863 24.2721 46.6173 24.2577 44.3156C24.2405 41.6369 22.9946 39.2475 21.0583 37.6788ZM19.9464 45.8071C19.9464 46.9958 18.9794 47.9628 17.7907 47.9628H17.0722V49.3999H15.6351V47.9628H14.9165V49.3999H13.4794V47.9628H11.3238V46.5257H12.0423V42.2144H11.3238V40.7773H13.4794V39.3401H14.9165V40.7773H15.6351V39.3401H17.0722V40.7773H17.7907C18.9794 40.7773 19.9464 41.7446 19.9464 42.9329C19.9464 43.4848 19.738 43.9886 19.3963 44.37C19.738 44.7518 19.9464 45.2556 19.9464 45.8071Z" fill="#2196F3"></path>
<path d="M23.5391 26.7655V33.5917C23.5391 33.8643 23.6931 34.1127 23.9366 34.2348L29.2875 36.9101V29.7246L23.5391 26.7655Z" fill="white"></path>
<path d="M36.473 26.7655V33.5917C36.473 33.8643 36.3194 34.1127 36.0759 34.2348L30.7246 36.9101V29.7246L36.473 26.7655Z" fill="white"></path>
</g>
<defs>
<clipPath id="clip0_1266_2006">
<rect width="46" height="46" fill="white" transform="translate(7 7)"></rect>
</clipPath>
</defs>
</svg>