<svg width="60" height="60" viewBox="0 0 60 60" fill="none" xmlns="http://www.w3.org/2000/svg">
<path d="M44.2158 45.0101V46.612C44.2158 47.4858 43.5076 48.1941 42.6338 48.1941H17.3204C16.4466 48.1941 15.7383 47.4858 15.7383 46.612V13.3881C15.7383 12.5143 16.4466 11.806 17.3204 11.806H42.6338C43.5076 11.806 44.2158 12.5143 44.2158 13.3881V33.1643V45.0101Z" fill="#ACE5AC"></path>
<path d="M42.2093 41.082C42.2093 43.6002 40.1678 45.6417 37.6496 45.6417C35.1314 45.6417 33.0898 43.6002 33.0898 41.082C33.0898 38.5638 35.1313 36.5223 37.6495 36.5223C40.1677 36.5223 42.2093 38.5638 42.2093 41.082Z" fill="#FE9D5E"></path>
<path d="M39.7772 41.0821C39.7772 42.2573 38.8245 43.21 37.6493 43.21C36.4741 43.21 35.5215 42.2573 35.5215 41.0821C35.5215 39.9069 36.4741 38.9542 37.6494 38.9542C38.8246 38.9542 39.7772 39.9069 39.7772 41.0821Z" fill="#FE5A3A"></path>
<path d="M34.3291 21.4962C34.6568 21.4962 34.9224 21.7619 34.9224 22.0895C34.9224 22.4172 34.6569 22.6828 34.3291 22.6828H25.6276C25.2999 22.6828 25.0343 22.4172 25.0343 22.0895C25.0343 21.7619 25.2998 21.4962 25.6276 21.4962H34.3291ZM21.2769 19.5186H38.6799C39.0076 19.5186 39.2732 19.253 39.2732 18.9253C39.2732 18.5977 39.0077 18.332 38.6799 18.332H21.2769C20.9492 18.332 20.6836 18.5977 20.6836 18.9253C20.6836 19.253 20.9491 19.5186 21.2769 19.5186ZM24.441 41.2724H21.2769C20.9492 41.2724 20.6836 41.538 20.6836 41.8657C20.6836 42.1933 20.9491 42.459 21.2769 42.459H24.4411C24.7688 42.459 25.0344 42.1933 25.0344 41.8657C25.0343 41.538 24.7688 41.2724 24.441 41.2724ZM38.6798 26.2425H21.2769C20.9492 26.2425 20.6836 26.5081 20.6836 26.8358C20.6836 27.1634 20.9491 27.429 21.2769 27.429H38.6799C39.0076 27.429 39.2732 27.1634 39.2732 26.8358C39.2731 26.5081 39.0076 26.2425 38.6798 26.2425ZM38.6798 29.4067H21.2769C20.9492 29.4067 20.6836 29.6723 20.6836 29.9999C20.6836 30.3276 20.9491 30.5932 21.2769 30.5932H38.6799C39.0076 30.5932 39.2732 30.3276 39.2732 29.9999C39.2732 29.6723 39.0076 29.4067 38.6798 29.4067ZM29.9783 38.1082H21.2769C20.9492 38.1082 20.6836 38.3738 20.6836 38.7015C20.6836 39.0291 20.9491 39.2948 21.2769 39.2948H29.9784C30.3061 39.2948 30.5717 39.0291 30.5717 38.7015C30.5716 38.3738 30.3061 38.1082 29.9783 38.1082Z" fill="#699E69"></path>
<g clip-path="url(#clip0_2818_6981)">
<path d="M23.9768 16.4405C22.9611 20.5153 18.8327 22.9923 14.7638 21.9765C10.689 20.9608 8.21198 16.8326 9.22776 12.7637C10.2435 8.68897 14.3658 6.21198 18.4407 7.22776C22.5096 8.23754 24.9926 12.3657 23.9768 16.4405Z" fill="url(#paint0_linear_2818_6981)"></path>
<path d="M20.2225 13.6548C20.371 12.6452 19.6048 12.0988 18.5477 11.7365L18.8921 10.3646L18.0606 10.1567L17.7281 11.493C17.5083 11.4395 17.2826 11.3861 17.0569 11.3386L17.3895 9.99632L16.558 9.78845L16.2195 11.1545C16.0354 11.1129 15.8572 11.0713 15.685 11.0297V11.0238L14.5328 10.7387L14.313 11.6296C14.313 11.6296 14.9307 11.7721 14.9188 11.7781C15.2574 11.8612 15.3168 12.0869 15.3049 12.2651L14.9129 13.8271C14.9366 13.833 14.9663 13.839 15.002 13.8568C14.9723 13.8508 14.9426 13.8449 14.9129 13.833L14.3665 16.0186C14.3249 16.1196 14.218 16.274 13.9864 16.2146C13.9923 16.2265 13.3806 16.0661 13.3806 16.0661L12.9648 17.0224L14.0517 17.2956C14.2536 17.349 14.4496 17.3965 14.6456 17.45L14.3012 18.8338L15.1326 19.0417L15.4771 17.6697C15.7028 17.7291 15.9285 17.7885 16.1423 17.842L15.8038 19.208L16.6352 19.4158L16.9797 18.032C18.4051 18.2993 19.4742 18.1924 19.9196 16.9036C20.2819 15.8702 19.9018 15.2703 19.1535 14.8783C19.7058 14.7536 20.1156 14.3913 20.2225 13.6548ZM18.316 16.3275C18.0606 17.3609 16.3145 16.8026 15.7503 16.6601L16.2076 14.8249C16.7718 14.9674 18.5892 15.2465 18.316 16.3275ZM18.5774 13.637C18.3398 14.5814 16.8906 14.1003 16.4214 13.9815L16.8372 12.3185C17.3064 12.4373 18.8209 12.6571 18.5774 13.637Z" fill="white"></path>
</g>
<rect x="38.2383" y="18.3284" width="15.2043" height="15.2043" rx="7.60213" fill="#888888"></rect>
<g clip-path="url(#clip1_2818_6981)">
<path d="M45.8162 28.619L42.498 26.6608L45.8141 31.3355L49.1339 26.6608L45.8141 28.619H45.8162ZM45.8655 20.5259L42.5487 26.0308L45.8655 27.9924L49.1836 26.0329L45.8655 20.5259Z" fill="white"></path>
</g>
<g clip-path="url(#clip2_2818_6981)">
<path d="M18.3395 50.7951C22.6199 49.5278 25.0624 45.0306 23.7951 40.7502C22.5278 36.4699 18.0306 34.0273 13.7502 35.2946C9.46989 36.5619 7.02735 41.0592 8.29465 45.3395C9.56195 49.6199 14.0592 52.0624 18.3395 50.7951Z" fill="#26A17B"></path>
<path fill-rule="evenodd" clip-rule="evenodd" d="M17.175 43.4392L17.1747 43.4382C17.1226 43.4579 16.8528 43.5557 16.2401 43.7371C15.7508 43.8819 15.4021 43.9694 15.2793 43.9994L15.2798 44.0009C13.3719 44.4756 11.8691 44.5639 11.753 44.1715C11.6369 43.7797 12.9455 43.0355 14.8039 42.3937L15.1831 43.6744C15.3087 43.6467 15.6675 43.5631 16.1548 43.4188C16.7395 43.2457 17.0253 43.1347 17.0786 43.1137L16.6996 41.8334C18.6038 41.3608 20.1032 41.2735 20.2191 41.6649C20.3353 42.0573 19.0298 42.7994 17.175 43.4392ZM16.6602 41.7002L16.3208 40.5542L18.9433 39.7777L18.4259 38.03L11.2855 40.1441L11.8029 41.8918L14.4254 41.1154L14.7646 42.2609C12.6623 42.9898 11.1845 43.8868 11.3342 44.3925C11.4839 44.8982 13.2117 44.8455 15.3721 44.3128L16.4595 47.9854L18.3549 47.4243L17.2672 43.7507C19.3662 43.0228 20.8402 42.1275 20.6907 41.6222C20.5411 41.117 18.8172 41.1685 16.6602 41.7002Z" fill="white"></path>
</g>
<defs>
<linearGradient id="paint0_linear_2818_6981" x1="768.802" y1="6.6351" x2="768.802" y2="1527.27" gradientUnits="userSpaceOnUse">
<stop stop-color="#F9AA4B"></stop>
<stop offset="1" stop-color="#F7931A"></stop>
</linearGradient>
<clipPath id="clip0_2818_6981">
<rect width="15.2043" height="15.2043" fill="white" transform="translate(9 7)"></rect>
</clipPath>
<clipPath id="clip1_2818_6981">
<rect width="10.8093" height="10.8093" fill="white" transform="translate(40.4355 20.5259)"></rect>
</clipPath>
<clipPath id="clip2_2818_6981">
<rect width="16.1656" height="16.1656" fill="white" transform="translate(6 37.5893) rotate(-16.4927)"></rect>
</clipPath>
</defs>
</svg>