<svg xmlns="http://www.w3.org/2000/svg" viewBox="0 0 60 60" fill="none"><g clip-path="url(#eth_pairs)"><path fill="#FCC16D" d="M26.956 51.66c11.656 0 21.106-9.449 21.106-21.105S38.612 9.45 26.957 9.45C15.3 9.45 5.851 18.9 5.851 30.555c0 11.656 9.449 21.105 21.104 21.105Z"></path><path fill="#FCB44D" d="M48.061 30.555c0 11.656-9.45 21.105-21.105 21.105-.559 0-1.113-.022-1.661-.064 10.879-.848 19.443-9.945 19.443-21.04 0-11.097-8.564-20.194-19.443-21.041a21.487 21.487 0 0 1 1.661-.065c11.656 0 21.105 9.45 21.105 21.105Z"></path><path fill="#FEE7C9" d="M26.956 48.007c9.639 0 17.452-7.813 17.452-17.452 0-9.638-7.813-17.452-17.452-17.452-9.639 0-17.452 7.814-17.452 17.452 0 9.639 7.813 17.452 17.452 17.452Z"></path><path fill="#FFD496" d="M44.408 30.555c0 9.639-7.814 17.452-17.452 17.452-.581 0-1.156-.028-1.722-.084 8.83-.864 15.73-8.31 15.73-17.368 0-9.057-6.9-16.503-15.73-17.368a17.51 17.51 0 0 1 1.722-.084c9.638 0 17.452 7.814 17.452 17.452Z"></path><path fill="#FB9927" d="M36.758 40.36c5.416-5.416 5.416-14.197 0-19.613s-14.197-5.416-19.613 0-5.416 14.197 0 19.614c5.416 5.416 14.197 5.416 19.613 0Z"></path><path fill="#F98824" d="M40.828 30.555c0 7.648-6.223 13.871-13.87 13.871-.586 0-1.165-.037-1.731-.108 6.834-.853 12.14-6.7 12.14-13.762 0-7.064-5.306-12.91-12.14-13.763a13.866 13.866 0 0 1 1.73-.108c7.648 0 13.871 6.221 13.871 13.87Z"></path><path fill="#64B9FC" d="M44.409 52.66c5.477 0 9.918-4.44 9.918-9.918 0-5.478-4.44-9.919-9.918-9.919-5.478 0-9.919 4.441-9.919 9.919 0 5.478 4.44 9.918 9.919 9.918Z"></path><path fill="#31A7FB" d="M54.327 42.742c0 5.478-4.44 9.919-9.919 9.919a9.927 9.927 0 0 1-2.058-.215c4.49-.947 7.86-4.932 7.86-9.704 0-4.773-3.37-8.758-7.86-9.705a9.934 9.934 0 0 1 2.058-.214c5.479 0 9.92 4.44 9.92 9.919Z"></path><path fill="#B0DCFF" d="M43.362 40.836a.855.855 0 0 0-1.696-.095l-.012.073h-.98a.855.855 0 0 0-1.699-.113l-.019.113h-.114a.855.855 0 0 0-.172 1.692l-.163.967h-.074a.855.855 0 0 0-.19 1.688.855.855 0 0 0 1.697.095l.012-.073h.98a.855.855 0 0 0 1.699.113l.019-.113h.114a.855.855 0 0 0 .172-1.692l.163-.967h.074a.855.855 0 0 0 .19-1.688Zm-2.158 2.637h-.963l.16-.95h.964l-.161.95ZM45.794 45.938a.277.277 0 0 1-.189-.07.277.277 0 0 1-.07-.189v-.864c0-.046.01-.122.03-.228a.52.52 0 0 1 .219-.288l.576-.546c.61-.457 1.116-.841 1.52-1.152.403-.312.705-.583.903-.815.206-.232.308-.447.308-.645a.688.688 0 0 0-.119-.408c-.073-.119-.222-.178-.447-.178a.658.658 0 0 0-.397.109.74.74 0 0 0-.229.268 2.37 2.37 0 0 0-.109.298c-.026.093-.073.156-.139.189a.611.611 0 0 1-.228.04h-1.55a.215.215 0 0 1-.159-.06.202.202 0 0 1-.06-.15c.007-.35.08-.668.22-.953.145-.29.344-.546.595-.764.252-.219.55-.384.894-.497.351-.12.735-.179 1.152-.179.583 0 1.083.09 1.5.268.417.18.738.43.963.755.225.325.338.712.338 1.162 0 .345-.08.666-.238.964a3.376 3.376 0 0 1-.676.844c-.291.271-.635.55-1.033.834l-.486.477h2.324c.073 0 .132.026.178.08.053.052.08.115.08.188v1.252a.257.257 0 0 1-.08.188.242.242 0 0 1-.178.07h-5.413Z"></path><path fill="#FFD496" d="M32.435 30.901c-.027-.002-6.05 3.568-6.129 3.598-.017-.01-6.094-3.606-6.122-3.602.014.021 6.118 8.64 6.122 8.64.005 0 6.129-8.636 6.129-8.636Z"></path><path fill="#FFD496" d="m26.309 19.502-6.106 10.212 6.106 3.617 6.106-3.617-6.106-10.212Z"></path></g><defs><clipPath id="eth_pairs"><path fill="#fff" d="M5 6h49.915v49.915H5z"></path></clipPath></defs></svg>