<svg xmlns="http://www.w3.org/2000/svg" viewBox="0 0 60 60" fill="none"><path fill="#fff" d="m19.979 32.266.542-.605a14.241 14.241 0 0 1-4.74-10.599c0-7.84 6.379-14.218 14.219-14.218s14.219 6.378 14.219 14.218a14.242 14.242 0 0 1-4.74 10.599l.542.605a15.023 15.023 0 0 0 2.353-2.672h3.066a14.268 14.268 0 0 1-3.478 3.293l.451.675a15.018 15.018 0 0 0 6.68-12.5c0-8.288-6.742-15.03-15.03-15.03h-4.876v.021c-7.911.424-14.218 6.994-14.218 15.01a15.055 15.055 0 0 0 5.01 11.203Zm26.026-3.485h-3.11a15.07 15.07 0 0 0 1.453-3.25h3.213a14.185 14.185 0 0 1-1.556 3.25Zm1.798-4.062h-3.226c.268-1.064.419-2.154.449-3.25h3.249a14.228 14.228 0 0 1-.472 3.25Zm.472-4.063h-3.25a14.983 14.983 0 0 0-.444-3.25h3.223c.282 1.062.44 2.152.471 3.25Zm-.714-4.062h-3.208a14.954 14.954 0 0 0-1.46-3.25h3.105a14.166 14.166 0 0 1 1.563 3.25Zm-2.13-4.063h-3.063a15.148 15.148 0 0 0-2.102-2.437H43.1a14.34 14.34 0 0 1 2.33 2.437Zm-3.416-3.25h-2.69a15.022 15.022 0 0 0-4.366-2.408c2.525.156 4.962.988 7.056 2.408Z"></path><path fill="#fff" d="M40.099 27.134a11.787 11.787 0 0 0-7.574-17.582l-.173.794a10.975 10.975 0 0 1 7.05 16.37l.697.418ZM27.65 10.346l-.174-.794a11.785 11.785 0 0 0-7.145 18.243l.666-.465a10.973 10.973 0 0 1 6.652-16.984ZM14.4 10.712l-.692-.424a19.112 19.112 0 0 0-.907 1.66l.731.354c.262-.541.554-1.076.869-1.59ZM11.719 20.25a18.218 18.218 0 0 1 1.136-6.359l-.762-.282a19.135 19.135 0 0 0 1.615 16.603l.693-.424a18.243 18.243 0 0 1-2.682-9.538Z"></path><path fill="#3E97FF" d="m35.832 18.122-5.498-7.855a.406.406 0 0 0-.666 0l-5.498 7.855L30 20.62l5.832-2.498Z"></path><path fill="#3E97FF" d="M30 27.156a.407.407 0 0 0 .334-.173l5.622-8.033-5.795 2.486a.406.406 0 0 1-.32 0l-5.796-2.486 5.623 8.033a.406.406 0 0 0 .333.173Z"></path><path fill="#3CFF7E" d="M42.245 37.823a6.086 6.086 0 0 0-5.781-4.167h-2.807v-2.675l3.943-3.944-.574-.574-4.063 4.062a.407.407 0 0 0-.119.288v2.843h-2.437v-4.468h-.813v4.468h-2.437v-2.843a.406.406 0 0 0-.12-.288l-4.062-4.062-.574.574 3.943 3.944v2.675h-2.806a6.086 6.086 0 0 0-5.782 4.167L14.33 48.1a4.458 4.458 0 0 0 8.216 3.404l.763-1.526a7.481 7.481 0 0 1 13.384 0l.762 1.526a4.458 4.458 0 0 0 8.216-3.404l-3.426-10.278ZM26.75 40.969h-2.844v2.843h-.813V40.97h-2.843v-.813h2.843v-2.843h.813v2.843h2.844v.813Zm8.125 0H33.25v-.813h1.625v.813Zm2.437 2.437h-1.625v-.812h1.625v.812Zm0-4.875h-1.625v-.812h1.625v.812Zm2.438 2.438h-1.625v-.813h1.625v.813Z"></path></svg>