<svg width="60" height="60" viewBox="0 0 60 60" fill="none" xmlns="http://www.w3.org/2000/svg">
<g clip-path="url(#clip0_2383_7074)">
<path d="M42.2188 7H17.7812C11.8269 7 7 11.8269 7 17.7812V42.2188C7 48.1731 11.8269 53 17.7812 53H42.2188C48.1731 53 53 48.1731 53 42.2188V17.7812C53 11.8269 48.1731 7 42.2188 7Z" fill="url(#paint0_radial_2383_7074)"></path>
<path d="M42.2188 7H17.7812C11.8269 7 7 11.8269 7 17.7812V42.2188C7 48.1731 11.8269 53 17.7812 53H42.2188C48.1731 53 53 48.1731 53 42.2188V17.7812C53 11.8269 48.1731 7 42.2188 7Z" fill="url(#paint1_radial_2383_7074)" fill-opacity="0.73"></path>
</g>
<g clip-path="url(#clip1_2383_7074)">
<path d="M31.3444 31.7077C31.2184 31.3635 30.8876 31.1172 30.5003 31.1172C30.1131 31.1172 29.7822 31.3635 29.6562 31.7077L30.5003 32.3106L31.3444 31.7077Z" fill="white"></path>
<path d="M30.5008 35.9915C30.3446 36.1314 30.1666 36.2475 29.9727 36.334L30.1284 36.9571H30.8731L31.0289 36.334C30.8349 36.2475 30.6569 36.1314 30.5008 35.9915Z" fill="white"></path>
<path d="M37.9536 23.1782C37.9868 23.1468 38.02 23.1152 38.0526 23.0826C39.4561 21.6792 39.7405 19.6882 38.6879 18.6356C37.6353 17.583 35.6443 17.8674 34.2408 19.2709C34.2053 19.3064 34.1708 19.3425 34.1367 19.3787C35.7905 20.1872 37.1378 21.5287 37.9536 23.1782Z" fill="white"></path>
<path d="M26.8625 19.3787C26.8284 19.3424 26.7939 19.3063 26.7583 19.2708C25.3548 17.8673 23.3639 17.5829 22.3113 18.6355C21.2587 19.688 21.5431 21.6791 22.9465 23.0825C22.9792 23.1151 23.0123 23.1467 23.0455 23.1781C23.8613 21.5286 25.2087 20.1871 26.8625 19.3787Z" fill="white"></path>
<path d="M22.7734 38.5044C22.8848 38.5931 22.9989 38.6805 23.1163 38.7659C25.0972 40.2065 27.7197 40.9999 30.5009 40.9999C33.282 40.9999 35.9045 40.2065 37.8854 38.7659C38.0029 38.6804 38.1169 38.5931 38.2283 38.5044C37.3759 35.6157 35.0839 33.383 32.2341 32.7286L31.1747 33.4854V34.4863C31.1747 34.8578 31.477 35.1601 31.8485 35.1601C32.2201 35.1601 32.5223 34.8578 32.5223 34.4863C32.5223 34.1141 32.824 33.8124 33.1962 33.8124C33.5683 33.8124 33.87 34.1141 33.87 34.4863C33.87 35.4121 33.2441 36.194 32.3934 36.4325L32.053 37.7943C31.978 38.0942 31.7085 38.3046 31.3993 38.3046H29.6024C29.2932 38.3046 29.0237 38.0942 28.9487 37.7942L28.6083 36.4325C27.7576 36.194 27.1317 35.4121 27.1317 34.4863C27.1317 34.1141 27.4334 33.8124 27.8055 33.8124C28.1777 33.8124 28.4794 34.1141 28.4794 34.4863C28.4794 34.8578 28.7816 35.1601 29.1532 35.1601C29.5247 35.1601 29.827 34.8578 29.827 34.4863V33.4854L28.7676 32.7287C25.9178 33.383 23.6258 35.6157 22.7734 38.5044Z" fill="white"></path>
<path d="M23.8194 34.0697C25.079 32.7552 26.6333 31.8586 28.3275 31.4452C28.5806 30.4821 29.4585 29.7695 30.5 29.7695C31.5415 29.7695 32.4194 30.4821 32.6725 31.4452C34.3667 31.8586 35.9209 32.7552 37.1806 34.0697C38.1269 35.0573 38.8464 36.2178 39.3122 37.4825C40.4472 36.209 41.0566 34.7126 41.0566 33.1387C41.0566 30.8512 39.7523 28.7123 37.4629 27.221V26.8496C37.4629 23.0103 34.3393 19.8867 30.5 19.8867C26.6607 19.8867 23.5371 23.0103 23.5371 26.8496V27.221C21.2477 28.7123 19.9434 30.8512 19.9434 33.1387C19.9434 34.7126 20.5528 36.209 21.6878 37.4825C22.1535 36.2178 22.8731 35.0573 23.8194 34.0697ZM32.9707 26.8496C32.9707 26.4775 33.2724 26.1758 33.6445 26.1758C34.0167 26.1758 34.3184 26.4775 34.3184 26.8496V28.1973C34.3184 28.5694 34.0167 28.8711 33.6445 28.8711C33.2724 28.8711 32.9707 28.5694 32.9707 28.1973V26.8496ZM26.6816 26.8496C26.6816 26.4775 26.9833 26.1758 27.3555 26.1758C27.7276 26.1758 28.0293 26.4775 28.0293 26.8496V28.1973C28.0293 28.5694 27.7276 28.8711 27.3555 28.8711C26.9833 28.8711 26.6816 28.5694 26.6816 28.1973V26.8496Z" fill="white"></path>
</g>
<defs>
<radialGradient id="paint0_radial_2383_7074" cx="0" cy="0" r="1" gradientUnits="userSpaceOnUse" gradientTransform="translate(19.2187 56.5429) rotate(-90) scale(45.5894 42.4018)">
<stop stop-color="#FFDD55"></stop>
<stop offset="0.1" stop-color="#FFDD55"></stop>
<stop offset="0.5" stop-color="#FF543E"></stop>
<stop offset="1" stop-color="#C837AB"></stop>
</radialGradient>
<radialGradient id="paint1_radial_2383_7074" cx="0" cy="0" r="1" gradientUnits="userSpaceOnUse" gradientTransform="translate(-0.705183 10.3136) rotate(58.7137) scale(44.6842 184.19)">
<stop stop-color="#3771C8"></stop>
<stop offset="0.128" stop-color="#3771C8"></stop>
<stop offset="1" stop-color="#6600FF" stop-opacity="0"></stop>
</radialGradient>
<clipPath id="clip0_2383_7074">
<rect width="46" height="46" fill="white" transform="translate(7 7)"></rect>
</clipPath>
<clipPath id="clip1_2383_7074">
<rect width="23" height="23" fill="white" transform="translate(19 18)"></rect>
</clipPath>
</defs>
</svg>