<svg width="60" height="68" viewBox="0 0 60 68" fill="none" xmlns="http://www.w3.org/2000/svg">
<path d="M21.5845 33.7581C21.5413 33.7669 21.4989 33.7796 21.4579 33.7961C20.8908 33.9285 20.3913 34.2628 20.0526 34.7365C19.714 35.2103 19.5593 35.7911 19.6175 36.3705C19.6756 36.9499 19.9427 37.4883 20.3688 37.8853C20.7949 38.2822 21.3508 38.5106 21.9329 38.5276C21.4654 37.2121 21.5984 35.1642 21.5845 33.7581Z" fill="#FFDECF"></path>
<path d="M19.3501 28.7919C21.036 27.1946 21.3626 24.0689 18.699 23.4476C18.3775 23.3884 18.0467 23.4034 17.7319 23.4915C17.4171 23.5796 17.1266 23.7385 16.8825 23.9561C16.6566 23.7565 16.3917 23.6061 16.1046 23.5143C15.8176 23.4225 15.5145 23.3914 15.2148 23.4229C12.4396 23.9684 12.6582 27.1074 14.4088 28.7857C16.7992 31.1841 16.9543 31.2012 19.3501 28.7919Z" fill="#F36021"></path>
<path d="M45.4107 22.8394H41.5134C40.8539 22.8406 40.2218 23.1031 39.7554 23.5695C39.2891 24.0358 39.0266 24.6679 39.0254 25.3274V26.7586C39.0257 27.219 39.1575 27.6697 39.4052 28.0577L39.097 29.3292C39.0742 29.4318 39.0811 29.5387 39.1168 29.6374C39.1526 29.7362 39.2158 29.8227 39.299 29.8868C39.3822 29.9509 39.4819 29.99 39.5865 29.9995C39.6912 30.0089 39.7963 29.9884 39.8896 29.9402L41.3373 29.1695L45.4051 29.1861C46.0647 29.1852 46.6971 28.9228 47.1635 28.4564C47.6298 27.99 47.8923 27.3576 47.8931 26.698V25.3274C47.8923 24.6688 47.6306 24.0373 47.1654 23.5711C46.7002 23.1048 46.0693 22.8418 45.4107 22.8394ZM45.3335 26.4724H41.9593C41.815 26.4698 41.6776 26.4106 41.5765 26.3077C41.4754 26.2048 41.4187 26.0662 41.4187 25.9219C41.4187 25.7777 41.4754 25.6391 41.5765 25.5362C41.6776 25.4333 41.8151 25.3741 41.9594 25.3715H45.3335C45.4779 25.374 45.6154 25.4331 45.7166 25.5361C45.8178 25.639 45.8745 25.7776 45.8745 25.922C45.8745 26.0663 45.8178 26.2049 45.7166 26.3078C45.6154 26.4108 45.4779 26.4699 45.3335 26.4724Z" fill="#FFE589"></path>
<path d="M41.2916 51.0626C41.0116 50.3211 40.5702 49.6512 39.9995 49.1013C39.4287 48.5514 38.7429 48.1352 37.9916 47.8829L35.2805 46.9644C34.4096 46.6652 33.6173 46.1738 32.9623 45.5266L29.9346 49.7007C29.875 49.7792 29.7981 49.8429 29.71 49.887C29.6219 49.9311 29.5248 49.9544 29.4263 49.955C29.3277 49.9556 29.2303 49.9336 29.1417 49.8906C29.053 49.8476 28.9754 49.7849 28.9148 49.7071C28.3685 48.988 26.2684 46.2157 25.7541 45.5456C24.6409 46.8167 22.3993 47.3548 20.8577 47.8829C20.1054 48.1333 19.4186 48.5488 18.8476 49.099C18.2766 49.6492 17.8359 50.3201 17.5577 51.0626L15.7078 55.962C15.5961 56.2324 15.5524 56.526 15.5805 56.8172C15.6086 57.1084 15.7076 57.3883 15.8689 57.6323C16.0302 57.8764 16.2489 58.0772 16.5057 58.2173C16.7626 58.3573 17.0498 58.4322 17.3424 58.4355H18.5078C18.8469 57.6446 19.805 55.3731 20.1559 54.5464C20.2247 54.3969 20.3489 54.2801 20.5024 54.2207C20.6558 54.1612 20.8263 54.1639 20.9778 54.228C21.1293 54.2921 21.2499 54.4126 21.3141 54.5641C21.3783 54.7156 21.381 54.8861 21.3216 55.0395C21.0075 55.8249 20.1969 57.6673 19.8824 58.4355H38.9607L37.5214 55.0395C37.4583 54.8854 37.4585 54.7126 37.522 54.5586C37.5855 54.4046 37.7071 54.2818 37.8605 54.2169C38.0139 54.152 38.1867 54.1502 38.3414 54.2118C38.4961 54.2735 38.6203 54.3936 38.6871 54.5463L40.3352 58.4355L41.4783 58.4355C41.767 58.437 42.0518 58.3683 42.3082 58.2355C42.5646 58.1027 42.7849 57.9096 42.9503 57.673C43.1157 57.4363 43.2212 57.163 43.2577 56.8766C43.2943 56.5901 43.2608 56.2991 43.1601 56.0285L41.2916 51.0626ZM29.4151 51.4173C29.5734 51.4206 29.7241 51.4857 29.8349 51.5988C29.9457 51.7119 30.0077 51.8639 30.0077 52.0222C30.0077 52.1805 29.9457 52.3325 29.8349 52.4456C29.7241 52.5587 29.5734 52.6238 29.4151 52.6271C29.2568 52.6238 29.1061 52.5587 28.9954 52.4456C28.8846 52.3325 28.8225 52.1805 28.8225 52.0222C28.8226 51.8639 28.8846 51.7119 28.9954 51.5988C29.1062 51.4857 29.2569 51.4205 29.4151 51.4173ZM29.4151 56.947C29.2562 56.9447 29.1045 56.88 28.9929 56.7668C28.8813 56.6536 28.8188 56.501 28.8188 56.3421C28.8188 56.1831 28.8814 56.0305 28.993 55.9173C29.1046 55.8041 29.2562 55.7394 29.4152 55.7372C29.5741 55.7394 29.7258 55.8042 29.8374 55.9174C29.949 56.0306 30.0116 56.1831 30.0116 56.3421C30.0115 56.5011 29.949 56.6536 29.8374 56.7668C29.7258 56.88 29.5741 56.9447 29.4151 56.947ZM29.4151 55.0278C29.2556 55.0278 29.1025 54.9644 28.9896 54.8515C28.8768 54.7386 28.8134 54.5856 28.8134 54.426C28.8134 54.2664 28.8768 54.1133 28.9897 54.0005C29.1025 53.8876 29.2556 53.8242 29.4152 53.8242C29.5748 53.8243 29.7278 53.8877 29.8407 54.0005C29.9535 54.1134 30.0169 54.2664 30.0169 54.426C30.0169 54.5856 29.9535 54.7387 29.8407 54.8515C29.7278 54.9644 29.5747 55.0278 29.4151 55.0278Z" fill="#2196F3"></path>
<path d="M25.94 43.2119C25.9336 43.2436 25.9336 43.706 25.9336 43.706C26.756 44.7508 28.5643 47.1544 29.3863 48.2291C30.1746 47.1334 31.9745 44.6835 32.7441 43.6178C32.7441 43.6178 32.7441 43.2947 32.7378 43.2694C31.6735 43.7723 30.5094 44.0283 29.3323 44.0183C28.1552 44.0084 26.9956 43.7327 25.94 43.2119Z" fill="#FFDECF"></path>
<path d="M37.3618 33.7961C37.3208 33.7796 37.2784 33.7669 37.2351 33.7581C37.2213 35.1642 37.3543 37.2121 36.8867 38.5276C37.4688 38.5106 38.0248 38.2823 38.4509 37.8853C38.877 37.4884 39.144 36.9499 39.2022 36.3705C39.2604 35.7911 39.1057 35.2103 38.767 34.7365C38.4284 34.2628 37.9289 33.9285 37.3618 33.7961Z" fill="#FFDECF"></path>
<path d="M22.3287 32.6444C23.8979 32.4541 26.0172 31.7564 27.0565 30.309C28.9973 32.2458 33.0436 33.311 36.5655 32.4468C37.2958 32.4012 38.0364 31.9719 37.9842 31.1357C37.9186 23.7594 29.1791 19.6618 23.632 24.971C21.8522 26.7157 21.1828 28.5362 21.0148 31.4188C21.0074 31.5894 21.0371 31.7595 21.1018 31.9175C21.1665 32.0756 21.2647 32.2177 21.3895 32.3341C21.5144 32.4506 21.663 32.5386 21.8251 32.5922C21.9873 32.6457 22.1591 32.6635 22.3287 32.6444Z" fill="#FF9060"></path>
<path d="M35.9768 33.8404C32.9563 34.3161 29.5793 33.7696 27.1746 32.0126C25.9241 32.9989 24.4318 33.6315 22.8535 33.8447V36.2137C23.2199 44.9 35.6031 44.9446 35.9832 36.2157C35.98 35.7436 35.9904 34.2917 35.9768 33.8404Z" fill="#FFDECF"></path>
<path d="M43.0779 39.1892C42.7564 39.1285 42.4253 39.1428 42.1102 39.2309C41.7951 39.3191 41.5047 39.4788 41.2614 39.6976C41.0363 39.4968 40.7716 39.3456 40.4843 39.2537C40.197 39.1619 39.8935 39.1315 39.5937 39.1645C36.8279 39.6958 37.0337 42.8665 38.7879 44.5271C41.1641 46.912 41.3446 46.9419 43.7227 44.5333C45.4129 42.9494 45.743 39.7965 43.0779 39.1892Z" fill="#F36021"></path>
<path d="M16.0216 45.6547V43.0296C16.0217 42.7827 15.924 42.5458 15.7498 42.3707C15.5757 42.1957 15.3393 42.0968 15.0923 42.0956H14.6742C14.4265 42.0956 14.1889 42.194 14.0138 42.3692C13.8386 42.5443 13.7402 42.7819 13.7402 43.0296V45.6501C13.7402 45.8978 13.8386 46.1353 14.0138 46.3105C14.1889 46.4856 14.4265 46.584 14.6742 46.584H15.0923C15.3383 46.5823 15.5736 46.4838 15.7475 46.3099C15.9214 46.136 16.0199 45.9006 16.0216 45.6547Z" fill="#FFE589"></path>
<path d="M19.8507 46.6072C20.0955 46.6069 20.3323 46.5207 20.52 46.3636C20.7076 46.2065 20.8342 45.9885 20.8776 45.7476L21.3237 43.4013C21.3503 43.2535 21.3452 43.1017 21.3087 42.9561C21.2722 42.8104 21.2052 42.6742 21.112 42.5564C21.0189 42.4387 20.9017 42.342 20.7684 42.273C20.635 42.204 20.4885 42.1641 20.3386 42.156L19.7578 42.1281L19.8972 41.1989C20.118 40.1818 18.5835 39.1607 18.1037 40.3532L17.8063 41.3429C17.6862 41.8291 17.1844 42.0496 16.8027 42.3047C16.9002 42.5339 16.9508 42.7804 16.9514 43.0296C16.987 44.0708 16.9638 45.1133 16.8818 46.1519C17.6334 46.7548 18.9593 46.5791 19.8507 46.6072Z" fill="#FFE589"></path>
<path d="M30.9348 14.7355C31.2401 14.7352 31.5327 14.6138 31.7486 14.3979C31.9644 14.1821 32.0859 13.8894 32.0862 13.5842V11.4663C32.0862 11.1609 31.9649 10.868 31.7489 10.652C31.533 10.4361 31.2401 10.3148 30.9347 10.3148C30.6293 10.3148 30.3364 10.4361 30.1205 10.652C29.9045 10.868 29.7832 11.1609 29.7832 11.4663V13.5842C29.7836 13.8895 29.905 14.1822 30.1209 14.398C30.3368 14.6139 30.6295 14.7353 30.9348 14.7355Z" fill="white"></path>
<path d="M36.263 14.7355C36.5682 14.7352 36.8609 14.6138 37.0767 14.3979C37.2926 14.1821 37.414 13.8894 37.4143 13.5842V11.4663C37.4143 11.1609 37.293 10.868 37.0771 10.652C36.8611 10.4361 36.5682 10.3148 36.2628 10.3148C35.9574 10.3148 35.6645 10.4361 35.4486 10.652C35.2326 10.868 35.1113 11.1609 35.1113 11.4663V13.5842C35.1117 13.8895 35.2331 14.1822 35.449 14.398C35.6649 14.6139 35.9577 14.7353 36.263 14.7355Z" fill="white"></path>
<path d="M15.6994 19.9139H33.5513L33.4484 20.2484C32.9886 21.5591 34.4908 22.8615 35.7199 22.23L40.4641 20.0273C40.6251 19.9529 40.8004 19.9142 40.9778 19.9139H43.3006C44.2814 19.9128 45.2217 19.5227 45.9153 18.8292C46.6088 18.1357 46.9989 17.1954 47 16.2146V8.69936C46.9989 7.71857 46.6088 6.77827 45.9153 6.08475C45.2217 5.39122 44.2814 5.00111 43.3006 5H15.6994C14.7186 5.00111 13.7783 5.39122 13.0847 6.08475C12.3912 6.77827 12.0011 7.71857 12 8.69936V16.2146C12.0011 17.1954 12.3912 18.1357 13.0847 18.8292C13.7783 19.5227 14.7186 19.9128 15.6994 19.9139ZM39.5671 9.89496C39.5671 9.78357 39.6114 9.67674 39.6901 9.59797C39.7689 9.51921 39.8757 9.47496 39.9871 9.47496C40.0985 9.47496 40.2053 9.51921 40.2841 9.59797C40.3629 9.67674 40.4071 9.78357 40.4071 9.89496V11.6254L42.8951 9.55203C42.9375 9.51672 42.9864 9.4901 43.0391 9.4737C43.0917 9.45729 43.1471 9.45142 43.202 9.45642C43.257 9.46141 43.3104 9.47718 43.3592 9.50281C43.408 9.52845 43.4514 9.56345 43.4867 9.60582C43.522 9.6482 43.5486 9.69711 43.565 9.74977C43.5814 9.80243 43.5873 9.8578 43.5823 9.91273C43.5773 9.96766 43.5615 10.0211 43.5359 10.0699C43.5102 10.1187 43.4752 10.1621 43.4329 10.1974L40.672 12.498L43.4329 14.7987C43.4752 14.834 43.5102 14.8774 43.5359 14.9262C43.5615 14.975 43.5773 15.0284 43.5823 15.0834C43.5873 15.1383 43.5814 15.1937 43.565 15.2463C43.5486 15.299 43.522 15.3479 43.4867 15.3903C43.4514 15.4326 43.408 15.4677 43.3592 15.4933C43.3104 15.5189 43.257 15.5347 43.202 15.5397C43.1471 15.5447 43.0917 15.5388 43.0391 15.5224C42.9864 15.506 42.9375 15.4794 42.8951 15.4441L40.4071 13.3708V15.1558C40.4071 15.2672 40.3629 15.374 40.2841 15.4528C40.2053 15.5316 40.0985 15.5758 39.9871 15.5758C39.8757 15.5758 39.7689 15.5316 39.6901 15.4528C39.6114 15.374 39.5671 15.2672 39.5671 15.1558V9.89496ZM34.2723 11.4663C34.2723 10.9381 34.4821 10.4316 34.8556 10.0581C35.2291 9.68464 35.7356 9.47482 36.2638 9.47482C36.792 9.47482 37.2985 9.68464 37.672 10.0581C38.0455 10.4316 38.2553 10.9381 38.2553 11.4663V13.5842C38.2553 14.1124 38.0455 14.619 37.672 14.9924C37.2985 15.3659 36.792 15.5757 36.2638 15.5757C35.7356 15.5757 35.2291 15.3659 34.8556 14.9924C34.4821 14.619 34.2723 14.1124 34.2723 13.5842V11.4663ZM28.9434 11.4663C28.9434 10.9381 29.1532 10.4316 29.5267 10.0581C29.9001 9.68464 30.4067 9.47482 30.9349 9.47482C31.463 9.47482 31.9696 9.68464 32.3431 10.0581C32.7165 10.4316 32.9264 10.9381 32.9264 11.4663V13.5842C32.9264 14.1124 32.7165 14.619 32.3431 14.9924C31.9696 15.3659 31.463 15.5757 30.9349 15.5757C30.4067 15.5757 29.9001 15.3659 29.5267 14.9924C29.1532 14.619 28.9434 14.1124 28.9434 13.5842V11.4663ZM25.3384 11.7214L26.9121 9.62273C27.1369 9.30136 27.6811 9.48273 27.6681 9.87473V15.1556C27.6681 15.267 27.6239 15.3738 27.5451 15.4526C27.4663 15.5313 27.3595 15.5756 27.2481 15.5756C27.1367 15.5756 27.0299 15.5313 26.9511 15.4526C26.8723 15.3738 26.8281 15.267 26.8281 15.1556V11.1347L26.0101 12.2254C25.9432 12.3145 25.8437 12.3734 25.7335 12.3892C25.6232 12.4049 25.5112 12.3762 25.4221 12.3094C25.333 12.2426 25.2741 12.1431 25.2583 12.0328C25.2425 11.9225 25.2712 11.8105 25.3381 11.7214H25.3384ZM15.7092 11.0634C15.9455 10.3458 16.639 9.6431 17.3929 9.6564C17.7362 9.6665 18.0704 9.76846 18.3608 9.95166C18.6513 10.1349 18.8872 10.3926 19.0442 10.698C19.066 10.7427 19.0999 10.7803 19.142 10.8066C19.1842 10.833 19.2329 10.8469 19.2826 10.8469C19.3323 10.8469 19.381 10.833 19.4231 10.8066C19.4653 10.7803 19.4992 10.7427 19.521 10.698C19.6779 10.3924 19.9139 10.1346 20.2044 9.95127C20.4949 9.76797 20.8292 9.66595 21.1725 9.65584C21.9265 9.64268 22.62 10.3453 22.8563 11.0628C23.6147 13.3669 21.2567 14.8923 19.6029 15.4759C19.3957 15.5494 19.1695 15.5494 18.9623 15.4759C17.3081 14.8925 14.9506 13.3666 15.709 11.0632L15.7092 11.0634Z" fill="white"></path>
</svg>