<svg xmlns="http://www.w3.org/2000/svg" viewBox="0 0 60 60" fill="none"><g clip-path="url(#it_team)"><path fill="#B4DBFF" d="M20.244 13.932v.354h23.008a2.366 2.366 0 0 1 2.36 2.359v29.23h4.028a2.366 2.366 0 0 0 2.36-2.36V13.933H20.244Z"></path><path fill="#8BCAFF" d="M20.244 14.286h23.008a2.366 2.366 0 0 1 2.36 2.359v29.23h2.833V16.468c0-.925-.253-1.792-.691-2.536h-27.51v.354Z"></path><path fill="#D9EDFF" d="M8 19.954V49.54a2.366 2.366 0 0 0 2.36 2.359h33.07a2.366 2.366 0 0 0 2.359-2.36V19.956H8Z"></path><path fill="#B4DBFF" d="M10.59 49.539V19.954H8V49.54a2.366 2.366 0 0 0 2.36 2.359h2.59a2.366 2.366 0 0 1-2.36-2.36Z"></path><path fill="#4F66D1" d="M49.64 8.086H20.244v6.023H52v-3.664a2.366 2.366 0 0 0-2.36-2.36Z"></path><path fill="#314DCA" d="M47.854 14.109a5.02 5.02 0 0 0-4.425-2.656H20.244v2.656h27.61Z"></path><path fill="#6C7FD9" d="M43.43 14.108H14.032v6.023H45.79v-3.663a2.367 2.367 0 0 0-2.36-2.36Z"></path><path fill="#314DCA" d="M49.008 11.761h-1.855a.664.664 0 1 1 0-1.327h1.855a.664.664 0 1 1 0 1.328Z"></path><path fill="#4F66D1" d="M42.797 17.784h-1.856a.664.664 0 0 1 0-1.328h1.856a.664.664 0 1 1 0 1.328Z"></path><path fill="#FF4755" d="M20.422 8.086H16.57a2.366 2.366 0 0 0-2.36 2.36v3.663h6.212V8.086Z"></path><path fill="#FC2B3A" d="M17.662 11.453a.794.794 0 0 1-.795-.795v-.213a2.366 2.366 0 0 1 2.36-2.36H16.57a2.366 2.366 0 0 0-2.36 2.36v3.664h6.212v-2.656h-2.76Z"></path><path fill="#FF646F" d="M14.21 14.108h-3.85A2.366 2.366 0 0 0 8 16.468v3.663h6.21v-6.023Z"></path><path fill="#FF4755" d="M12.95 14.108h-2.59A2.366 2.366 0 0 0 8 16.468v3.663h2.59v-3.663a2.366 2.366 0 0 1 2.36-2.36Z"></path><path fill="#6C7FD9" d="M31.53 39.512a1.148 1.148 0 0 1 .248-1.605l3.645-2.667-3.645-2.668a1.148 1.148 0 0 1 1.357-1.853l4.909 3.595a1.148 1.148 0 0 1 0 1.852l-4.91 3.594a1.148 1.148 0 0 1-1.604-.248ZM20.654 39.76l-4.91-3.594a1.148 1.148 0 0 1 0-1.852l4.91-3.594a1.148 1.148 0 1 1 1.356 1.852l-3.644 2.668 3.644 2.667a1.148 1.148 0 0 1-1.356 1.853ZM23.459 42.048a1.148 1.148 0 0 1-.522-1.538l5.701-11.556a1.148 1.148 0 1 1 2.06 1.015l-5.702 11.557c-.28.569-.969.802-1.537.522Z"></path></g><defs><clipPath id="it_team"><path fill="#fff" d="M8 8h44v44H8z"></path></clipPath></defs></svg>