<svg width="60" height="60" viewBox="0 0 60 60" fill="none" xmlns="http://www.w3.org/2000/svg">
<g clip-path="url(#clip0_1266_1320)">
<path d="M30.0011 17.7049C33.3962 17.7049 36.1486 14.9526 36.1486 11.5574C36.1486 8.1622 33.3962 5.40985 30.0011 5.40985C26.6059 5.40985 23.8535 8.1622 23.8535 11.5574C23.8535 14.9526 26.6059 17.7049 30.0011 17.7049Z" fill="#99E6FD"></path>
<path d="M32.0498 15.6557C30.9582 15.6562 29.8862 15.3659 28.9441 14.8147C28.0019 14.2634 27.2236 13.4712 26.6891 12.5194C26.1547 11.5676 25.8835 10.4906 25.9033 9.39917C25.9232 8.30777 26.2334 7.24136 26.8021 6.30963C26.0074 6.79372 25.3331 7.45193 24.8298 8.23463C24.3266 9.01732 24.0077 9.90406 23.8971 10.828C23.7865 11.7519 23.8871 12.6889 24.1914 13.5682C24.4957 14.4476 24.9957 15.2463 25.6536 15.9043C26.3116 16.5623 27.1104 17.0623 27.9897 17.3665C28.8691 17.6708 29.8061 17.7715 30.73 17.6609C31.6539 17.5503 32.5406 17.2313 33.3233 16.7281C34.106 16.2249 34.7642 15.5505 35.2483 14.7558C34.2857 15.3455 33.1786 15.657 32.0498 15.6557Z" fill="#67D9FB"></path>
<path d="M34.0978 17.705H25.9011C24.8145 17.7062 23.7729 18.1384 23.0045 18.9068C22.2362 19.6751 21.804 20.7168 21.8027 21.8033V30C21.8027 30.5435 22.0186 31.0647 22.4029 31.449C22.7872 31.8333 23.3084 32.0492 23.8519 32.0492H36.147C36.6905 32.0492 37.2117 31.8333 37.596 31.449C37.9803 31.0647 38.1962 30.5435 38.1962 30V21.8033C38.1949 20.7168 37.7627 19.6751 36.9944 18.9068C36.2261 18.1384 35.1844 17.7062 34.0978 17.705Z" fill="#99E6FD"></path>
<path d="M25.9011 30V21.8033C25.9024 20.7168 26.3346 19.6751 27.1029 18.9068C27.8712 18.1384 28.9129 17.7062 29.9995 17.705H25.9011C24.8145 17.7062 23.7729 18.1384 23.0045 18.9068C22.2362 19.6751 21.804 20.7168 21.8027 21.8033V30C21.8027 30.5435 22.0186 31.0647 22.4029 31.449C22.7872 31.8333 23.3084 32.0492 23.8519 32.0492H27.9503C27.4068 32.0492 26.8856 31.8333 26.5013 31.449C26.117 31.0647 25.9011 30.5435 25.9011 30Z" fill="#67D9FB"></path>
<path d="M46.3936 23.8524C49.7888 23.8524 52.5412 21.1001 52.5412 17.7049C52.5412 14.3097 49.7888 11.5574 46.3936 11.5574C42.9984 11.5574 40.2461 14.3097 40.2461 17.7049C40.2461 21.1001 42.9984 23.8524 46.3936 23.8524Z" fill="#67D9FB"></path>
<path d="M48.4424 21.8033C47.3508 21.8038 46.2788 21.5135 45.3366 20.9622C44.3945 20.411 43.6161 19.6187 43.0817 18.6669C42.5473 17.7151 42.276 16.6381 42.2959 15.5468C42.3158 14.4554 42.626 13.3889 43.1947 12.4572C42.4 12.9413 41.7256 13.5995 41.2224 14.3822C40.7192 15.1649 40.4002 16.0516 40.2897 16.9756C40.1791 17.8995 40.2797 18.8364 40.584 19.7158C40.8883 20.5951 41.3882 21.3939 42.0462 22.0519C42.7042 22.7099 43.503 23.2098 44.3823 23.5141C45.2617 23.8184 46.1986 23.9191 47.1226 23.8085C48.0465 23.6979 48.9332 23.3789 49.7159 22.8757C50.4986 22.3725 51.1568 21.6981 51.6409 20.9034C50.6783 21.4931 49.5712 21.8045 48.4424 21.8033Z" fill="#34CDFA"></path>
<path d="M50.4923 23.8525H42.2956C41.2091 23.8538 40.1674 24.286 39.3991 25.0543C38.6308 25.8226 38.1986 26.8643 38.1973 27.9508V36.1476C38.1973 36.691 38.4132 37.2122 38.7975 37.5965C39.1818 37.9808 39.703 38.1967 40.2464 38.1967H52.5415C53.085 38.1967 53.6062 37.9808 53.9905 37.5965C54.3748 37.2122 54.5907 36.691 54.5907 36.1476V27.9508C54.5894 26.8643 54.1572 25.8226 53.3889 25.0543C52.6206 24.286 51.5789 23.8538 50.4923 23.8525Z" fill="#67D9FB"></path>
<path d="M42.2956 36.1476V27.9508C42.2969 26.8643 42.7291 25.8226 43.4974 25.0543C44.2657 24.286 45.3074 23.8538 46.394 23.8525H42.2956C41.2091 23.8538 40.1674 24.286 39.3991 25.0543C38.6308 25.8226 38.1986 26.8643 38.1973 27.9508V36.1476C38.1973 36.691 38.4132 37.2122 38.7975 37.5965C39.1818 37.9808 39.703 38.1967 40.2464 38.1967H44.3448C43.8013 38.1967 43.2801 37.9808 42.8958 37.5965C42.5115 37.2122 42.2956 36.691 42.2956 36.1476Z" fill="#34CDFA"></path>
<path d="M13.6065 23.8524C17.0017 23.8524 19.7541 21.1001 19.7541 17.7049C19.7541 14.3097 17.0017 11.5574 13.6065 11.5574C10.2113 11.5574 7.45898 14.3097 7.45898 17.7049C7.45898 21.1001 10.2113 23.8524 13.6065 23.8524Z" fill="#67D9FB"></path>
<path d="M15.6553 21.8033C14.5637 21.8038 13.4917 21.5135 12.5495 20.9622C11.6073 20.411 10.829 19.6187 10.2946 18.6669C9.76017 17.7151 9.48893 16.6381 9.50879 15.5468C9.52865 14.4554 9.83889 13.3889 10.4076 12.4572C9.61291 12.9413 8.93853 13.5995 8.43531 14.3822C7.93208 15.1649 7.61314 16.0516 7.50255 16.9756C7.39196 17.8995 7.4926 18.8364 7.79688 19.7158C8.10116 20.5951 8.60114 21.3939 9.25911 22.0519C9.91708 22.7099 10.7159 23.2098 11.5952 23.5141C12.4746 23.8184 13.4115 23.9191 14.3354 23.8085C15.2594 23.6979 16.1461 23.3789 16.9288 22.8757C17.7115 22.3725 18.3697 21.6981 18.8538 20.9034C17.8912 21.4931 16.7841 21.8045 15.6553 21.8033Z" fill="#34CDFA"></path>
<path d="M17.7052 23.8525H9.50851C8.42196 23.8538 7.38027 24.286 6.61196 25.0543C5.84365 25.8226 5.41144 26.8643 5.41016 27.9508L5.41016 36.1476C5.41016 36.691 5.62605 37.2122 6.01035 37.5965C6.39464 37.9808 6.91586 38.1967 7.45934 38.1967H19.7544C20.2979 38.1967 20.8191 37.9808 21.2034 37.5965C21.5877 37.2122 21.8036 36.691 21.8036 36.1476V27.9508C21.8023 26.8643 21.3701 25.8226 20.6018 25.0543C19.8335 24.286 18.7918 23.8538 17.7052 23.8525Z" fill="#67D9FB"></path>
<path d="M9.50851 36.1476V27.9508C9.5098 26.8643 9.94201 25.8226 10.7103 25.0543C11.4786 24.286 12.5203 23.8538 13.6069 23.8525H9.50851C8.42196 23.8538 7.38027 24.286 6.61196 25.0543C5.84365 25.8226 5.41144 26.8643 5.41016 27.9508L5.41016 36.1476C5.41016 36.691 5.62605 37.2122 6.01035 37.5965C6.39464 37.9808 6.91586 38.1967 7.45934 38.1967H11.5577C11.0142 38.1967 10.493 37.9808 10.1087 37.5965C9.72441 37.2122 9.50851 36.691 9.50851 36.1476Z" fill="#34CDFA"></path>
<path d="M45.1075 26.243C42.3892 22.8808 37.0391 20.5248 30.0007 23.637C22.9625 20.5245 17.6121 22.8808 14.8939 26.243C11.7281 30.1593 10.8749 37.0371 16.1054 43.5752C20.9041 49.5737 28.6415 54.1206 28.9686 54.3114C29.2819 54.494 29.638 54.5902 30.0005 54.5902C30.3631 54.5902 30.7192 54.494 31.0324 54.3114C31.3598 54.1206 39.0972 49.5727 43.8959 43.5752C49.1264 37.0371 48.2732 30.1593 45.1075 26.243Z" fill="#F36021"></path>
<path d="M21.2284 43.0636C15.9978 36.5254 16.8511 29.6476 20.0168 25.7314C21.3293 24.1167 23.0765 22.9115 25.0521 22.2583C20.4512 21.7662 16.9323 23.7217 14.8939 26.2432C11.7281 30.1594 10.8749 37.0372 16.1054 43.5754C20.9041 49.5739 28.6415 54.1207 28.9686 54.3116C29.2819 54.4941 29.638 54.5903 30.0005 54.5903C30.3631 54.5903 30.7192 54.4941 31.0324 54.3116C31.128 54.256 31.8572 53.8269 32.9574 53.1018C30.5765 51.5884 24.9971 47.7739 21.2284 43.0636Z" fill="#DD5217"></path>
<path d="M28.8762 34.1094H36.0483V30.011H31.9499V27.9619H27.8516V30.1135C26.6065 30.3663 25.4998 31.0727 24.7464 32.0956C23.9929 33.1185 23.6463 34.3848 23.774 35.6488C23.9017 36.9128 24.4945 38.0843 25.4373 38.9359C26.3801 39.7874 27.6057 40.2582 28.8762 40.2569H30.9253C31.1971 40.2569 31.4577 40.3649 31.6498 40.557C31.842 40.7492 31.9499 41.0098 31.9499 41.2815C31.9499 41.5533 31.842 41.8139 31.6498 42.006C31.4577 42.1982 31.1971 42.3061 30.9253 42.3061H23.7532V46.4045H27.8516V48.4536H31.9499V46.302C33.195 46.0492 34.3016 45.3428 35.0551 44.3199C35.8086 43.297 36.1552 42.0307 36.0275 40.7667C35.8998 39.5027 35.307 38.3312 34.3642 37.4796C33.4214 36.6281 32.1958 36.1573 30.9253 36.1586H28.8762C28.6044 36.1586 28.3438 36.0506 28.1517 35.8585C27.9595 35.6663 27.8516 35.4057 27.8516 35.134C27.8516 34.8622 27.9595 34.6016 28.1517 34.4095C28.3438 34.2173 28.6044 34.1094 28.8762 34.1094Z" fill="white"></path>
</g>
<defs>
<clipPath id="clip0_1266_1320">
<rect width="49.1803" height="49.1803" fill="white" transform="translate(5.41016 5.40985)"></rect>
</clipPath>
</defs>
</svg>