<svg xmlns="http://www.w3.org/2000/svg" viewBox="0 0 60 60" fill="none"><g clip-path="url(#kyc)"><path fill="#BBDEFB" d="M48.665 6.9H11.334a4.435 4.435 0 0 0-4.436 4.434v37.332a4.435 4.435 0 0 0 4.436 4.435h37.33a4.435 4.435 0 0 0 4.436-4.435V11.334a4.435 4.435 0 0 0-4.435-4.436Z"></path><path fill="#2196F3" d="M53.1 11.335v5.544H6.898v-5.545A4.435 4.435 0 0 1 11.334 6.9h37.33a4.435 4.435 0 0 1 4.436 4.436Z"></path><path fill="#fff" d="M12.074 13.182a1.109 1.109 0 1 0 0-2.217 1.109 1.109 0 0 0 0 2.217ZM23.902 13.182a1.109 1.109 0 1 0 0-2.217 1.109 1.109 0 0 0 0 2.217ZM17.988 13.182a1.109 1.109 0 1 0 0-2.217 1.109 1.109 0 0 0 0 2.217ZM47.556 10.965h-5.914a1.109 1.109 0 0 0 0 2.217h5.914a1.109 1.109 0 0 0 0-2.217Z"></path><path fill="#FFC107" d="m34.035 43.507 3.92-3.92 6.402 6.402a2.772 2.772 0 0 1-3.92 3.92l-6.402-6.402Z"></path><path fill="#FFC107" d="M28.152 46.633c7.349 0 13.306-5.958 13.306-13.306 0-7.35-5.957-13.307-13.306-13.307-7.349 0-13.306 5.958-13.306 13.307 0 7.348 5.957 13.306 13.306 13.306Z"></path><path fill="#BBDEFB" d="M28.15 42.567a9.24 9.24 0 1 0 0-18.48 9.24 9.24 0 0 0 0 18.48Z"></path><path fill="#2196F3" d="M28.15 33.327a2.957 2.957 0 1 0 0-5.914 2.957 2.957 0 0 0 0 5.914ZM28.151 42.567a9.207 9.207 0 0 0 6.503-2.679 6.865 6.865 0 0 0-13.006 0 9.208 9.208 0 0 0 6.503 2.679Z"></path><path fill="#fff" d="M49.959 19.466h-3.976a1.653 1.653 0 0 0-1.176.487l-2.633 2.632a.555.555 0 1 0 .785.784l2.631-2.632a.55.55 0 0 1 .393-.162h3.976a.554.554 0 1 0 0-1.11Z"></path><path fill="#fff" d="M49.96 22.793h-3.328a.554.554 0 0 1 0-1.11h3.327a.555.555 0 0 1 0 1.11ZM14.017 50.514H10.04a.554.554 0 0 1 0-1.11h3.976a.552.552 0 0 0 .392-.162l2.632-2.632a.554.554 0 1 1 .784.784l-2.632 2.632a1.651 1.651 0 0 1-1.176.487Z"></path><path fill="#fff" d="M13.367 48.296h-3.326a.554.554 0 0 1 0-1.109h3.326a.555.555 0 0 1 0 1.109Z"></path></g><defs><clipPath id="kyc"><path fill="#fff" d="M6.344 6.345h47.31v47.31H6.344z"></path></clipPath></defs></svg>