<svg xmlns="http://www.w3.org/2000/svg" viewBox="0 0 60 60" fill="none"><g clip-path="url(#legal_opinion"><path fill="#C8E1FF" d="M12.39 6.266 6.267 12.39v41.343h36.75V6.266H12.39Z"></path><path fill="#AACCFA" d="M6.266 12.39h6.125V6.267L6.266 12.39Z"></path><path fill="#5F6473" d="M38.57 33.376H11.072a.766.766 0 0 1 0-1.531H38.57a.766.766 0 0 1 0 1.53ZM26.296 38.427H11.072a.766.766 0 1 1 0-1.53h15.224a.766.766 0 0 1 0 1.53ZM23.701 43.479H11.072a.766.766 0 1 1 0-1.532h12.63a.766.766 0 0 1 0 1.532ZM25.323 48.703h-14.25a.766.766 0 1 1 0-1.531h14.25a.766.766 0 0 1 0 1.53Z"></path><path fill="#4FCF63" d="M24.821 27.559a7.577 7.577 0 1 0 0-15.154 7.577 7.577 0 0 0 0 15.154Z"></path><path fill="#fff" d="M24.013 24.122a.762.762 0 0 1-.44-.14l-2.405-1.694a.766.766 0 0 1 .883-1.252l1.836 1.295 3.881-4.502a.766.766 0 0 1 1.16 1l-4.335 5.028a.765.765 0 0 1-.58.265Z"></path><path fill="#FFD36C" d="M41.392 40.866c-4.549-2.626-8.882-3.637-9.679-2.257l-2.885 4.997 16.453 9.546 2.906-5.032c.796-1.38-2.246-4.627-6.795-7.254Z"></path><path fill="#E64B73" d="M51.297 23.763a4.876 4.876 0 0 0-7.304 3.894s-.148 3.71-1.988 6.896c-1.702 2.949-4.824 4.306-4.824 4.306l-.167.243c1.326.487 2.78 1.173 4.234 2.013 1.466.846 2.803 1.773 3.906 2.7l.127-.28s-.385-3.382 1.317-6.33c1.84-3.187 4.979-5.17 4.979-5.17a4.876 4.876 0 0 0-.28-8.272Z"></path><path fill="#FA5F87" d="M41.392 40.866c-4.549-2.626-8.882-3.637-9.679-2.257l-2.885 4.997.248.144c.227-.392.866-.474 1.362-.474 1.86 0 4.896 1.086 7.926 2.836 2.176 1.256 4.071 2.692 5.336 4.042 1.154 1.233 1.66 2.287 1.353 2.82l-.022.033.25.145 2.906-5.032c.796-1.38-2.246-4.627-6.795-7.254Z"></path><path fill="#5F6473" d="M45.298 53.117c.797-1.38-2.245-4.627-6.794-7.253-4.549-2.627-8.882-3.637-9.679-2.258-.796 1.38 2.245 4.628 6.794 7.254 4.55 2.627 8.883 3.637 9.68 2.258Z"></path></g><defs><clipPath id="legal_opinion"><path fill="#fff" d="M5.5 5.5h49v49h-49z"></path></clipPath></defs></svg>