<svg width="60" height="60" viewBox="0 0 60 60" fill="none" xmlns="http://www.w3.org/2000/svg">
<path d="M10.4061 37C10.2728 37 10.1594 36.9533 10.0661 36.86C9.98609 36.7667 9.94609 36.66 9.94609 36.54C9.94609 36.5 9.95276 36.4533 9.96609 36.4C9.97943 36.3467 10.0061 36.2933 10.0461 36.24L13.3261 31.64L10.3661 27.36C10.3394 27.32 10.3128 27.2733 10.2861 27.22C10.2728 27.1667 10.2661 27.1133 10.2661 27.06C10.2661 26.94 10.3128 26.8333 10.4061 26.74C10.4994 26.6467 10.6061 26.6 10.7261 26.6H13.7861C13.9728 26.6 14.1128 26.6467 14.2061 26.74C14.2994 26.82 14.3661 26.8933 14.4061 26.96L15.9061 29.14L17.4061 26.96C17.4594 26.8933 17.5261 26.82 17.6061 26.74C17.6994 26.6467 17.8394 26.6 18.0261 26.6H20.9461C21.0661 26.6 21.1728 26.6467 21.2661 26.74C21.3594 26.8333 21.4061 26.9333 21.4061 27.04C21.4061 27.1067 21.3994 27.1667 21.3861 27.22C21.3728 27.2733 21.3461 27.32 21.3061 27.36L18.2861 31.64L21.6261 36.24C21.6661 36.2933 21.6928 36.3467 21.7061 36.4C21.7194 36.4533 21.7261 36.5 21.7261 36.54C21.7261 36.66 21.6794 36.7667 21.5861 36.86C21.4928 36.9533 21.3861 37 21.2661 37H18.0661C17.8928 37 17.7661 36.96 17.6861 36.88C17.6061 36.8 17.5394 36.7267 17.4861 36.66L15.8261 34.34L14.1061 36.66C14.0661 36.7267 13.9994 36.8 13.9061 36.88C13.8261 36.96 13.6994 37 13.5261 37H10.4061ZM23.2136 37C23.0669 37 22.9403 36.9533 22.8336 36.86C22.7403 36.7533 22.6936 36.6267 22.6936 36.48V34.74C22.6936 34.6467 22.7136 34.4933 22.7536 34.28C22.8069 34.0667 22.9536 33.8733 23.1936 33.7L24.3536 32.6C25.5803 31.68 26.6003 30.9067 27.4136 30.28C28.2269 29.6533 28.8336 29.1067 29.2336 28.64C29.6469 28.1733 29.8536 27.74 29.8536 27.34C29.8536 27.02 29.7736 26.7467 29.6136 26.52C29.4669 26.28 29.1669 26.16 28.7136 26.16C28.3803 26.16 28.1136 26.2333 27.9136 26.38C27.7136 26.5267 27.5603 26.7067 27.4536 26.92C27.3603 27.1333 27.2869 27.3333 27.2336 27.52C27.1803 27.7067 27.0869 27.8333 26.9536 27.9C26.8203 27.9533 26.6669 27.98 26.4936 27.98H23.3736C23.2403 27.98 23.1336 27.94 23.0536 27.86C22.9736 27.78 22.9336 27.68 22.9336 27.56C22.9469 26.8533 23.0936 26.2133 23.3736 25.64C23.6669 25.0533 24.0669 24.54 24.5736 24.1C25.0803 23.66 25.6803 23.3267 26.3736 23.1C27.0803 22.86 27.8536 22.74 28.6936 22.74C29.8669 22.74 30.8736 22.92 31.7136 23.28C32.5536 23.64 33.2003 24.1467 33.6536 24.8C34.1069 25.4533 34.3336 26.2333 34.3336 27.14C34.3336 27.8333 34.1736 28.48 33.8536 29.08C33.5336 29.6667 33.0803 30.2333 32.4936 30.78C31.9069 31.3267 31.2136 31.8867 30.4136 32.46L29.4336 33.42H34.1136C34.2603 33.42 34.3803 33.4733 34.4736 33.58C34.5803 33.6867 34.6336 33.8133 34.6336 33.96V36.48C34.6336 36.6267 34.5803 36.7533 34.4736 36.86C34.3803 36.9533 34.2603 37 34.1136 37H23.2136ZM42.4488 37.2C41.4621 37.2 40.6021 37.0667 39.8688 36.8C39.1354 36.5333 38.5221 36.1667 38.0288 35.7C37.5488 35.2333 37.1754 34.6867 36.9088 34.06C36.6421 33.42 36.4888 32.7333 36.4488 32C36.4221 31.64 36.4021 31.2133 36.3888 30.72C36.3888 30.2267 36.3888 29.7333 36.3888 29.24C36.4021 28.7333 36.4221 28.2933 36.4488 27.92C36.4888 27.1867 36.6421 26.5133 36.9088 25.9C37.1888 25.2733 37.5821 24.7333 38.0888 24.28C38.5954 23.8133 39.2088 23.4533 39.9288 23.2C40.6488 22.9333 41.4888 22.8 42.4488 22.8C43.3954 22.8 44.2288 22.9333 44.9488 23.2C45.6821 23.4533 46.2954 23.8133 46.7888 24.28C47.2954 24.7333 47.6821 25.2733 47.9488 25.9C48.2288 26.5133 48.3954 27.1867 48.4488 27.92C48.4754 28.2933 48.4888 28.7333 48.4888 29.24C48.4888 29.7333 48.4888 30.2267 48.4888 30.72C48.4888 31.2133 48.4754 31.64 48.4488 32C48.3954 32.7333 48.2354 33.42 47.9688 34.06C47.7154 34.6867 47.3421 35.2333 46.8488 35.7C46.3554 36.1667 45.7421 36.5333 45.0088 36.8C44.2754 37.0667 43.4221 37.2 42.4488 37.2ZM42.4488 33.78C42.9821 33.78 43.3688 33.6067 43.6088 33.26C43.8488 32.9133 43.9754 32.46 43.9888 31.9C44.0154 31.5133 44.0288 31.0933 44.0288 30.64C44.0288 30.1867 44.0288 29.7333 44.0288 29.28C44.0288 28.8133 44.0154 28.4 43.9888 28.04C43.9754 27.5067 43.8488 27.0667 43.6088 26.72C43.3821 26.36 42.9954 26.1733 42.4488 26.16C41.9021 26.1733 41.5154 26.36 41.2888 26.72C41.0621 27.0667 40.9354 27.5067 40.9088 28.04C40.8954 28.4 40.8821 28.8133 40.8688 29.28C40.8688 29.7333 40.8688 30.1867 40.8688 30.64C40.8821 31.0933 40.8954 31.5133 40.9088 31.9C40.9354 32.46 41.0621 32.9133 41.2888 33.26C41.5288 33.6067 41.9154 33.78 42.4488 33.78Z" fill="#FB9927"></path>
</svg>