<svg width="60" height="60" viewBox="0 0 60 60" fill="none" xmlns="http://www.w3.org/2000/svg">
<path d="M10.3377 37C10.2044 37 10.0911 36.9533 9.99773 36.86C9.91773 36.7667 9.87773 36.66 9.87773 36.54C9.87773 36.5 9.8844 36.4533 9.89773 36.4C9.91107 36.3467 9.93773 36.2933 9.97773 36.24L13.2577 31.64L10.2977 27.36C10.2711 27.32 10.2444 27.2733 10.2177 27.22C10.2044 27.1667 10.1977 27.1133 10.1977 27.06C10.1977 26.94 10.2444 26.8333 10.3377 26.74C10.4311 26.6467 10.5377 26.6 10.6577 26.6H13.7177C13.9044 26.6 14.0444 26.6467 14.1377 26.74C14.2311 26.82 14.2977 26.8933 14.3377 26.96L15.8377 29.14L17.3377 26.96C17.3911 26.8933 17.4577 26.82 17.5377 26.74C17.6311 26.6467 17.7711 26.6 17.9577 26.6H20.8777C20.9977 26.6 21.1044 26.6467 21.1977 26.74C21.2911 26.8333 21.3377 26.9333 21.3377 27.04C21.3377 27.1067 21.3311 27.1667 21.3177 27.22C21.3044 27.2733 21.2777 27.32 21.2377 27.36L18.2177 31.64L21.5577 36.24C21.5977 36.2933 21.6244 36.3467 21.6377 36.4C21.6511 36.4533 21.6577 36.5 21.6577 36.54C21.6577 36.66 21.6111 36.7667 21.5177 36.86C21.4244 36.9533 21.3177 37 21.1977 37H17.9977C17.8244 37 17.6977 36.96 17.6177 36.88C17.5377 36.8 17.4711 36.7267 17.4177 36.66L15.7577 34.34L14.0377 36.66C13.9977 36.7267 13.9311 36.8 13.8377 36.88C13.7577 36.96 13.6311 37 13.4577 37H10.3377ZM28.5852 37.2C27.4786 37.2 26.5319 37.0667 25.7452 36.8C24.9719 36.5333 24.3386 36.2 23.8452 35.8C23.3652 35.3867 23.0119 34.9467 22.7852 34.48C22.5586 34.0133 22.4386 33.58 22.4252 33.18C22.4252 33.06 22.4652 32.96 22.5452 32.88C22.6252 32.7867 22.7252 32.74 22.8452 32.74H26.1652C26.3386 32.74 26.4719 32.7733 26.5652 32.84C26.6586 32.8933 26.7452 32.98 26.8252 33.1C26.9186 33.26 27.0452 33.4 27.2052 33.52C27.3652 33.6267 27.5586 33.7067 27.7852 33.76C28.0119 33.8 28.2852 33.82 28.6052 33.82C29.1786 33.82 29.6119 33.6933 29.9052 33.44C30.1986 33.1733 30.3452 32.8267 30.3452 32.4C30.3452 31.9733 30.1986 31.6667 29.9052 31.48C29.6119 31.28 29.1919 31.18 28.6452 31.18H26.2852C26.1386 31.18 26.0119 31.1267 25.9052 31.02C25.8119 30.9133 25.7652 30.7933 25.7652 30.66V29.28C25.7652 29.0933 25.7986 28.94 25.8652 28.82C25.9452 28.6867 26.0319 28.5933 26.1252 28.54L29.1452 26.4H23.7452C23.5986 26.4 23.4719 26.3467 23.3652 26.24C23.2719 26.1333 23.2252 26.0133 23.2252 25.88V23.52C23.2252 23.3733 23.2719 23.2533 23.3652 23.16C23.4719 23.0533 23.5986 23 23.7452 23H33.4652C33.6119 23 33.7319 23.0533 33.8252 23.16C33.9319 23.2533 33.9852 23.3733 33.9852 23.52V25.64C33.9852 25.8133 33.9519 25.96 33.8852 26.08C33.8186 26.2 33.7386 26.2933 33.6452 26.36L30.9452 28.56L31.0252 28.6C31.7319 28.7333 32.3719 28.96 32.9452 29.28C33.5186 29.5867 33.9719 30.02 34.3052 30.58C34.6386 31.14 34.8052 31.8467 34.8052 32.7C34.8052 33.6067 34.5319 34.4 33.9852 35.08C33.4519 35.7467 32.7186 36.2667 31.7852 36.64C30.8652 37.0133 29.7986 37.2 28.5852 37.2ZM42.5171 37.2C41.5304 37.2 40.6704 37.0667 39.9371 36.8C39.2038 36.5333 38.5904 36.1667 38.0971 35.7C37.6171 35.2333 37.2438 34.6867 36.9771 34.06C36.7104 33.42 36.5571 32.7333 36.5171 32C36.4904 31.64 36.4704 31.2133 36.4571 30.72C36.4571 30.2267 36.4571 29.7333 36.4571 29.24C36.4704 28.7333 36.4904 28.2933 36.5171 27.92C36.5571 27.1867 36.7104 26.5133 36.9771 25.9C37.2571 25.2733 37.6504 24.7333 38.1571 24.28C38.6638 23.8133 39.2771 23.4533 39.9971 23.2C40.7171 22.9333 41.5571 22.8 42.5171 22.8C43.4638 22.8 44.2971 22.9333 45.0171 23.2C45.7504 23.4533 46.3638 23.8133 46.8571 24.28C47.3638 24.7333 47.7504 25.2733 48.0171 25.9C48.2971 26.5133 48.4638 27.1867 48.5171 27.92C48.5438 28.2933 48.5571 28.7333 48.5571 29.24C48.5571 29.7333 48.5571 30.2267 48.5571 30.72C48.5571 31.2133 48.5438 31.64 48.5171 32C48.4638 32.7333 48.3038 33.42 48.0371 34.06C47.7838 34.6867 47.4104 35.2333 46.9171 35.7C46.4238 36.1667 45.8104 36.5333 45.0771 36.8C44.3438 37.0667 43.4904 37.2 42.5171 37.2ZM42.5171 33.78C43.0504 33.78 43.4371 33.6067 43.6771 33.26C43.9171 32.9133 44.0438 32.46 44.0571 31.9C44.0838 31.5133 44.0971 31.0933 44.0971 30.64C44.0971 30.1867 44.0971 29.7333 44.0971 29.28C44.0971 28.8133 44.0838 28.4 44.0571 28.04C44.0438 27.5067 43.9171 27.0667 43.6771 26.72C43.4504 26.36 43.0638 26.1733 42.5171 26.16C41.9704 26.1733 41.5838 26.36 41.3571 26.72C41.1304 27.0667 41.0038 27.5067 40.9771 28.04C40.9638 28.4 40.9504 28.8133 40.9371 29.28C40.9371 29.7333 40.9371 30.1867 40.9371 30.64C40.9504 31.0933 40.9638 31.5133 40.9771 31.9C41.0038 32.46 41.1304 32.9133 41.3571 33.26C41.5971 33.6067 41.9838 33.78 42.5171 33.78Z" fill="#FB9927"></path>
</svg>