<svg xmlns="http://www.w3.org/2000/svg" xml:space="preserve" width="60" height="60" viewBox="0 0 60 60"><path fill="#fb9927" d="M5.4 37c-.1 0-.2 0-.3-.1-.1-.1-.1-.2-.1-.3v-.1c0-.1 0-.1.1-.2l3.3-4.6-3-4.3-.1-.1v-.2c0-.1 0-.2.1-.3.1-.1.2-.1.3-.1h3.1c.2 0 .3 0 .4.1l.2.2 1.5 2.2 1.5-2.2.2-.2c.1-.1.2-.1.4-.1h2.9c.1 0 .2 0 .3.1.1.1.1.2.1.3v.2c0 .1 0 .1-.1.1l-3 4.3 3.3 4.6c0 .1.1.1.1.2v.1c0 .1 0 .2-.1.3 0 .1-.1.1-.2.1h-3.2c-.2 0-.3 0-.4-.1-.1-.1-.1-.2-.2-.2l-1.7-2.3-1.7 2.3c0 .1-.1.1-.2.2s-.2.1-.4.1H5.4zm17.1 0c-.1 0-.3 0-.4-.1-.1-.1-.1-.3-.1-.4v-8.8l-2.5 1.9c-.1.1-.3.1-.4.1-.1 0-.2-.1-.3-.3l-1.5-1.9c-.1-.1-.1-.3-.1-.4 0-.1.1-.3.2-.3l4.7-3.7c.1-.1.1-.1.2-.1H25.6c.1 0 .3.1.4.2.1.1.2.2.2.4v13c0 .1-.1.3-.2.4h-3.5zm12 .2c-1 0-1.8-.1-2.6-.4-.7-.3-1.3-.6-1.8-1.1-.5-.5-.9-1-1.1-1.6-.3-.6-.4-1.3-.5-2.1v-4.1c.1-.7.2-1.4.5-2 .3-.6.7-1.2 1.2-1.6.5-.5 1.1-.8 1.8-1.1.7-.3 1.6-.4 2.5-.4.9 0 1.8.1 2.5.4.7.3 1.3.6 1.8 1.1.5.5.9 1 1.2 1.6.3.6.4 1.3.5 2V32c-.1.7-.2 1.4-.5 2.1-.3.6-.6 1.2-1.1 1.6-.5.5-1.1.8-1.8 1.1-.8.3-1.7.4-2.6.4zm0-3.4c.5 0 .9-.2 1.1-.5.2-.3.4-.8.4-1.4V28c0-.5-.2-1-.4-1.3-.2-.4-.6-.5-1.2-.6-.5 0-.9.2-1.2.6-.2.3-.4.8-.4 1.3V31.9c0 .6.2 1 .4 1.4.3.3.7.5 1.3.5zm13.9 3.4c-1 0-1.8-.1-2.6-.4-.7-.3-1.3-.6-1.8-1.1-.5-.5-.9-1-1.1-1.6-.3-.6-.4-1.3-.5-2.1v-4.1c.1-.7.2-1.4.5-2 .3-.6.7-1.2 1.2-1.6.5-.5 1.1-.8 1.8-1.1.7-.3 1.6-.4 2.5-.4.9 0 1.8.1 2.5.4.7.3 1.3.6 1.8 1.1.5.5.9 1 1.2 1.6.3.6.4 1.3.5 2V32c-.1.7-.2 1.4-.5 2.1-.3.6-.6 1.2-1.1 1.6-.5.5-1.1.8-1.8 1.1-.7.3-1.6.4-2.6.4zm0-3.4c.5 0 .9-.2 1.1-.5.2-.3.4-.8.4-1.4V28c0-.5-.2-1-.4-1.3-.2-.4-.6-.5-1.2-.6-.5 0-.9.2-1.2.6-.2.3-.4.8-.4 1.3V31.9c0 .6.2 1 .4 1.4.4.3.8.5 1.3.5z"></path></svg>