<svg width="60" height="60" viewBox="0 0 60 60" fill="none" xmlns="http://www.w3.org/2000/svg">
<path d="M11.4998 37C11.3665 37 11.2532 36.9533 11.1598 36.86C11.0798 36.7667 11.0398 36.66 11.0398 36.54C11.0398 36.5 11.0465 36.4533 11.0598 36.4C11.0732 36.3467 11.0998 36.2933 11.1398 36.24L14.4198 31.64L11.4598 27.36C11.4332 27.32 11.4065 27.2733 11.3798 27.22C11.3665 27.1667 11.3598 27.1133 11.3598 27.06C11.3598 26.94 11.4065 26.8333 11.4998 26.74C11.5932 26.6467 11.6998 26.6 11.8198 26.6H14.8798C15.0665 26.6 15.2065 26.6467 15.2998 26.74C15.3932 26.82 15.4598 26.8933 15.4998 26.96L16.9998 29.14L18.4998 26.96C18.5532 26.8933 18.6198 26.82 18.6998 26.74C18.7932 26.6467 18.9332 26.6 19.1198 26.6H22.0398C22.1598 26.6 22.2665 26.6467 22.3598 26.74C22.4532 26.8333 22.4998 26.9333 22.4998 27.04C22.4998 27.1067 22.4932 27.1667 22.4798 27.22C22.4665 27.2733 22.4398 27.32 22.3998 27.36L19.3798 31.64L22.7198 36.24C22.7598 36.2933 22.7865 36.3467 22.7998 36.4C22.8132 36.4533 22.8198 36.5 22.8198 36.54C22.8198 36.66 22.7732 36.7667 22.6798 36.86C22.5865 36.9533 22.4798 37 22.3598 37H19.1598C18.9865 37 18.8598 36.96 18.7798 36.88C18.6998 36.8 18.6332 36.7267 18.5798 36.66L16.9198 34.34L15.1998 36.66C15.1598 36.7267 15.0932 36.8 14.9998 36.88C14.9198 36.96 14.7932 37 14.6198 37H11.4998ZM25.7873 37C25.6673 37 25.5607 36.96 25.4673 36.88C25.3873 36.7867 25.3473 36.68 25.3473 36.56C25.3473 36.4933 25.3607 36.4333 25.3873 36.38L29.8673 26.56H24.1073C23.9607 26.56 23.834 26.5133 23.7273 26.42C23.634 26.3133 23.5873 26.1867 23.5873 26.04V23.52C23.5873 23.3733 23.634 23.2533 23.7273 23.16C23.834 23.0533 23.9607 23 24.1073 23H33.9673C34.1273 23 34.254 23.0533 34.3473 23.16C34.4407 23.2533 34.4873 23.3733 34.4873 23.52V25.72C34.4873 25.9333 34.4607 26.12 34.4073 26.28C34.3673 26.4267 34.314 26.5667 34.2473 26.7L29.7673 36.54C29.714 36.6067 29.6273 36.7 29.5073 36.82C29.4007 36.94 29.2273 37 28.9873 37H25.7873ZM41.64 37.24C40.3067 37.24 39.1933 37.04 38.3 36.64C37.4067 36.2267 36.7333 35.6933 36.28 35.04C35.8267 34.3733 35.5867 33.66 35.56 32.9C35.56 32.78 35.6 32.68 35.68 32.6C35.7733 32.5067 35.88 32.46 36 32.46H39.34C39.54 32.46 39.6933 32.5 39.8 32.58C39.9067 32.66 39.98 32.74 40.02 32.82C40.1533 33.0467 40.2933 33.24 40.44 33.4C40.5867 33.5467 40.76 33.66 40.96 33.74C41.16 33.8067 41.3933 33.84 41.66 33.84C41.9533 33.84 42.2267 33.78 42.48 33.66C42.7333 33.5267 42.9333 33.34 43.08 33.1C43.24 32.8467 43.32 32.54 43.32 32.18C43.32 31.8733 43.2467 31.6067 43.1 31.38C42.9667 31.14 42.7733 30.9467 42.52 30.8C42.28 30.6533 41.9933 30.58 41.66 30.58C41.3933 30.58 41.1733 30.6133 41 30.68C40.84 30.7333 40.7067 30.8 40.6 30.88C40.4933 30.96 40.3933 31.0333 40.3 31.1C40.22 31.1533 40.1267 31.18 40.02 31.18H36.72C36.6 31.18 36.4933 31.14 36.4 31.06C36.32 30.9667 36.28 30.86 36.28 30.74L37.04 23.64C37.0667 23.4267 37.1467 23.2667 37.28 23.16C37.4267 23.0533 37.5867 23 37.76 23H46.24C46.3867 23 46.5067 23.0533 46.6 23.16C46.7067 23.2533 46.76 23.3733 46.76 23.52V25.88C46.76 26.0133 46.7067 26.1333 46.6 26.24C46.5067 26.3467 46.3867 26.4 46.24 26.4H40.42L40.22 28.4C40.5533 28.1733 40.9067 28.0067 41.28 27.9C41.6667 27.78 42.2 27.72 42.88 27.72C43.5067 27.72 44.1067 27.8333 44.68 28.06C45.2667 28.2733 45.7867 28.5867 46.24 29C46.7067 29.4 47.0733 29.88 47.34 30.44C47.6067 31 47.74 31.62 47.74 32.3C47.74 33.2067 47.5067 34.0333 47.04 34.78C46.5733 35.5267 45.8867 36.1267 44.98 36.58C44.0733 37.02 42.96 37.24 41.64 37.24Z" fill="#FB9927"></path>
</svg>