<svg width="60" height="60" viewBox="0 0 60 60" fill="none" xmlns="http://www.w3.org/2000/svg">
<path d="M10.494 37C10.3607 37 10.2473 36.9533 10.154 36.86C10.074 36.7667 10.034 36.66 10.034 36.54C10.034 36.5 10.0407 36.4533 10.054 36.4C10.0673 36.3467 10.094 36.2933 10.134 36.24L13.414 31.64L10.454 27.36C10.4273 27.32 10.4007 27.2733 10.374 27.22C10.3607 27.1667 10.354 27.1133 10.354 27.06C10.354 26.94 10.4007 26.8333 10.494 26.74C10.5873 26.6467 10.694 26.6 10.814 26.6H13.874C14.0607 26.6 14.2007 26.6467 14.294 26.74C14.3873 26.82 14.454 26.8933 14.494 26.96L15.994 29.14L17.494 26.96C17.5473 26.8933 17.614 26.82 17.694 26.74C17.7873 26.6467 17.9273 26.6 18.114 26.6H21.034C21.154 26.6 21.2607 26.6467 21.354 26.74C21.4473 26.8333 21.494 26.9333 21.494 27.04C21.494 27.1067 21.4873 27.1667 21.474 27.22C21.4607 27.2733 21.434 27.32 21.394 27.36L18.374 31.64L21.714 36.24C21.754 36.2933 21.7807 36.3467 21.794 36.4C21.8073 36.4533 21.814 36.5 21.814 36.54C21.814 36.66 21.7673 36.7667 21.674 36.86C21.5807 36.9533 21.474 37 21.354 37H18.154C17.9807 37 17.854 36.96 17.774 36.88C17.694 36.8 17.6273 36.7267 17.574 36.66L15.914 34.34L14.194 36.66C14.154 36.7267 14.0873 36.8 13.994 36.88C13.914 36.96 13.7873 37 13.614 37H10.494ZM28.6615 37.24C27.3282 37.24 26.2148 37.04 25.3215 36.64C24.4282 36.2267 23.7548 35.6933 23.3015 35.04C22.8482 34.3733 22.6082 33.66 22.5815 32.9C22.5815 32.78 22.6215 32.68 22.7015 32.6C22.7948 32.5067 22.9015 32.46 23.0215 32.46H26.3615C26.5615 32.46 26.7148 32.5 26.8215 32.58C26.9282 32.66 27.0015 32.74 27.0415 32.82C27.1748 33.0467 27.3148 33.24 27.4615 33.4C27.6082 33.5467 27.7815 33.66 27.9815 33.74C28.1815 33.8067 28.4148 33.84 28.6815 33.84C28.9748 33.84 29.2482 33.78 29.5015 33.66C29.7548 33.5267 29.9548 33.34 30.1015 33.1C30.2615 32.8467 30.3415 32.54 30.3415 32.18C30.3415 31.8733 30.2682 31.6067 30.1215 31.38C29.9882 31.14 29.7948 30.9467 29.5415 30.8C29.3015 30.6533 29.0148 30.58 28.6815 30.58C28.4148 30.58 28.1948 30.6133 28.0215 30.68C27.8615 30.7333 27.7282 30.8 27.6215 30.88C27.5148 30.96 27.4148 31.0333 27.3215 31.1C27.2415 31.1533 27.1482 31.18 27.0415 31.18H23.7415C23.6215 31.18 23.5148 31.14 23.4215 31.06C23.3415 30.9667 23.3015 30.86 23.3015 30.74L24.0615 23.64C24.0882 23.4267 24.1682 23.2667 24.3015 23.16C24.4482 23.0533 24.6082 23 24.7815 23H33.2615C33.4082 23 33.5282 23.0533 33.6215 23.16C33.7282 23.2533 33.7815 23.3733 33.7815 23.52V25.88C33.7815 26.0133 33.7282 26.1333 33.6215 26.24C33.5282 26.3467 33.4082 26.4 33.2615 26.4H27.4415L27.2415 28.4C27.5748 28.1733 27.9282 28.0067 28.3015 27.9C28.6882 27.78 29.2215 27.72 29.9015 27.72C30.5282 27.72 31.1282 27.8333 31.7015 28.06C32.2882 28.2733 32.8082 28.5867 33.2615 29C33.7282 29.4 34.0948 29.88 34.3615 30.44C34.6282 31 34.7615 31.62 34.7615 32.3C34.7615 33.2067 34.5282 34.0333 34.0615 34.78C33.5948 35.5267 32.9082 36.1267 32.0015 36.58C31.0948 37.02 29.9815 37.24 28.6615 37.24ZM42.3609 37.2C41.3742 37.2 40.5142 37.0667 39.7809 36.8C39.0475 36.5333 38.4342 36.1667 37.9409 35.7C37.4609 35.2333 37.0875 34.6867 36.8209 34.06C36.5542 33.42 36.4009 32.7333 36.3609 32C36.3342 31.64 36.3142 31.2133 36.3009 30.72C36.3009 30.2267 36.3009 29.7333 36.3009 29.24C36.3142 28.7333 36.3342 28.2933 36.3609 27.92C36.4009 27.1867 36.5542 26.5133 36.8209 25.9C37.1009 25.2733 37.4942 24.7333 38.0009 24.28C38.5075 23.8133 39.1209 23.4533 39.8409 23.2C40.5609 22.9333 41.4009 22.8 42.3609 22.8C43.3075 22.8 44.1409 22.9333 44.8609 23.2C45.5942 23.4533 46.2075 23.8133 46.7009 24.28C47.2075 24.7333 47.5942 25.2733 47.8609 25.9C48.1409 26.5133 48.3075 27.1867 48.3609 27.92C48.3875 28.2933 48.4009 28.7333 48.4009 29.24C48.4009 29.7333 48.4009 30.2267 48.4009 30.72C48.4009 31.2133 48.3875 31.64 48.3609 32C48.3075 32.7333 48.1475 33.42 47.8809 34.06C47.6275 34.6867 47.2542 35.2333 46.7609 35.7C46.2675 36.1667 45.6542 36.5333 44.9209 36.8C44.1875 37.0667 43.3342 37.2 42.3609 37.2ZM42.3609 33.78C42.8942 33.78 43.2809 33.6067 43.5209 33.26C43.7609 32.9133 43.8875 32.46 43.9009 31.9C43.9275 31.5133 43.9409 31.0933 43.9409 30.64C43.9409 30.1867 43.9409 29.7333 43.9409 29.28C43.9409 28.8133 43.9275 28.4 43.9009 28.04C43.8875 27.5067 43.7609 27.0667 43.5209 26.72C43.2942 26.36 42.9075 26.1733 42.3609 26.16C41.8142 26.1733 41.4275 26.36 41.2009 26.72C40.9742 27.0667 40.8475 27.5067 40.8209 28.04C40.8075 28.4 40.7942 28.8133 40.7809 29.28C40.7809 29.7333 40.7809 30.1867 40.7809 30.64C40.7942 31.0933 40.8075 31.5133 40.8209 31.9C40.8475 32.46 40.9742 32.9133 41.2009 33.26C41.4409 33.6067 41.8275 33.78 42.3609 33.78Z" fill="#FB9927"></path>
</svg>