<svg width="60" height="60" viewBox="0 0 60 60" fill="none" xmlns="http://www.w3.org/2000/svg">
<path d="M12.4002 37C12.2669 37 12.1536 36.9533 12.0602 36.86C11.9802 36.7667 11.9402 36.66 11.9402 36.54C11.9402 36.5 11.9469 36.4533 11.9602 36.4C11.9736 36.3467 12.0002 36.2933 12.0402 36.24L15.3202 31.64L12.3602 27.36C12.3336 27.32 12.3069 27.2733 12.2802 27.22C12.2669 27.1667 12.2602 27.1133 12.2602 27.06C12.2602 26.94 12.3069 26.8333 12.4002 26.74C12.4936 26.6467 12.6002 26.6 12.7202 26.6H15.7802C15.9669 26.6 16.1069 26.6467 16.2002 26.74C16.2936 26.82 16.3602 26.8933 16.4002 26.96L17.9002 29.14L19.4002 26.96C19.4536 26.8933 19.5202 26.82 19.6002 26.74C19.6936 26.6467 19.8336 26.6 20.0202 26.6H22.9402C23.0602 26.6 23.1669 26.6467 23.2602 26.74C23.3536 26.8333 23.4002 26.9333 23.4002 27.04C23.4002 27.1067 23.3936 27.1667 23.3802 27.22C23.3669 27.2733 23.3402 27.32 23.3002 27.36L20.2802 31.64L23.6202 36.24C23.6602 36.2933 23.6869 36.3467 23.7002 36.4C23.7136 36.4533 23.7202 36.5 23.7202 36.54C23.7202 36.66 23.6736 36.7667 23.5802 36.86C23.4869 36.9533 23.3802 37 23.2602 37H20.0602C19.8869 37 19.7602 36.96 19.6802 36.88C19.6002 36.8 19.5336 36.7267 19.4802 36.66L17.8202 34.34L16.1002 36.66C16.0602 36.7267 15.9936 36.8 15.9002 36.88C15.8202 36.96 15.6936 37 15.5202 37H12.4002ZM29.4877 37C29.3411 37 29.2144 36.9533 29.1077 36.86C29.0144 36.7533 28.9677 36.6267 28.9677 36.48V27.68L26.4677 29.6C26.3344 29.68 26.2011 29.7067 26.0677 29.68C25.9477 29.6533 25.8344 29.5733 25.7277 29.44L24.2677 27.54C24.2011 27.42 24.1744 27.2867 24.1877 27.14C24.2144 26.9933 24.2944 26.88 24.4277 26.8L29.1477 23.14C29.2144 23.0867 29.2811 23.0533 29.3477 23.04C29.4144 23.0133 29.4944 23 29.5877 23H32.7277C32.8744 23 33.0011 23.0533 33.1077 23.16C33.2144 23.2533 33.2677 23.3733 33.2677 23.52V36.48C33.2677 36.6267 33.2144 36.7533 33.1077 36.86C33.0011 36.9533 32.8744 37 32.7277 37H29.4877ZM41.4546 37.2C40.4679 37.2 39.6079 37.0667 38.8746 36.8C38.1413 36.5333 37.5279 36.1667 37.0346 35.7C36.5546 35.2333 36.1813 34.6867 35.9146 34.06C35.6479 33.42 35.4946 32.7333 35.4546 32C35.4279 31.64 35.4079 31.2133 35.3946 30.72C35.3946 30.2267 35.3946 29.7333 35.3946 29.24C35.4079 28.7333 35.4279 28.2933 35.4546 27.92C35.4946 27.1867 35.6479 26.5133 35.9146 25.9C36.1946 25.2733 36.5879 24.7333 37.0946 24.28C37.6013 23.8133 38.2146 23.4533 38.9346 23.2C39.6546 22.9333 40.4946 22.8 41.4546 22.8C42.4013 22.8 43.2346 22.9333 43.9546 23.2C44.6879 23.4533 45.3013 23.8133 45.7946 24.28C46.3013 24.7333 46.6879 25.2733 46.9546 25.9C47.2346 26.5133 47.4013 27.1867 47.4546 27.92C47.4813 28.2933 47.4946 28.7333 47.4946 29.24C47.4946 29.7333 47.4946 30.2267 47.4946 30.72C47.4946 31.2133 47.4813 31.64 47.4546 32C47.4013 32.7333 47.2413 33.42 46.9746 34.06C46.7213 34.6867 46.3479 35.2333 45.8546 35.7C45.3613 36.1667 44.7479 36.5333 44.0146 36.8C43.2813 37.0667 42.4279 37.2 41.4546 37.2ZM41.4546 33.78C41.9879 33.78 42.3746 33.6067 42.6146 33.26C42.8546 32.9133 42.9813 32.46 42.9946 31.9C43.0213 31.5133 43.0346 31.0933 43.0346 30.64C43.0346 30.1867 43.0346 29.7333 43.0346 29.28C43.0346 28.8133 43.0213 28.4 42.9946 28.04C42.9813 27.5067 42.8546 27.0667 42.6146 26.72C42.3879 26.36 42.0013 26.1733 41.4546 26.16C40.9079 26.1733 40.5213 26.36 40.2946 26.72C40.0679 27.0667 39.9413 27.5067 39.9146 28.04C39.9013 28.4 39.8879 28.8133 39.8746 29.28C39.8746 29.7333 39.8746 30.1867 39.8746 30.64C39.8879 31.0933 39.9013 31.5133 39.9146 31.9C39.9413 32.46 40.0679 32.9133 40.2946 33.26C40.5346 33.6067 40.9213 33.78 41.4546 33.78Z" fill="#FB9927"></path>
</svg>