<svg viewBox="0 0 60 60" fill="none" xmlns="http://www.w3.org/2000/svg">
<path fill-rule="evenodd" clip-rule="evenodd" d="M15.5288 41.0395C13.6736 41.7844 11.4884 41.0684 10.4615 39.2896C9.43459 37.5108 9.90709 35.2605 11.4798 34.0263L15.5288 41.0395ZM13.7132 19.0645L11.6743 19.0065L8.63672 15.9688L11.635 16.0542L11.5496 13.0559L14.5873 16.0935L14.6453 18.1324L19.3793 22.8664C18.9886 23.0842 18.665 23.4079 18.4472 23.7986L13.7132 19.0645ZM20.5477 22.605C20.1351 22.605 19.7473 22.7109 19.4097 22.8969L21.0138 24.501C21.2712 24.7583 21.2712 25.1757 21.0138 25.4331C20.7565 25.6904 20.3391 25.6904 20.0817 25.4331L18.4776 23.829C18.2916 24.1665 18.1857 24.5543 18.1857 24.967C18.1857 26.2715 19.2432 27.329 20.5477 27.329C21.8521 27.329 22.9097 26.2715 22.9097 24.967C22.9097 23.6625 21.8523 22.605 20.5477 22.605ZM20.5477 16.7896C19.0066 16.7896 17.5651 17.2162 16.3346 17.9574L18.5118 20.1346C19.1378 19.8706 19.8257 19.7246 20.5477 19.7246C23.4431 19.7246 25.7903 22.0717 25.7903 24.9671C25.7903 27.8625 23.4431 30.2096 20.5477 30.2096C17.6524 30.2096 15.3052 27.8624 15.3052 24.9671C15.3052 24.2451 15.4512 23.5571 15.7153 22.9312L13.538 20.754C12.7968 21.9844 12.3702 23.4259 12.3702 24.9671C12.3702 29.4833 16.0314 33.1446 20.5477 33.1446C25.0641 33.1446 28.7253 29.4834 28.7253 24.9671C28.7253 20.4507 25.0641 16.7896 20.5477 16.7896ZM45.9732 19.5463C45.6589 19.7284 45.2565 19.6211 45.0746 19.3068C44.8926 18.9925 44.9998 18.5902 45.3141 18.4082L49.5604 15.9565C49.8747 15.7745 50.2771 15.8817 50.4591 16.196C50.6411 16.5103 50.5339 16.9127 50.2196 17.0947L45.9732 19.5463ZM38.8264 14.3189C38.8264 14.6815 38.5324 14.9755 38.1697 14.9755C37.8071 14.9755 37.5131 14.6815 37.5131 14.3189V9.75893C37.5131 9.39629 37.8071 9.10229 38.1697 9.10229C38.5324 9.10229 38.8264 9.39629 38.8264 9.75893V14.3189ZM43.0997 16.0661L45.5055 11.8992C45.6861 11.5849 45.5778 11.1837 45.2635 11.0031C44.9492 10.8225 44.548 10.9309 44.3674 11.2452L41.9616 15.4121C41.781 15.7263 41.8893 16.1276 42.2036 16.3081C42.5179 16.4887 42.9192 16.3803 43.0997 16.0661ZM45.614 28.3481C45.2997 28.1674 45.1913 27.7662 45.3719 27.452C45.5525 27.1377 45.9538 27.0293 46.268 27.21L50.217 29.4898C50.5313 29.6705 50.6396 30.0717 50.459 30.3859C50.2784 30.7002 49.8772 30.8086 49.563 30.6279L45.614 28.3481ZM46.8915 23.9514C46.5274 23.9514 46.2323 23.6563 46.2323 23.2922C46.2323 22.9282 46.5274 22.6331 46.8915 22.6331H51.7031C52.0672 22.6331 52.3623 22.9282 52.3623 23.2922C52.3623 23.6563 52.0672 23.9514 51.7031 23.9514H46.8915ZM43.8906 37.0218C42.9807 37.5471 41.8063 37.2325 41.281 36.3225L28.4408 14.0828C27.9154 13.1728 28.2302 11.9985 29.1401 11.4731C30.0501 10.9477 31.2244 11.2624 31.7498 12.1724L44.59 34.4122C45.1153 35.3221 44.8006 36.4964 43.8906 37.0218ZM12.3705 29.7956C11.7439 30.5357 11.6133 31.6209 12.1248 32.5069L17.1673 41.2406C17.8181 42.3678 19.2682 42.7564 20.3955 42.1057L25.6995 39.0435L22.887 34.1723C22.1387 34.362 21.355 34.463 20.5477 34.463C17.0669 34.4629 14.0237 32.589 12.3705 29.7956ZM26.9425 38.5659L24.1621 33.75C27.6134 32.328 30.0436 28.9312 30.0436 24.967C30.0436 21.969 28.6535 19.2958 26.4833 17.5555L27.9792 15.92L39.4591 35.8037L26.9425 38.5659ZM41.6523 26.6873C42.2784 25.8394 42.6486 24.791 42.6486 23.6561C42.6486 20.8345 40.3613 18.5471 37.5396 18.5471C37.3473 18.5471 37.1574 18.5577 36.9706 18.5785L41.6523 26.6873ZM21.8057 42.8137L25.9729 40.4078L31.8435 46.2784C32.2873 46.7222 32.2873 47.4461 31.8435 47.8898L30.1684 49.5649C29.7247 50.0087 29.0007 50.0087 28.557 49.5649L21.8057 42.8137Z" fill="url(#paint0_linear_1266_1648)"></path>
<defs>
<linearGradient id="paint0_linear_1266_1648" x1="9.61556" y1="37.8243" x2="49.6135" y2="14.7314" gradientUnits="userSpaceOnUse">
<stop stop-color="#3BFF7E"></stop>
<stop offset="1" stop-color="#26BAE3"></stop>
</linearGradient>
</defs>
</svg>