<svg xmlns="http://www.w3.org/2000/svg" viewBox="0 0 60 60" fill="none"><path fill="#D8EDFD" d="M46.035 19.949a6.505 6.505 0 1 0 0-13.011 6.505 6.505 0 0 0 0 13.01Z"></path><path fill="#fff" d="M51.232 9.537a6.433 6.433 0 0 0-3.913-1.312 6.505 6.505 0 0 0-6.502 6.506c0 1.468.489 2.826 1.316 3.914a6.484 6.484 0 0 1-2.606-5.203 6.508 6.508 0 0 1 6.507-6.502 6.487 6.487 0 0 1 5.198 2.597Z" opacity=".3"></path><path fill="#9ADBBE" d="M41.748 18.668c1.863.95 5.413 1.425 7.514.8.57-.169 1.15-.57 1.723-1.067a5.373 5.373 0 0 0-9.901 0c.22.068.44.153.664.267Z"></path><path fill="#000" d="M42.776 19.081c.936-1.568 2.632-2.63 4.59-2.63 1.144 0 2.203.36 3.074.969a5.367 5.367 0 0 0-4.407-2.303 5.366 5.366 0 0 0-4.82 3.017c.459.178.894.456 1.28.855.09.033.19.06.283.092Z" opacity=".1"></path><path fill="#CBD5DE" d="M46.033 15.117a2.685 2.685 0 1 0 0-5.37 2.685 2.685 0 0 0 0 5.37Z"></path><path fill="#000" d="M44.872 13.956a2.686 2.686 0 0 1 3.66-2.5 2.685 2.685 0 1 0-3.475 3.476 2.673 2.673 0 0 1-.185-.976Z" opacity=".1"></path><path fill="#D8EDFD" d="M46.048 36.003a6.505 6.505 0 1 0 0-13.01 6.505 6.505 0 0 0 0 13.01Z"></path><path fill="#fff" d="M51.246 25.591a6.433 6.433 0 0 0-3.914-1.312 6.505 6.505 0 0 0-6.502 6.506c0 1.468.49 2.826 1.317 3.914a6.484 6.484 0 0 1-2.606-5.203 6.508 6.508 0 0 1 6.506-6.502 6.486 6.486 0 0 1 5.2 2.597Z" opacity=".3"></path><path fill="#F7C771" d="M41.261 34.638c2.053 1.097 3.99 1.03 6.272 1.05 2.242.02 1.955-.484 3.256-1.667a5.373 5.373 0 0 0-4.744-2.85 5.37 5.37 0 0 0-4.98 3.374c.065.03.13.057.196.093Z"></path><path fill="#000" d="M41.261 34.638c.493.263.98.456 1.465.603.922-1.627 2.65-2.736 4.653-2.736 1.144 0 2.202.36 3.074.97a5.367 5.367 0 0 0-9.389 1.07c.066.03.131.057.197.093Z" opacity=".1"></path><path fill="#CBD5DE" d="M46.046 31.172a2.685 2.685 0 1 0 0-5.37 2.685 2.685 0 0 0 0 5.37Z"></path><path fill="#000" d="M44.885 30.01a2.686 2.686 0 0 1 3.662-2.5 2.685 2.685 0 1 0-3.476 3.476 2.67 2.67 0 0 1-.186-.975Z" opacity=".1"></path><path fill="#D8EDFD" d="M46.048 52.057a6.505 6.505 0 1 0 0-13.01 6.505 6.505 0 0 0 0 13.01Z"></path><path fill="#fff" d="M51.246 41.646a6.433 6.433 0 0 0-3.914-1.313 6.505 6.505 0 0 0-6.502 6.507c0 1.467.49 2.825 1.317 3.914a6.484 6.484 0 0 1-2.606-5.204 6.508 6.508 0 0 1 6.506-6.502 6.486 6.486 0 0 1 5.2 2.598Z" opacity=".3"></path><path fill="#CAC5F4" d="M42.332 50.63c.803.937 3.33 1.25 4.521 1.152.863-.07 1.731-.385 2.527-.72.557-.235 1.451-1.148.536.054a5.24 5.24 0 0 1 .923-.94 5.37 5.37 0 0 0-4.793-2.95 5.363 5.363 0 0 0-4.61 2.63c.31.189.612.444.896.774Z"></path><path fill="#000" d="M42.332 50.63c.132.155.323.286.536.408a5.351 5.351 0 0 1 7.586-1.51 5.363 5.363 0 0 0-9.018.328c.31.189.612.444.896.774Z" opacity=".1"></path><path fill="#CBD5DE" d="M46.048 47.226a2.685 2.685 0 1 0 0-5.37 2.685 2.685 0 0 0 0 5.37Z"></path><path fill="#000" d="M44.885 46.065a2.686 2.686 0 0 1 3.662-2.5 2.684 2.684 0 1 0-3.476 3.476 2.672 2.672 0 0 1-.186-.976Z" opacity=".1"></path><path fill="#D8EDFD" d="M17.797 39.843c5.715 0 10.348-4.633 10.348-10.347 0-5.715-4.633-10.348-10.348-10.348-5.715 0-10.348 4.633-10.348 10.348 0 5.715 4.633 10.347 10.348 10.347Z"></path><path fill="#fff" d="M26.064 23.282a10.232 10.232 0 0 0-6.226-2.087c-5.71 0-10.342 4.633-10.342 10.349 0 2.335.778 4.495 2.095 6.226a10.313 10.313 0 0 1-4.146-8.277c0-5.709 4.64-10.342 10.35-10.342 3.381 0 6.385 1.622 8.269 4.131Z" opacity=".3"></path><path fill="#F19EB1" d="M11.356 37.494c1.16 1.023 2.81 1.708 4.372 1.997 2.151.397 4.353-.71 6.453-1.068.268-.046.526-.063.776-.058.097-.043.193-.085.215-.096.21-.105.416-.216.623-.327.177-.096.351-.195.526-.294.212-.462.512-.866.88-1.197a8.54 8.54 0 0 0-7.408-4.293c-3.302 0-6.164 1.883-7.584 4.629.392.155.779.383 1.147.707Z"></path><path fill="#000" d="M11.356 37.494c.38.335.816.63 1.28.89 1.498-2.457 4.192-4.104 7.278-4.104 1.82 0 3.504.572 4.89 1.541a8.536 8.536 0 0 0-7.01-3.663c-3.303 0-6.165 1.883-7.585 4.63.392.154.779.382 1.147.706Z" opacity=".1"></path><path fill="#CBD5DE" d="M17.795 32.159a4.271 4.271 0 1 0 0-8.543 4.271 4.271 0 0 0 0 8.543Z"></path><path fill="#000" d="M15.948 30.312a4.272 4.272 0 0 1 4.271-4.272c.548 0 1.07.108 1.552.296a4.27 4.27 0 0 0-8.248 1.552 4.27 4.27 0 0 0 2.72 3.976 4.252 4.252 0 0 1-.295-1.552Z" opacity=".1"></path><path fill="#6B6DAD" d="m29.683 23.58 8.53-4.851a.727.727 0 1 0-.718-1.264l-8.531 4.85a.727.727 0 1 0 .719 1.264ZM36.632 28.766l-5.58.007a.727.727 0 0 0 .001 1.455l5.58-.008a.727.727 0 0 0-.001-1.454ZM38.22 40.264l-8.545-4.85a.729.729 0 0 0-.719 1.264l8.546 4.851a.728.728 0 0 0 .718-1.265ZM46.037 6.213c-3.993 0-7.236 3.243-7.236 7.229a7.241 7.241 0 0 0 7.236 7.236c3.986 0 7.23-3.244 7.23-7.236 0-3.986-3.244-7.23-7.23-7.23Zm0 13.01a5.787 5.787 0 0 1-3.774-1.41c.843-1.186 2.21-1.971 3.767-1.971h.007a4.624 4.624 0 0 1 3.76 1.978 5.743 5.743 0 0 1-3.76 1.404Zm-1.963-6.792c0-1.076.88-1.956 1.956-1.956 1.084 0 1.963.88 1.963 1.956 0 1.084-.88 1.956-1.956 1.956h-.007a1.946 1.946 0 0 1-1.382-.574 1.92 1.92 0 0 1-.575-1.382Zm6.72 4.284a6.243 6.243 0 0 0-2.386-1.84 3.388 3.388 0 0 0 1.04-2.444 3.416 3.416 0 0 0-6.83 0c.001.96.408 1.833 1.048 2.45a6.059 6.059 0 0 0-2.392 1.826 5.737 5.737 0 0 1-1.019-3.265c0-3.186 2.597-5.775 5.782-5.775a5.78 5.78 0 0 1 5.775 5.775 5.76 5.76 0 0 1-1.018 3.273ZM46.05 22.264a7.241 7.241 0 0 0-7.235 7.236c0 3.986 3.243 7.23 7.236 7.23 3.985 0 7.229-3.244 7.229-7.23 0-3.993-3.244-7.236-7.23-7.236Zm0 13.01c-1.44 0-2.755-.53-3.767-1.403.837-1.186 2.204-1.971 3.76-1.971h.008c1.556 0 2.923.785 3.76 1.97a5.742 5.742 0 0 1-3.76 1.405Zm-1.963-6.785c0-1.084.88-1.963 1.956-1.963 1.084 0 1.964.88 1.964 1.963 0 1.076-.88 1.956-1.956 1.956h-.008a1.946 1.946 0 0 1-1.381-.574 1.946 1.946 0 0 1-.575-1.382Zm6.727 4.27a6.197 6.197 0 0 0-2.392-1.834 3.383 3.383 0 0 0 1.04-2.436 3.424 3.424 0 0 0-3.418-3.418 3.422 3.422 0 0 0-3.411 3.418c0 .96.4 1.826 1.047 2.444a6.195 6.195 0 0 0-2.393 1.833A5.754 5.754 0 0 1 40.27 29.5a5.792 5.792 0 0 1 5.782-5.782c3.185 0 5.774 2.597 5.774 5.782 0 1.207-.37 2.327-1.01 3.258ZM46.05 38.322c-3.992 0-7.235 3.243-7.235 7.229a7.241 7.241 0 0 0 7.236 7.236c3.985 0 7.229-3.243 7.229-7.236 0-3.986-3.244-7.23-7.23-7.23Zm0 13.01a5.76 5.76 0 0 1-3.781-1.418 4.629 4.629 0 0 1 3.775-1.963h.007c1.556 0 2.93.785 3.767 1.97a5.754 5.754 0 0 1-3.767 1.412Zm-1.963-6.792c0-1.076.88-1.956 1.956-1.956 1.084 0 1.964.88 1.964 1.956 0 1.084-.88 1.956-1.956 1.956h-.008a1.946 1.946 0 0 1-1.381-.574 1.946 1.946 0 0 1-.575-1.382Zm6.72 4.276a6.173 6.173 0 0 0-2.385-1.832 3.387 3.387 0 0 0 1.04-2.444 3.416 3.416 0 0 0-6.83 0c0 .96.4 1.825 1.04 2.444-.945.4-1.76 1.04-2.392 1.832a5.803 5.803 0 0 1-1.011-3.265c0-3.186 2.596-5.775 5.782-5.775a5.78 5.78 0 0 1 5.774 5.775 5.737 5.737 0 0 1-1.018 3.265ZM17.797 18.424c-6.109 0-11.076 4.967-11.076 11.069 0 6.109 4.967 11.076 11.076 11.076 6.11 0 11.076-4.967 11.076-11.076 0-6.102-4.967-11.07-11.076-11.07Zm0 20.69a9.565 9.565 0 0 1-6.567-2.61c1.382-2.168 3.796-3.615 6.56-3.615h.007c1.382 0 2.676.364 3.796.996a7.918 7.918 0 0 1 2.771 2.626 9.605 9.605 0 0 1-6.567 2.603Zm-3.549-11.229a3.552 3.552 0 0 1 3.55-3.541 3.55 3.55 0 0 1 3.54 3.541 3.552 3.552 0 0 1-3.54 3.55h-.008a3.557 3.557 0 0 1-3.542-3.55Zm11.135 7.513a9.34 9.34 0 0 0-4.64-3.484 4.975 4.975 0 0 0 2.05-4.029 5 5 0 0 0-4.996-4.996 5.007 5.007 0 0 0-5.004 4.996c0 1.659.815 3.12 2.059 4.03a9.368 9.368 0 0 0-4.64 3.476 9.546 9.546 0 0 1-2.037-5.898c0-5.302 4.32-9.615 9.622-9.615s9.622 4.313 9.622 9.615c0 2.225-.771 4.269-2.037 5.905Z"></path></svg>