<svg width="60" height="60" viewBox="0 0 60 60" fill="none" xmlns="http://www.w3.org/2000/svg">
<path d="M3 39L18.9904 33.6699C19.3242 33.5586 19.6228 33.3612 19.8559 33.0977L29.6635 22.0109C30.3997 21.1785 31.6734 21.106 32.4994 21.8494L34.4054 23.5649C35.2674 24.3407 36.6064 24.223 37.32 23.3088L52 4.5" stroke="#26A17B"></path>
<path d="M51 38.5L41.8806 35.1402C41.6294 35.0477 41.3994 34.9057 41.2041 34.7226L34.1483 28.1078C33.7356 27.7208 33.1782 27.5268 32.6144 27.5738L28.7526 27.8956C27.9869 27.9594 27.2523 27.5789 26.8627 26.9166L22.7623 19.9459C22.5903 19.6534 22.3467 19.4096 22.0544 19.2372L3 8" stroke="#A14B26"></path>
<path d="M17.6542 57C17.5876 57 17.5309 56.9767 17.4842 56.93C17.4442 56.8833 17.4242 56.83 17.4242 56.77C17.4242 56.75 17.4276 56.7267 17.4342 56.7C17.4409 56.6733 17.4542 56.6467 17.4742 56.62L19.1142 54.32L17.6342 52.18C17.6209 52.16 17.6076 52.1367 17.5942 52.11C17.5876 52.0833 17.5842 52.0567 17.5842 52.03C17.5842 51.97 17.6076 51.9167 17.6542 51.87C17.7009 51.8233 17.7542 51.8 17.8142 51.8H19.3442C19.4376 51.8 19.5076 51.8233 19.5542 51.87C19.6009 51.91 19.6342 51.9467 19.6542 51.98L20.4042 53.07L21.1542 51.98C21.1809 51.9467 21.2142 51.91 21.2542 51.87C21.3009 51.8233 21.3709 51.8 21.4642 51.8H22.9242C22.9842 51.8 23.0376 51.8233 23.0842 51.87C23.1309 51.9167 23.1542 51.9667 23.1542 52.02C23.1542 52.0533 23.1509 52.0833 23.1442 52.11C23.1376 52.1367 23.1242 52.16 23.1042 52.18L21.5942 54.32L23.2642 56.62C23.2842 56.6467 23.2976 56.6733 23.3042 56.7C23.3109 56.7267 23.3142 56.75 23.3142 56.77C23.3142 56.83 23.2909 56.8833 23.2442 56.93C23.1976 56.9767 23.1442 57 23.0842 57H21.4842C21.3976 57 21.3342 56.98 21.2942 56.94C21.2542 56.9 21.2209 56.8633 21.1942 56.83L20.3642 55.67L19.5042 56.83C19.4842 56.8633 19.4509 56.9 19.4042 56.94C19.3642 56.98 19.3009 57 19.2142 57H17.6542ZM26.198 57C26.1246 57 26.0613 56.9767 26.008 56.93C25.9613 56.8767 25.938 56.8133 25.938 56.74V52.34L24.688 53.3C24.6213 53.34 24.5546 53.3533 24.488 53.34C24.428 53.3267 24.3713 53.2867 24.318 53.22L23.588 52.27C23.5546 52.21 23.5413 52.1433 23.548 52.07C23.5613 51.9967 23.6013 51.94 23.668 51.9L26.028 50.07C26.0613 50.0433 26.0946 50.0267 26.128 50.02C26.1613 50.0067 26.2013 50 26.248 50H27.818C27.8913 50 27.9546 50.0267 28.008 50.08C28.0613 50.1267 28.088 50.1867 28.088 50.26V56.74C28.088 56.8133 28.0613 56.8767 28.008 56.93C27.9546 56.9767 27.8913 57 27.818 57H26.198ZM32.1814 57.1C31.6881 57.1 31.2581 57.0333 30.8914 56.9C30.5247 56.7667 30.2181 56.5833 29.9714 56.35C29.7314 56.1167 29.5447 55.8433 29.4114 55.53C29.2781 55.21 29.2014 54.8667 29.1814 54.5C29.1681 54.32 29.1581 54.1067 29.1514 53.86C29.1514 53.6133 29.1514 53.3667 29.1514 53.12C29.1581 52.8667 29.1681 52.6467 29.1814 52.46C29.2014 52.0933 29.2781 51.7567 29.4114 51.45C29.5514 51.1367 29.7481 50.8667 30.0014 50.64C30.2547 50.4067 30.5614 50.2267 30.9214 50.1C31.2814 49.9667 31.7014 49.9 32.1814 49.9C32.6547 49.9 33.0714 49.9667 33.4314 50.1C33.7981 50.2267 34.1047 50.4067 34.3514 50.64C34.6047 50.8667 34.7981 51.1367 34.9314 51.45C35.0714 51.7567 35.1547 52.0933 35.1814 52.46C35.1947 52.6467 35.2014 52.8667 35.2014 53.12C35.2014 53.3667 35.2014 53.6133 35.2014 53.86C35.2014 54.1067 35.1947 54.32 35.1814 54.5C35.1547 54.8667 35.0747 55.21 34.9414 55.53C34.8147 55.8433 34.6281 56.1167 34.3814 56.35C34.1347 56.5833 33.8281 56.7667 33.4614 56.9C33.0947 57.0333 32.6681 57.1 32.1814 57.1ZM32.1814 55.39C32.4481 55.39 32.6414 55.3033 32.7614 55.13C32.8814 54.9567 32.9447 54.73 32.9514 54.45C32.9647 54.2567 32.9714 54.0467 32.9714 53.82C32.9714 53.5933 32.9714 53.3667 32.9714 53.14C32.9714 52.9067 32.9647 52.7 32.9514 52.52C32.9447 52.2533 32.8814 52.0333 32.7614 51.86C32.6481 51.68 32.4547 51.5867 32.1814 51.58C31.9081 51.5867 31.7147 51.68 31.6014 51.86C31.4881 52.0333 31.4247 52.2533 31.4114 52.52C31.4047 52.7 31.3981 52.9067 31.3914 53.14C31.3914 53.3667 31.3914 53.5933 31.3914 53.82C31.3981 54.0467 31.4047 54.2567 31.4114 54.45C31.4247 54.73 31.4881 54.9567 31.6014 55.13C31.7214 55.3033 31.9147 55.39 32.1814 55.39ZM39.1736 57.1C38.6803 57.1 38.2503 57.0333 37.8836 56.9C37.5169 56.7667 37.2103 56.5833 36.9636 56.35C36.7236 56.1167 36.5369 55.8433 36.4036 55.53C36.2703 55.21 36.1936 54.8667 36.1736 54.5C36.1603 54.32 36.1503 54.1067 36.1436 53.86C36.1436 53.6133 36.1436 53.3667 36.1436 53.12C36.1503 52.8667 36.1603 52.6467 36.1736 52.46C36.1936 52.0933 36.2703 51.7567 36.4036 51.45C36.5436 51.1367 36.7403 50.8667 36.9936 50.64C37.2469 50.4067 37.5536 50.2267 37.9136 50.1C38.2736 49.9667 38.6936 49.9 39.1736 49.9C39.6469 49.9 40.0636 49.9667 40.4236 50.1C40.7903 50.2267 41.0969 50.4067 41.3436 50.64C41.5969 50.8667 41.7903 51.1367 41.9236 51.45C42.0636 51.7567 42.1469 52.0933 42.1736 52.46C42.1869 52.6467 42.1936 52.8667 42.1936 53.12C42.1936 53.3667 42.1936 53.6133 42.1936 53.86C42.1936 54.1067 42.1869 54.32 42.1736 54.5C42.1469 54.8667 42.0669 55.21 41.9336 55.53C41.8069 55.8433 41.6203 56.1167 41.3736 56.35C41.1269 56.5833 40.8203 56.7667 40.4536 56.9C40.0869 57.0333 39.6603 57.1 39.1736 57.1ZM39.1736 55.39C39.4403 55.39 39.6336 55.3033 39.7536 55.13C39.8736 54.9567 39.9369 54.73 39.9436 54.45C39.9569 54.2567 39.9636 54.0467 39.9636 53.82C39.9636 53.5933 39.9636 53.3667 39.9636 53.14C39.9636 52.9067 39.9569 52.7 39.9436 52.52C39.9369 52.2533 39.8736 52.0333 39.7536 51.86C39.6403 51.68 39.4469 51.5867 39.1736 51.58C38.9003 51.5867 38.7069 51.68 38.5936 51.86C38.4803 52.0333 38.4169 52.2533 38.4036 52.52C38.3969 52.7 38.3903 52.9067 38.3836 53.14C38.3836 53.3667 38.3836 53.5933 38.3836 53.82C38.3903 54.0467 38.3969 54.2567 38.4036 54.45C38.4169 54.73 38.4803 54.9567 38.5936 55.13C38.7136 55.3033 38.9069 55.39 39.1736 55.39Z" fill="#FB9927"></path>
<g clip-path="url(#clip0_2818_6947)">
<path d="M36.1669 9.65551C37.0798 12.8928 35.1933 16.256 31.96 17.1666C28.7226 18.0796 25.3595 16.1932 24.4489 12.9599C23.5359 9.72262 25.4184 6.36183 28.6558 5.44885C31.8867 4.53407 35.2539 6.41814 36.1669 9.65551Z" fill="url(#paint0_linear_2818_6947)"></path>
<path d="M32.4489 9.21061C32.1509 8.44947 31.4009 8.37396 30.5218 8.54214L30.2161 7.45117L29.5553 7.63705L29.8551 8.69852C29.681 8.74868 29.5028 8.80119 29.327 8.85784L29.0248 7.79224L28.364 7.97812L28.6714 9.0626C28.5269 9.10686 28.3865 9.14875 28.2502 9.18829L28.2478 9.18416L27.3332 9.4438L27.5345 10.1507C27.5345 10.1507 28.0207 10.0043 28.0148 10.0132C28.2832 9.93645 28.4142 10.0698 28.4768 10.1984L28.8249 11.4404C28.8438 11.4351 28.8668 11.4275 28.8987 11.4257C28.8757 11.4334 28.8526 11.441 28.8273 11.4446L29.3159 13.1816C29.3271 13.2684 29.3141 13.4182 29.1294 13.469C29.1383 13.4749 28.6491 13.6065 28.6491 13.6065L28.74 14.4367L29.6044 14.1947C29.7661 14.1516 29.9213 14.1068 30.0788 14.0661L30.3892 15.1653L31.05 14.9794L30.7444 13.8885C30.9249 13.8401 31.1055 13.7917 31.2754 13.7439L31.5828 14.8284L32.2437 14.6425L31.9333 13.5433C33.0307 13.1627 33.7317 12.6635 33.5293 11.5902C33.3705 10.7276 32.8678 10.4615 32.1916 10.4863C32.5262 10.18 32.6672 9.76524 32.4489 9.21061ZM32.1852 11.8268C32.4183 12.647 30.9821 12.9527 30.5331 13.0778L30.1218 11.6198C30.5708 11.4947 31.9456 10.9666 32.1852 11.8268ZM31.2977 9.85201C31.5078 10.6031 30.3088 10.8445 29.9353 10.9483L29.5636 9.62665C29.9371 9.5228 31.0776 9.07375 31.2977 9.85201Z" fill="white"></path>
</g>
<g clip-path="url(#clip1_2818_6947)">
<rect x="44.502" y="17" width="12.178" height="12.178" rx="6.089" transform="rotate(11.8543 44.502 17)" fill="#888888"></rect>
<g clip-path="url(#clip2_2818_6947)">
<path d="M48.7499 26.3134L46.4711 24.2324L48.3013 28.4424L51.6728 25.3243L48.7483 26.313L48.7499 26.3134ZM50.1201 19.9775L46.6144 23.747L48.8916 25.8303L51.815 24.8402L50.1201 19.9775Z" fill="white"></path>
</g>
</g>
<g clip-path="url(#clip3_2818_6947)">
<path d="M14.4999 31.4291C18.0636 31.14 20.7182 28.0166 20.4291 24.4528C20.14 20.889 17.0166 18.2344 13.4528 18.5235C9.88901 18.8127 7.23439 21.9361 7.52353 25.4998C7.81267 29.0636 10.9361 31.7182 14.4999 31.4291Z" fill="#26A17B"></path>
<path fill-rule="evenodd" clip-rule="evenodd" d="M14.797 25.4713L14.7969 25.4704C14.7528 25.4773 14.5252 25.5095 14.0151 25.5509C13.6077 25.584 13.32 25.5951 13.2188 25.5985L13.2189 25.5997C11.6453 25.658 10.4527 25.4799 10.4262 25.1532C10.3998 24.8269 11.548 24.4589 13.1103 24.2615L13.1968 25.3279C13.2999 25.3268 13.5949 25.3203 14.0006 25.2874C14.4874 25.2479 14.7297 25.208 14.775 25.2002L14.6885 24.1343C16.259 24.0771 17.4487 24.2554 17.4751 24.5813C17.5016 24.908 16.3561 25.2749 14.797 25.4713ZM14.6795 24.0234L14.6021 23.0692L16.7855 22.8921L16.6675 21.437L10.7224 21.9193L10.8405 23.3744L13.024 23.1972L13.1013 24.151C11.3334 24.3765 10.0275 24.8364 10.0616 25.2575C10.0958 25.6785 11.4588 25.9215 13.24 25.8594L13.488 28.9172L15.0662 28.7892L14.818 25.7306C16.5831 25.5054 17.8859 25.0461 17.8517 24.6254C17.8176 24.2048 16.4578 23.9615 14.6795 24.0234Z" fill="white"></path>
</g>
<g clip-path="url(#clip4_2818_6947)">
<path d="M30.4999 44.4291C34.0636 44.14 36.7182 41.0166 36.4291 37.4528C36.14 33.889 33.0166 31.2344 29.4528 31.5235C25.889 31.8127 23.2344 34.9361 23.5235 38.4998C23.8127 42.0636 26.9361 44.7182 30.4999 44.4291Z" fill="#3D7AD7"></path>
<path d="M28.9116 38.0419C29.2337 38.0127 29.4711 37.7279 29.4419 37.4058C29.4127 37.0837 29.128 36.8463 28.8059 36.8755C28.4838 36.9047 28.2463 37.1895 28.2755 37.5115C28.3047 37.8336 28.5895 38.0711 28.9116 38.0419Z" fill="white"></path>
<path d="M31.1671 37.8376C31.4515 37.8118 31.6612 37.5603 31.6354 37.2758C31.6096 36.9913 31.3581 36.7816 31.0737 36.8074C30.7892 36.8332 30.5795 37.0847 30.6053 37.3692C30.6311 37.6537 30.8826 37.8634 31.1671 37.8376Z" fill="white"></path>
<path d="M29.6367 39.1611C29.6367 39.1611 29.7701 39.5022 30.1809 39.5105C30.5917 39.5187 30.6873 39.0659 30.6873 39.0659" stroke="white" stroke-width="0.272229" stroke-linecap="round" stroke-linejoin="round"></path>
<path d="M30.1818 39.5105L30.2519 40.0963M30.2519 40.0963C30.4856 40.2181 30.6192 40.2694 30.9476 40.1699M30.2519 40.0963C29.9988 40.2559 29.8729 40.313 29.6034 40.2918M31.0848 40.7953C31.8505 41.1052 32.4188 40.9098 32.8104 40.6057M26.7527 39.5214C26.0734 37.7346 27.7445 36.8727 27.7445 36.8727C27.3255 36.774 26.497 35.676 27.0466 35.0795C27.5962 34.483 28.5109 35.4023 28.5109 35.4023C28.5109 35.4023 29.7942 34.7166 31.2228 35.1564C31.2228 35.1564 31.9574 34.0876 32.6052 34.5756C33.253 35.0635 32.6356 36.2926 32.2413 36.465C32.2413 36.465 34.0093 37.0008 33.7015 38.8444M28.0143 41.0898C28.4446 41.2862 29.0073 41.3389 29.6607 40.9244" stroke="white" stroke-width="0.272229" stroke-linecap="round" stroke-linejoin="round"></path>
<path d="M28.855 39.1979C28.855 39.1979 26.5833 39.7684 26.3221 41.0334M29.0024 39.6931C29.0024 39.6931 27.3688 40.1442 27.2 41.6715M31.5669 38.952C31.5669 38.952 33.9042 39.1047 34.3886 40.3021M31.5109 39.4657C31.5109 39.4657 33.1493 39.8338 33.6397 41.0877" stroke="white" stroke-width="0.272229" stroke-linecap="round" stroke-linejoin="round"></path>
</g>
<defs>
<linearGradient id="paint0_linear_2818_6947" x1="550.236" y1="-293.16" x2="1154.54" y2="764.32" gradientUnits="userSpaceOnUse">
<stop stop-color="#F9AA4B"></stop>
<stop offset="1" stop-color="#F7931A"></stop>
</linearGradient>
<clipPath id="clip0_2818_6947">
<rect width="12.178" height="12.178" fill="white" transform="translate(22 9.04224) rotate(-29.7462)"></rect>
</clipPath>
<clipPath id="clip1_2818_6947">
<rect x="44.502" y="17" width="12.178" height="12.178" rx="6.089" transform="rotate(11.8543 44.502 17)" fill="white"></rect>
</clipPath>
<clipPath id="clip2_2818_6947">
<rect width="8.6578" height="8.6578" fill="white" transform="translate(45.8633 19.0842) rotate(11.8543)"></rect>
</clipPath>
<clipPath id="clip3_2818_6947">
<rect width="12.948" height="12.948" fill="white" transform="translate(7 19.0471) rotate(-4.63842)"></rect>
</clipPath>
<clipPath id="clip4_2818_6947">
<rect width="12.948" height="12.948" fill="white" transform="translate(23 32.0471) rotate(-4.63842)"></rect>
</clipPath>
</defs>
</svg>