<svg xmlns="http://www.w3.org/2000/svg" viewBox="0 0 60 60" fill="none"><g clip-path="url(#product_team)"><path fill="#CCF5FC" d="M47.918 17.84H12.082a3.438 3.438 0 0 0-3.437 3.437v18.907a3.438 3.438 0 0 0 3.437 3.437h35.836a3.438 3.438 0 0 0 3.438-3.437V21.277a3.438 3.438 0 0 0-3.438-3.437Z"></path><path fill="#6060C6" d="M47.918 44.266H12.082A4.087 4.087 0 0 1 8 40.184V21.277a4.087 4.087 0 0 1 4.082-4.082h35.836A4.087 4.087 0 0 1 52 21.277v18.907a4.087 4.087 0 0 1-4.082 4.082ZM12.082 18.484a2.796 2.796 0 0 0-2.793 2.793v18.907a2.796 2.796 0 0 0 2.793 2.793h35.836a2.796 2.796 0 0 0 2.793-2.793V21.277a2.796 2.796 0 0 0-2.793-2.793H12.082Z"></path><path fill="#00CCF2" d="M8.645 38.465h42.71v1.719a3.437 3.437 0 0 1-3.437 3.437H12.082a3.438 3.438 0 0 1-3.437-3.437v-1.72Z"></path><path fill="#6060C6" d="M47.918 44.266H12.082A4.087 4.087 0 0 1 8 40.184v-1.72a.645.645 0 0 1 .645-.644h42.71a.644.644 0 0 1 .645.645v1.719a4.087 4.087 0 0 1-4.082 4.082ZM9.289 39.109v1.075a2.796 2.796 0 0 0 2.793 2.793h35.836a2.796 2.796 0 0 0 2.793-2.793v-1.075H9.289Z"></path><path fill="#B278D3" d="M43.32 51.355H16.68a1.719 1.719 0 0 1 0-3.437h26.64a1.719 1.719 0 1 1 0 3.438Z"></path><path fill="#6060C6" d="M43.32 52H16.68a2.363 2.363 0 0 1 0-4.727h26.64a2.363 2.363 0 0 1 0 4.727Zm-26.64-3.438a1.075 1.075 0 0 0 0 2.149h26.64a1.074 1.074 0 1 0 0-2.148H16.68Z"></path><path fill="#C193DC" d="M39.453 47.918H20.547l1.719-4.297h15.468l1.72 4.297Z"></path><path fill="#6060C6" d="M39.453 48.563H20.547a.642.642 0 0 1-.602-.885l1.719-4.297a.645.645 0 0 1 .601-.404h15.47a.645.645 0 0 1 .6.404l1.72 4.297a.644.644 0 0 1-.602.885Zm-17.954-1.29H38.5l-1.203-3.007H22.702l-1.203 3.007Z"></path><path fill="#C193DC" d="M16.68 14.96h3.437a1.719 1.719 0 0 1 1.719 1.72V30H14.96V16.68a1.719 1.719 0 0 1 1.719-1.72Z"></path><path fill="#6060C6" d="M21.836 30.645H14.96a.645.645 0 0 1-.645-.645V16.68a2.367 2.367 0 0 1 2.364-2.364h3.437a2.367 2.367 0 0 1 2.363 2.364V30a.645.645 0 0 1-.644.645Zm-6.23-1.29h5.585V16.68a1.076 1.076 0 0 0-1.074-1.075H16.68a1.076 1.076 0 0 0-1.075 1.075v12.675Z"></path><path fill="#C193DC" d="M28.281 11.094h3.438a1.718 1.718 0 0 1 1.718 1.719V30h-6.874V12.812a1.719 1.719 0 0 1 1.718-1.718Z"></path><path fill="#6060C6" d="M33.438 30.645h-6.876a.645.645 0 0 1-.644-.645V12.812a2.367 2.367 0 0 1 2.363-2.363h3.438a2.366 2.366 0 0 1 2.363 2.364V30a.645.645 0 0 1-.645.645Zm-6.231-1.29h5.586V12.813a1.076 1.076 0 0 0-1.074-1.074H28.28a1.076 1.076 0 0 0-1.074 1.075v16.542Z"></path><path fill="#C193DC" d="M39.883 8.645h3.437a1.719 1.719 0 0 1 1.72 1.718V30h-6.876V10.363a1.718 1.718 0 0 1 1.719-1.718Z"></path><path fill="#6060C6" d="M45.04 30.645h-6.876A.645.645 0 0 1 37.52 30V10.363A2.367 2.367 0 0 1 39.883 8h3.437a2.367 2.367 0 0 1 2.364 2.363V30a.645.645 0 0 1-.645.645Zm-6.231-1.29h5.586V10.363A1.075 1.075 0 0 0 43.32 9.29h-3.437a1.076 1.076 0 0 0-1.074 1.074v18.992Z"></path><path fill="#00CCF2" d="M46.328 30H13.672a.86.86 0 0 0-.86.86v1.718c0 .475.385.86.86.86h32.656a.86.86 0 0 0 .86-.86V30.86a.86.86 0 0 0-.86-.859Z"></path><path fill="#6060C6" d="M46.328 34.082H13.672a1.505 1.505 0 0 1-1.504-1.504V30.86a1.505 1.505 0 0 1 1.504-1.504h32.656a1.505 1.505 0 0 1 1.504 1.504v1.72a1.505 1.505 0 0 1-1.504 1.503Zm-32.656-3.438a.215.215 0 0 0-.215.215v1.72a.215.215 0 0 0 .215.214h32.656a.215.215 0 0 0 .215-.215V30.86a.215.215 0 0 0-.215-.215H13.672Z"></path></g><defs><clipPath id="product_team"><path fill="#fff" d="M8 8h44v44H8z"></path></clipPath></defs></svg>