<svg width="60" height="60" viewBox="0 0 60 60" fill="none" xmlns="http://www.w3.org/2000/svg">
<g clip-path="url(#clip0_2383_6962)">
<path d="M52.7403 42.9405L51.1041 43.486C49.8725 43.8966 48.5828 44.1057 47.2846 44.1053H21.1071C18.7927 44.1053 16.527 43.4399 14.5801 42.1884L7.67216 37.7481C7.46605 37.6155 7.2965 37.4333 7.17907 37.2182C7.06163 37.0031 7.00006 36.762 7 36.5169C7 36.1285 7.15427 35.7561 7.42888 35.4815C7.70348 35.2069 8.07593 35.0526 8.46428 35.0526H43.3278C44.2325 35.0526 45.1256 35.256 45.9411 35.6477C46.7565 36.0395 47.4735 36.6096 48.039 37.3158L48.131 37.4312C48.8577 38.3396 49.8315 39.0187 50.9351 39.3866L52.7388 39.9901C53.0395 40.0899 53.3012 40.2819 53.4867 40.5387C53.6722 40.7956 53.7722 41.1043 53.7723 41.4212V41.5087C53.7724 41.8255 53.6728 42.1343 53.4875 42.3913C53.3023 42.6483 53.0409 42.8404 52.7403 42.9405Z" fill="#E6E6E6"></path>
<path d="M53.3667 41.2228C52.1351 41.6334 50.8454 41.8425 49.5472 41.8421H23.3698C21.0553 41.8422 18.7896 41.1768 16.8428 39.9252L9.93478 35.4849C9.76517 35.372 9.62123 35.2248 9.51232 35.0526H8.46372C8.1475 35.0527 7.83981 35.1552 7.58668 35.3447C7.33354 35.5343 7.14856 35.8006 7.05941 36.104C6.97025 36.4074 6.9817 36.7315 7.09205 37.0279C7.2024 37.3242 7.40572 37.5769 7.6716 37.7481L14.5788 42.1884C16.5259 43.4401 18.7919 44.1055 21.1066 44.1053H47.284C48.5812 44.1054 49.8699 43.8963 51.1005 43.486L52.7368 42.9405C53.0379 42.841 53.3 42.649 53.4858 42.392C53.6716 42.1349 53.7716 41.8259 53.7718 41.5087V41.4212C53.7665 41.3141 53.7495 41.2078 53.7212 41.1043L53.3667 41.2228Z" fill="#CECECE"></path>
<path d="M10.0176 26H7L10.0176 35.0527H16.0527L10.0176 26Z" fill="#F8C460"></path>
<path d="M10.8383 30.7263L9.26318 26H7L10.0176 35.0527H16.0527L14.5439 32.7895H13.7013C13.0679 32.7896 12.4506 32.5903 11.9368 32.22C11.4229 31.8497 11.0386 31.3271 10.8383 30.7263Z" fill="#FAAF42"></path>
<path d="M10.0176 38.0702H14.5439L8.50879 42.5965H7L10.0176 38.0702Z" fill="#F8C460"></path>
<path d="M10.0176 38.0702L7 42.5965H8.50879L11.5264 38.0702H10.0176Z" fill="#FAAF42"></path>
<path d="M23.5967 51.6493H19.0703L27.3686 42.5966H35.6669L23.5967 51.6493Z" fill="#F8C460"></path>
<path d="M25.6335 47.1614L29.8204 42.5966H27.3686L19.0703 51.6493H23.5967L26.6142 49.3862C26.3564 49.3865 26.1041 49.3118 25.888 49.1711C25.672 49.0304 25.5015 48.8299 25.3975 48.594C25.2935 48.3581 25.2605 48.097 25.3024 47.8426C25.3443 47.5882 25.4594 47.3515 25.6335 47.1614Z" fill="#FAAF42"></path>
<path d="M27.3677 35.0527L20.5781 28.2632H24.3501L35.666 35.0527H27.3677Z" fill="#F8C460"></path>
<path d="M27.2379 31.9054L23.5957 28.2632H20.5781L27.3677 35.0527H35.666L31.894 32.7895H29.3721C28.9757 32.7896 28.5832 32.7115 28.217 32.5598C27.8508 32.4081 27.5181 32.1857 27.2379 31.9054Z" fill="#FAAF42"></path>
<path d="M51.5102 39.5791H45.8523C45.5522 39.5791 45.2644 39.4599 45.0521 39.2477C44.8399 39.0354 44.7207 38.7476 44.7207 38.4475C44.7207 38.1474 44.8399 37.8596 45.0521 37.6474C45.2644 37.4351 45.5522 37.3159 45.8523 37.3159H48.04L48.1306 37.4366C48.861 38.3417 49.8346 39.0196 50.9369 39.3905L51.5102 39.5791Z" fill="#A7D0E1"></path>
<path d="M40.9482 39.579V38.8246C40.9482 38.6245 40.8688 38.4326 40.7273 38.2911C40.5858 38.1497 40.3939 38.0702 40.1938 38.0702C39.9938 38.0702 39.8019 38.1497 39.6604 38.2911C39.5189 38.4326 39.4395 38.6245 39.4395 38.8246V39.579C39.4395 39.7791 39.5189 39.9709 39.6604 40.1124C39.8019 40.2539 39.9938 40.3334 40.1938 40.3334C40.3939 40.3334 40.5858 40.2539 40.7273 40.1124C40.8688 39.9709 40.9482 39.7791 40.9482 39.579Z" fill="#A7D0E1"></path>
<path d="M37.1763 40.3334C37.3763 40.3334 37.5682 40.2539 37.7097 40.1124C37.8512 39.9709 37.9307 39.7791 37.9307 39.579V38.8246C37.9307 38.6245 37.8512 38.4326 37.7097 38.2911C37.5682 38.1497 37.3763 38.0702 37.1763 38.0702C36.9762 38.0702 36.7843 38.1497 36.6428 38.2911C36.5014 38.4326 36.4219 38.6245 36.4219 38.8246V39.579C36.4219 39.7791 36.5014 39.9709 36.6428 40.1124C36.7843 40.2539 36.9762 40.3334 37.1763 40.3334Z" fill="#A7D0E1"></path>
<path d="M34.9131 39.579V38.8246C34.9131 38.6245 34.8336 38.4326 34.6921 38.2911C34.5507 38.1497 34.3588 38.0702 34.1587 38.0702C33.9586 38.0702 33.7667 38.1497 33.6253 38.2911C33.4838 38.4326 33.4043 38.6245 33.4043 38.8246V39.579C33.4043 39.7791 33.4838 39.9709 33.6253 40.1124C33.7667 40.2539 33.9586 40.3334 34.1587 40.3334C34.3588 40.3334 34.5507 40.2539 34.6921 40.1124C34.8336 39.9709 34.9131 39.7791 34.9131 39.579Z" fill="#A7D0E1"></path>
<path d="M31.8955 39.579V38.8246C31.8955 38.6245 31.816 38.4326 31.6745 38.2911C31.5331 38.1497 31.3412 38.0702 31.1411 38.0702C30.941 38.0702 30.7492 38.1497 30.6077 38.2911C30.4662 38.4326 30.3867 38.6245 30.3867 38.8246V39.579C30.3867 39.7791 30.4662 39.9709 30.6077 40.1124C30.7492 40.2539 30.941 40.3334 31.1411 40.3334C31.3412 40.3334 31.5331 40.2539 31.6745 40.1124C31.816 39.9709 31.8955 39.7791 31.8955 39.579Z" fill="#A7D0E1"></path>
<path d="M28.8779 39.579V38.8246C28.8779 38.6245 28.7984 38.4326 28.657 38.2911C28.5155 38.1497 28.3236 38.0702 28.1235 38.0702C27.9235 38.0702 27.7316 38.1497 27.5901 38.2911C27.4486 38.4326 27.3691 38.6245 27.3691 38.8246V39.579C27.3691 39.7791 27.4486 39.9709 27.5901 40.1124C27.7316 40.2539 27.9235 40.3334 28.1235 40.3334C28.3236 40.3334 28.5155 40.2539 28.657 40.1124C28.7984 39.9709 28.8779 39.7791 28.8779 39.579Z" fill="#A7D0E1"></path>
<path d="M25.8603 39.579V38.8246C25.8603 38.6245 25.7809 38.4326 25.6394 38.2911C25.4979 38.1497 25.306 38.0702 25.106 38.0702C24.9059 38.0702 24.714 38.1497 24.5725 38.2911C24.431 38.4326 24.3516 38.6245 24.3516 38.8246V39.579C24.3516 39.7791 24.431 39.9709 24.5725 40.1124C24.714 40.2539 24.9059 40.3334 25.106 40.3334C25.306 40.3334 25.4979 40.2539 25.6394 40.1124C25.7809 39.9709 25.8603 39.7791 25.8603 39.579Z" fill="#A7D0E1"></path>
<path d="M22.8428 39.579V38.8246C22.8428 38.6245 22.7633 38.4326 22.6218 38.2911C22.4803 38.1497 22.2885 38.0702 22.0884 38.0702C21.8883 38.0702 21.6964 38.1497 21.5549 38.2911C21.4135 38.4326 21.334 38.6245 21.334 38.8246V39.579C21.334 39.7791 21.4135 39.9709 21.5549 40.1124C21.6964 40.2539 21.8883 40.3334 22.0884 40.3334C22.2885 40.3334 22.4803 40.2539 22.6218 40.1124C22.7633 39.9709 22.8428 39.7791 22.8428 39.579Z" fill="#A7D0E1"></path>
<path d="M19.8252 39.579V38.8246C19.8252 38.6245 19.7457 38.4326 19.6042 38.2911C19.4628 38.1497 19.2709 38.0702 19.0708 38.0702C18.8707 38.0702 18.6788 38.1497 18.5374 38.2911C18.3959 38.4326 18.3164 38.6245 18.3164 38.8246V39.579C18.3164 39.7791 18.3959 39.9709 18.5374 40.1124C18.6788 40.2539 18.8707 40.3334 19.0708 40.3334C19.2709 40.3334 19.4628 40.2539 19.6042 40.1124C19.7457 39.9709 19.8252 39.7791 19.8252 39.579Z" fill="#A7D0E1"></path>
<path d="M38.6851 37.3159H37.1763C36.9762 37.3159 36.7843 37.2364 36.6428 37.095C36.5014 36.9535 36.4219 36.7616 36.4219 36.5615C36.4219 36.3614 36.5014 36.1696 36.6428 36.0281C36.7843 35.8866 36.9762 35.8071 37.1763 35.8071H38.6851C38.8851 35.8071 39.077 35.8866 39.2185 36.0281C39.36 36.1696 39.4394 36.3614 39.4394 36.5615C39.4394 36.7616 39.36 36.9535 39.2185 37.095C39.077 37.2364 38.8851 37.3159 38.6851 37.3159Z" fill="white"></path>
<path d="M101.39 44.9335C95.7414 42.5105 83.1488 38.7306 73.9821 41.1859C73.334 41.3798 71.9451 41.8321 71.4821 42.0905C62.871 47.0335 53.9821 45.192 45.2784 43.4151C36.1118 41.509 27.0377 39.6352 18.2414 43.8351L18.1488 43.8674C12.0377 46.775 6.29695 44.8043 1.57473 43.3828C-2.86972 42.0259 -6.75861 40.8306 -12.4068 40.7337C-18.4253 40.669 -22.129 41.9936 -25.7401 43.3182C-31.3882 45.3858 -37.0364 47.4535 -54.3512 41.2506C-54.8142 41.0567 -55.6475 40.9921 -56.666 40.9921V50.2964C-27.2216 60.7315 -25.7401 49.8765 -12.5919 50.038C-1.01786 50.1995 7.59325 58.6639 21.297 52.6548C21.297 52.6225 21.3895 52.5902 21.3895 52.5579C28.1488 49.3919 35.6488 50.9103 43.334 52.4933C53.6118 54.6255 64.1673 56.8224 74.7229 50.7487C78.9821 48.6488 86.8525 50.1026 91.3895 51.3626C94.5377 52.2025 97.1303 53.1717 98.797 53.9471C99.1673 54.1086 100.278 54.3025 101.39 54.464V44.9335Z" fill="#77B5FE"></path>
<path d="M73.8898 49.6259C70.7828 47.2341 63.8557 43.4525 58.8133 45.9089C58.4567 46.0705 57.6927 46.5554 57.4381 46.8139C52.7012 51.7268 47.8115 49.9168 43.0237 48.1068C37.9812 46.1998 32.9897 44.3575 28.151 48.5593L28.1 48.5916C24.7384 51.4682 21.5805 49.5289 18.9828 48.0745C16.538 46.717 14.3988 45.5211 11.2918 45.4564C7.98108 45.3918 5.94372 46.717 3.95729 48.0421C0.850311 50.1107 -2.25667 52.1469 -11.7813 45.9736C-12.036 45.7796 -12.4944 45.715 -13.0547 45.6827V55.0235C3.14234 65.4633 3.95729 54.571 11.1899 54.765C17.5567 54.8943 22.2936 63.3624 29.8318 57.3507C29.8318 57.3184 29.8827 57.3184 29.8827 57.286C33.6009 54.0862 37.7266 55.6376 41.9541 57.2214C47.6078 59.3546 53.4143 61.5201 59.2207 55.476C61.5637 53.3752 65.8931 54.8296 68.3889 56.0578C70.1206 56.8982 71.5468 57.9001 72.4636 58.6435C72.6673 58.8375 73.2785 59.0314 73.8898 59.1607V49.6259Z" fill="#85BCFE"></path>
<path d="M8.43798 16.7718C8.10596 15.5836 8.51176 13.7642 10.4915 11.326C10.6022 11.1899 10.7867 11.1899 10.885 11.3136C16.5539 18.2446 9.44631 20.2496 8.43798 16.7718Z" fill="#85BCFE"></path>
<path d="M45.622 12.5641C45.4071 11.7415 45.6697 10.482 46.9508 8.79397C47.0224 8.69971 47.1417 8.69971 47.2054 8.7854C50.8734 13.5838 46.2744 14.9719 45.622 12.5641Z" fill="#85BCFE"></path>
<path d="M43.956 27.8419C43.7411 27.0194 44.0037 25.7598 45.2847 24.0718C45.3563 23.9775 45.4757 23.9775 45.5394 24.0632C49.2074 28.8616 44.6084 30.2497 43.956 27.8419Z" fill="#85BCFE"></path>
<path d="M17.0673 22.8419C16.8525 22.0194 17.115 20.7598 18.3961 19.0718C18.4677 18.9775 18.587 18.9775 18.6507 19.0632C22.3187 23.8616 17.7197 25.2497 17.0673 22.8419Z" fill="#85BCFE"></path>
<path d="M22.5673 11.1752C22.3525 10.3526 22.615 9.09305 23.8961 7.40505C23.9677 7.3108 24.087 7.3108 24.1507 7.39648C27.8187 12.1948 23.2197 13.5829 22.5673 11.1752Z" fill="#85BCFE"></path>
<path d="M30.1543 21.8896C29.6648 20.2134 30.2581 17.6176 33.121 14.1317C33.2397 13.9537 33.477 13.9685 33.5957 14.102H33.5808C41.7244 23.996 31.5783 26.8143 30.1543 21.8896Z" fill="#77B5FE"></path>
<path d="M35.4491 21.3259C35.4491 20.9402 34.8558 20.9402 34.8558 21.3259C34.8558 21.6522 34.7223 21.9489 34.4998 22.1565C34.1438 22.5125 33.595 22.6015 33.15 22.379C32.794 22.201 32.527 22.7351 32.883 22.9131C33.5653 23.2542 34.3811 23.1059 34.93 22.5719C34.93 22.5719 35.4491 22.1269 35.4491 21.3259Z" fill="#9CC9FE"></path>
</g>
<defs>
<clipPath id="clip0_2383_6962">
<rect x="5" y="4" width="50" height="50" rx="10.4167" fill="white"></rect>
</clipPath>
</defs>
</svg>