<svg width="60" height="60" viewBox="0 0 60 60" fill="none" xmlns="http://www.w3.org/2000/svg">
<path d="M55.919 26.7217C55.7769 25.4672 55.4507 24.3047 55.1747 23.184C54.79 22.0885 54.489 21.018 54.0123 20.0562C52.3062 16.1339 50.0565 13.2737 47.9323 11.1829C45.8164 9.06706 43.7674 7.74569 42.0697 6.80901C41.6432 6.58321 41.2334 6.37413 40.857 6.17342C40.464 5.99779 40.0876 5.85562 39.7447 5.70508C39.3935 5.56291 39.0757 5.43746 38.7663 5.31201C38.4568 5.21166 38.1641 5.13639 37.8965 5.05276C37.3529 4.90222 36.9096 4.76841 36.5166 4.68478C36.1235 4.62624 35.8057 4.58442 35.5464 4.55097C34.5094 4.42552 34.4174 4.51751 34.4007 4.6346C34.384 4.74332 34.4425 4.86877 35.4126 5.1782C35.6552 5.25347 35.9562 5.3371 36.3159 5.44582C36.6755 5.57963 37.102 5.73853 37.6038 5.92252C37.8547 6.01452 38.1223 6.11487 38.415 6.2236C38.6993 6.35741 39.0004 6.49958 39.3266 6.65848C39.6527 6.81738 40.004 6.96791 40.3636 7.1519C40.7149 7.36098 41.0912 7.57842 41.4926 7.81259C43.0733 8.76599 44.9884 10.079 46.9621 12.1363C48.9442 14.1686 51.0433 16.9201 52.624 20.65C53.0589 21.5616 53.3348 22.5819 53.6945 23.6106C53.937 24.6727 54.2464 25.7683 54.3635 26.9307C54.6729 29.2473 54.6479 31.8064 54.1042 34.4659C53.5857 37.1254 52.5822 39.9103 50.9597 42.5614C49.3707 45.2293 47.1294 47.7633 44.2525 49.7705C42.6718 50.8911 40.8403 51.7943 38.7412 52.4885C36.6587 53.2077 34.4091 53.8015 32.0172 54.044C27.2753 54.596 21.9563 53.8349 17.3483 51.2006C12.7569 48.5829 8.98511 44.2424 7.00305 39.1744C5.99111 36.6571 5.37224 33.9892 5.16316 31.313C4.94572 28.6452 5.1548 25.9773 5.66495 23.4433C6.20019 20.9009 6.96123 18.4672 8.23243 16.4015C9.47854 14.3191 11.0843 12.5629 12.7987 11.1244C14.5048 9.66085 16.3614 8.55691 18.1595 7.67042C19.9492 6.75884 21.7389 6.16505 23.3781 5.67999C26.6899 4.76841 29.4832 4.55933 31.4067 4.5426C33.3302 4.5426 34.3923 4.7015 34.4091 4.62624C34.4174 4.60115 34.1498 4.53424 33.648 4.45061C33.1462 4.33353 32.3935 4.30007 31.4151 4.21644C29.4748 4.13281 26.623 4.23317 23.2192 5.06948C21.5298 5.52109 19.6899 6.08142 17.825 6.97628C15.96 7.83768 14.0197 8.94162 12.2133 10.4219C10.4068 11.8854 8.6924 13.6919 7.33758 15.8663C7.02814 16.4266 6.69361 16.9786 6.40091 17.564C6.15001 18.1662 5.89075 18.7683 5.6315 19.3788C5.43078 20.006 5.23007 20.6333 5.02935 21.2605C4.84536 21.8961 4.70319 22.5484 4.53592 23.2008C3.95887 25.8268 3.71634 28.6034 3.90033 31.405C4.09268 34.1983 4.70319 37.0083 5.74022 39.6762C7.77246 45.0286 11.7199 49.6868 16.5956 52.5136C19.0376 53.9269 21.6887 54.8636 24.3482 55.357C27.0077 55.8588 29.6672 55.9006 32.1845 55.6414C34.7101 55.3905 37.0853 54.78 39.2597 54.0357C41.4425 53.3248 43.4914 52.3212 45.1724 51.1253C48.2751 48.9676 50.6586 46.2496 52.348 43.4061C54.0708 40.571 55.1245 37.6188 55.6765 34.7754C56.2536 31.9402 56.2703 29.2055 55.919 26.7217Z" fill="#FFE589"></path>
<path d="M49.9555 49.5781C48.2745 51.3176 46.468 52.2041 46.5433 52.3546C46.5767 52.4968 48.5839 51.811 50.3652 49.9712C52.155 48.1563 52.7989 46.1325 52.6567 46.099C52.4978 46.0321 51.6532 47.8553 49.9555 49.5781Z" fill="#FFE589"></path>
<path d="M50.2646 51.0416C49.5036 51.6187 48.7843 51.9616 48.8345 52.1205C48.868 52.271 49.7545 52.1539 50.6159 51.5016C51.4773 50.8577 51.8285 50.0297 51.6947 49.9628C51.5525 49.8708 51.034 50.4729 50.2646 51.0416Z" fill="#FFE589"></path>
<path d="M44.9121 12.8054C46.9444 14.8293 48.0734 16.8949 48.224 16.8113C48.3578 16.7611 47.4211 14.4947 45.3136 12.3956C43.2228 10.2797 40.9647 9.33467 40.9146 9.46848C40.8309 9.61902 42.8966 10.7648 44.9121 12.8054Z" fill="#FFE589"></path>
<g clip-path="url(#clip0_1266_1177)">
<path d="M25.0907 25.6349C23.285 25.6349 21.8164 27.3485 21.8164 29.4549C21.8164 31.5614 23.2849 33.275 25.0907 33.275C26.8966 33.275 28.3651 31.5614 28.3651 29.4549C28.3651 27.3485 26.8966 25.6349 25.0907 25.6349ZM25.6365 31.6378C24.7181 31.6378 23.9994 30.679 23.9994 29.4549C23.9994 28.2309 24.7181 27.272 25.6365 27.272C26.5549 27.272 27.2736 28.2309 27.2736 29.4549C27.2736 30.679 26.5549 31.6378 25.6365 31.6378Z" fill="white"></path>
<path d="M34.915 25.6349C33.1092 25.6349 31.6406 27.3485 31.6406 29.4549C31.6406 31.5614 33.1092 33.275 34.915 33.275C36.7207 33.275 38.1893 31.5614 38.1893 29.4549C38.1893 27.3485 36.7207 25.6349 34.915 25.6349ZM34.3692 31.6378C33.4508 31.6378 32.7321 30.679 32.7321 29.4549C32.7321 28.2309 33.4508 27.272 34.3692 27.272C35.2877 27.272 36.0064 28.2309 36.0064 29.4549C36.0064 30.679 35.2877 31.6378 34.3692 31.6378Z" fill="white"></path>
<path d="M25.6375 30.5464C25.9389 30.5464 26.1832 30.0577 26.1832 29.4549C26.1832 28.8521 25.9389 28.3635 25.6375 28.3635C25.3361 28.3635 25.0918 28.8521 25.0918 29.4549C25.0918 30.0577 25.3361 30.5464 25.6375 30.5464Z" fill="white"></path>
<path d="M34.368 30.5464C34.6693 30.5464 34.9137 30.0577 34.9137 29.4549C34.9137 28.8521 34.6693 28.3635 34.368 28.3635C34.0666 28.3635 33.8223 28.8521 33.8223 29.4549C33.8223 30.0577 34.0666 30.5464 34.368 30.5464Z" fill="white"></path>
<path fill-rule="evenodd" clip-rule="evenodd" d="M25.0977 36.5493C25.3705 38.2061 26.3801 40.9151 30.002 40.9151C33.624 40.9151 34.633 38.2067 34.9135 36.5925C33.3283 37.1141 31.6708 37.3828 30.002 37.3886C28.331 37.3944 26.6717 37.1104 25.0977 36.5493Z" fill="white"></path>
<path fill-rule="evenodd" clip-rule="evenodd" d="M27.7416 25.5612C28.8502 26.5496 29.4761 27.9698 29.4573 29.4549C29.4617 30.4144 29.2066 31.3572 28.7189 32.1835C29.5375 32.0274 30.2983 31.8528 31.0186 31.6585C30.708 30.9654 30.5478 30.2144 30.5487 29.4549C30.5487 26.747 32.5073 24.5434 34.9145 24.5434C36.5949 24.5907 38.0962 25.6057 38.7662 27.1476C38.9561 26.9292 39.1291 26.7186 39.2906 26.5184C39.3114 25.9317 39.2906 23.8198 38.059 22.4729C37.3157 21.7087 36.2943 21.2787 35.2283 21.281C34.0441 23.3319 31.6364 24.711 27.7416 25.5612Z" fill="url(#paint0_linear_1266_1177)"></path>
<path fill-rule="evenodd" clip-rule="evenodd" d="M42.9312 35.2074C41.1478 37.9622 37.6268 40.1019 32.4534 41.571C32.4501 41.571 32.4469 41.571 32.4436 41.571C32.0296 41.7308 31.5994 41.8445 31.1606 41.9099C31.1497 41.9132 31.142 41.9214 31.1306 41.9241C30.201 42.154 29.2249 42.3634 28.2022 42.5522H41.4633C43.2827 42.55 44.8481 41.265 45.2046 39.4808C45.5612 37.6968 44.61 35.9087 42.9312 35.2074Z" fill="url(#paint1_linear_1266_1177)"></path>
<path fill-rule="evenodd" clip-rule="evenodd" d="M24.0168 36.778C23.9472 36.3794 24.0943 35.9739 24.4032 35.7127C24.6991 35.4618 25.1072 35.3896 25.4712 35.5239C28.4043 36.555 31.6014 36.555 34.5345 35.5239C34.8982 35.3896 35.3061 35.4615 35.6019 35.7122C35.9109 35.9736 36.0582 36.3792 35.9888 36.778C35.8195 37.7925 35.4408 38.7606 34.8766 39.6207C38.4702 38.2416 40.9887 36.4184 42.2236 34.2726C42.791 33.3082 43.0933 32.211 43.1001 31.0922C43.1001 28.7969 40.8702 27.7043 40.0091 27.3687C39.7603 27.6732 39.4727 28.0045 39.1616 28.3368C39.2393 28.7045 39.2789 29.0792 39.28 29.455C39.28 32.1628 37.3214 34.3665 34.9143 34.3665C33.595 34.3456 32.3631 33.7028 31.5914 32.6327C30.27 32.9986 28.928 33.286 27.5727 33.4933C26.8673 34.055 25.9931 34.3627 25.0913 34.3664C24.5247 34.3654 23.965 34.2416 23.4508 34.0035C20.707 34.3102 18.1573 34.6524 16.9082 35.3831C15.4168 36.253 14.7227 37.3171 14.7227 38.7322C14.725 40.8371 16.428 42.5444 18.5329 42.5522C21.5492 42.3987 24.5539 42.0674 27.5312 41.5601C24.9822 40.5401 24.2308 38.0162 24.0168 36.778Z" fill="url(#paint2_linear_1266_1177)"></path>
<path fill-rule="evenodd" clip-rule="evenodd" d="M22.1357 33.0567C21.219 32.0827 20.7138 30.7924 20.7256 29.4549C20.7211 28.4838 20.9825 27.53 21.4814 26.6968C18.7713 27.4979 17.4512 28.9397 17.4512 31.092C17.4356 32.047 17.7834 32.9722 18.4242 33.6804C19.6485 33.4017 20.8877 33.1935 22.1357 33.0567Z" fill="url(#paint3_linear_1266_1177)"></path>
<path fill-rule="evenodd" clip-rule="evenodd" d="M22.8336 25.2594C23.496 24.7971 24.2835 24.5474 25.0912 24.5434C25.499 24.5444 25.9042 24.6094 26.2918 24.736C30.7214 23.9551 33.3862 22.5624 34.4285 20.4794C34.9917 19.3547 34.822 17.9145 33.9641 16.5246C32.8123 14.7028 30.9247 13.4725 28.7929 13.1542C29.1341 13.8582 29.2215 14.6585 29.0401 15.4195C28.783 16.3113 28.0698 16.9825 26.9205 17.4141C23.8448 18.5694 22.0816 19.9048 21.5315 21.4961C21.144 22.6143 21.3596 23.9235 22.1722 25.3921C22.3708 25.3478 22.5913 25.3041 22.8336 25.2594Z" fill="url(#paint4_linear_1266_1177)"></path>
</g>
<defs>
<linearGradient id="paint0_linear_1266_1177" x1="30.0009" y1="13.1542" x2="30.0009" y2="42.5522" gradientUnits="userSpaceOnUse">
<stop stop-color="#FF9736"></stop>
<stop offset="1" stop-color="#FF9F47"></stop>
</linearGradient>
<linearGradient id="paint1_linear_1266_1177" x1="30.0009" y1="13.1542" x2="30.0009" y2="42.5522" gradientUnits="userSpaceOnUse">
<stop stop-color="#FF9736"></stop>
<stop offset="1" stop-color="#FF9F47"></stop>
</linearGradient>
<linearGradient id="paint2_linear_1266_1177" x1="30.0009" y1="13.1542" x2="30.0009" y2="42.5522" gradientUnits="userSpaceOnUse">
<stop stop-color="#FF9736"></stop>
<stop offset="1" stop-color="#FF9F47"></stop>
</linearGradient>
<linearGradient id="paint3_linear_1266_1177" x1="30.0009" y1="13.1542" x2="30.0009" y2="42.5522" gradientUnits="userSpaceOnUse">
<stop stop-color="#FF9736"></stop>
<stop offset="1" stop-color="#FF9F47"></stop>
</linearGradient>
<linearGradient id="paint4_linear_1266_1177" x1="30.0009" y1="13.1542" x2="30.0009" y2="42.5522" gradientUnits="userSpaceOnUse">
<stop stop-color="#FF9736"></stop>
<stop offset="1" stop-color="#FF9F47"></stop>
</linearGradient>
<clipPath id="clip0_1266_1177">
<rect width="30.5562" height="30.5562" fill="white" transform="translate(14.7227 12.5751)"></rect>
</clipPath>
</defs>
</svg>