<svg viewBox="0 0 60 60" fill="none" xmlns="http://www.w3.org/2000/svg">
<path d="M48.875 31.7969C48.6721 31.7975 48.4777 31.8783 48.3343 32.0218C48.1908 32.1652 48.11 32.3596 48.1094 32.5625V38.3583H42.2983C41.8957 29.8323 32.1013 24.5614 24.7807 28.8034C23.0523 29.7613 21.5925 31.1383 20.5356 32.808C19.4787 34.4776 18.8586 36.3863 18.7323 38.3583H12.8906V32.5625C12.8873 32.3617 12.8051 32.1702 12.6619 32.0294C12.5187 31.8885 12.3258 31.8096 12.125 31.8096C11.9241 31.8096 11.7313 31.8885 11.5881 32.0294C11.4449 32.1702 11.3627 32.3617 11.3594 32.5625V39.124C11.36 39.3268 11.4408 39.5212 11.5843 39.6647C11.7277 39.8081 11.9221 39.889 12.125 39.8896H18.7323C18.9253 42.8834 20.2506 45.6916 22.4391 47.7437C24.6276 49.7957 27.5152 50.9377 30.5153 50.9377C33.5154 50.9377 36.403 49.7957 38.5915 47.7437C40.78 45.6916 42.1054 42.8834 42.2983 39.8896H48.875C49.0779 39.889 49.2723 39.8081 49.4157 39.6647C49.5592 39.5212 49.64 39.3268 49.6406 39.124V32.5625C49.64 32.3596 49.5592 32.1652 49.4157 32.0218C49.2723 31.8783 49.0779 31.7975 48.875 31.7969ZM31.2656 46.4432V47.5458C31.2619 47.7464 31.1796 47.9375 31.0364 48.0781C30.8932 48.2187 30.7006 48.2974 30.5 48.2974C30.2993 48.2974 30.1067 48.2186 29.9635 48.0781C29.8203 47.9375 29.7381 47.7463 29.7344 47.5457V46.4433H25.5847C25.3843 46.4393 25.1934 46.3568 25.0531 46.2137C24.9128 46.0705 24.8342 45.8781 24.8342 45.6776C24.8342 45.4772 24.9128 45.2847 25.0532 45.1416C25.1935 44.9985 25.3843 44.916 25.5847 44.912H26.4575C26.4204 44.897 26.5431 33.2465 26.4041 33.3434C26.2032 33.3401 26.0116 33.2581 25.8706 33.1148C25.7297 32.9716 25.6507 32.7788 25.6507 32.5778C25.6507 32.3769 25.7296 32.184 25.8706 32.0408C26.0115 31.8975 26.2031 31.8154 26.404 31.8122H29.7344V30.702C29.7375 30.501 29.8195 30.3093 29.9628 30.1683C30.106 30.0272 30.299 29.9482 30.5 29.9482C30.701 29.9482 30.894 30.0273 31.0372 30.1683C31.1805 30.3094 31.2625 30.5011 31.2656 30.7021V31.8122C35.584 31.208 38.0234 36.4861 34.4964 39.124C35.0171 39.4974 35.4414 39.9893 35.7343 40.5591C36.0272 41.1288 36.1803 41.7601 36.1809 42.4008C36.1498 45.0947 33.8385 46.721 31.2656 46.4432Z" fill="url(#paint0_linear_1266_1155)"></path>
<path d="M27.1541 19.3859C31.0192 22.063 36.7836 19.0195 36.6556 14.2181C36.6542 12.586 36.0052 11.0211 34.8511 9.867C33.697 8.71291 32.1322 8.06391 30.5 8.0625C24.361 8.08792 22.0785 16.108 27.1541 19.3859Z" fill="#FFDECF"></path>
<path d="M48.1636 20.0215C47.0595 21.0768 45.616 21.7049 44.0912 21.7933C42.5664 21.8818 41.0599 21.4247 39.8413 20.504C39.3271 20.0248 39.2249 19.9618 38.6699 20.4426C40.6836 22.3602 42.6633 25.0567 42.2759 27.9457H49.1359C49.5677 27.9447 49.993 27.8406 50.3765 27.6422C50.76 27.4438 51.0906 27.1568 51.3409 26.8049C52.9335 24.4247 50.075 21.224 48.1636 20.0215Z" fill="#2196F3"></path>
<path d="M48.6373 15.3666C48.4104 8.87178 39.034 8.87143 38.8066 15.3664C39.0197 21.8575 48.4229 21.8602 48.6373 15.3666Z" fill="#FFDECF"></path>
<path d="M20.2948 27.9458C20.4698 28.5493 20.8123 29.0908 21.2825 29.5077C22.1024 28.7077 23.027 28.0226 24.0311 27.4711C26.0127 26.3678 28.243 25.7881 30.5111 25.7867C32.7792 25.7854 35.0102 26.3625 36.9931 27.4634C37.9919 28.0165 38.9134 28.6987 39.734 29.4924C40.1976 29.0789 40.5347 28.5427 40.7064 27.9458C41.2847 24.8503 38.0307 21.3955 35.4772 20.0752C34.0916 21.2633 32.3259 21.9153 30.5006 21.9126C28.6757 21.9076 26.9109 21.2597 25.5162 20.0828C22.9699 21.3983 19.713 24.8557 20.2948 27.9458Z" fill="#2196F3"></path>
<path d="M18.7329 27.9457C18.3189 25.07 20.3217 22.3488 22.3315 20.4426C21.7534 19.93 21.6693 20.0438 21.1372 20.5115C19.9194 21.4285 18.4153 21.8827 16.8935 21.793C15.3718 21.7032 13.9315 21.0753 12.83 20.0215C10.9228 21.2226 8.06804 24.4289 9.66045 26.805C9.91076 27.1568 10.2414 27.4439 10.6249 27.6423C11.0084 27.8407 11.4337 27.9447 11.8655 27.9458L18.7329 27.9457Z" fill="#2196F3"></path>
<path d="M22.1939 15.3666C21.967 8.87184 12.5906 8.87138 12.3633 15.3664C12.5763 21.8575 21.9795 21.8602 22.1939 15.3666Z" fill="#FFDECF"></path>
<path d="M34.6492 35.847C34.6472 35.1823 34.3818 34.5455 33.911 34.0762C33.4403 33.6069 32.8027 33.3434 32.138 33.3434H27.9883V38.3583H32.138C32.8039 38.3579 33.4424 38.0932 33.9133 37.6223C34.3841 37.1515 34.6488 36.5129 34.6492 35.847Z" fill="url(#paint1_linear_1266_1155)"></path>
<path d="M32.138 39.8896H27.9883V44.9121H32.138C32.804 44.9121 33.4428 44.6475 33.9137 44.1765C34.3847 43.7056 34.6493 43.0668 34.6493 42.4008C34.6493 41.7348 34.3847 41.096 33.9137 40.6251C33.4428 40.1541 32.804 39.8896 32.138 39.8896Z" fill="url(#paint2_linear_1266_1155)"></path>
<defs>
<linearGradient id="paint0_linear_1266_1155" x1="30.5" y1="21.5838" x2="30.5" y2="50.9377" gradientUnits="userSpaceOnUse">
<stop stop-color="#FFAF37"></stop>
<stop offset="1" stop-color="#FFD53F"></stop>
</linearGradient>
<linearGradient id="paint1_linear_1266_1155" x1="31.3188" y1="32.129" x2="31.3188" y2="38.3583" gradientUnits="userSpaceOnUse">
<stop stop-color="#FFAF37"></stop>
<stop offset="1" stop-color="#FFD53F"></stop>
</linearGradient>
<linearGradient id="paint2_linear_1266_1155" x1="31.3188" y1="38.6733" x2="31.3188" y2="44.9121" gradientUnits="userSpaceOnUse">
<stop stop-color="#FFAF37"></stop>
<stop offset="1" stop-color="#FFD53F"></stop>
</linearGradient>
</defs>
</svg>