<svg viewBox="0 0 60 60" fill="none" xmlns="http://www.w3.org/2000/svg">
<path fill-rule="evenodd" clip-rule="evenodd" d="M16.6476 37.2821C15.8079 38.3296 14.3987 38.8391 13.0182 38.4691C11.6376 38.099 10.6726 36.9519 10.4648 35.6253C11.3074 34.5806 12.7165 34.0682 14.0971 34.4383C15.4776 34.8083 16.4426 35.9555 16.6476 37.2821Z" fill="#05E39C"></path>
<path fill-rule="evenodd" clip-rule="evenodd" d="M17.3574 37.2821C18.2 38.3296 19.609 38.8391 20.9896 38.4691C22.3703 38.099 23.3324 36.9519 23.5402 35.6253C22.6977 34.5806 21.2886 34.0682 19.908 34.4383C18.5274 34.8083 17.5624 35.9555 17.3574 37.2821Z" fill="#05E39C"></path>
<path fill-rule="evenodd" clip-rule="evenodd" d="M16.6476 37.2819C15.8079 38.3295 14.3987 38.839 13.0182 38.4689C11.6376 38.0989 10.6726 36.9518 10.4648 35.6252C10.5019 35.5825 10.536 35.5398 10.573 35.4971C10.9117 36.6157 11.8055 37.5409 13.0182 37.8654C14.339 38.2213 15.6883 37.7658 16.5394 36.8065C16.5878 36.9631 16.6219 37.1196 16.6476 37.2819Z" fill="#0ED290"></path>
<path fill-rule="evenodd" clip-rule="evenodd" d="M17.3574 37.2819C18.2 38.3295 19.609 38.839 20.9896 38.4689C22.3703 38.0989 23.3324 36.9518 23.5402 35.6252C23.5061 35.5825 23.4691 35.5398 23.4321 35.4971C23.0934 36.6157 22.2024 37.5409 20.9897 37.8654C19.6661 38.2213 18.3168 37.7658 17.4657 36.8065C17.4201 36.9631 17.3831 37.1196 17.3574 37.2819Z" fill="#0ED290"></path>
<path fill-rule="evenodd" clip-rule="evenodd" d="M16.9675 33.0919C15.3449 32.3773 14.2148 30.7548 14.2148 28.8704C14.2148 26.986 15.3449 25.3662 16.9675 24.6489C18.5871 25.3662 19.7173 26.986 19.7173 28.8704C19.7173 30.7548 18.5872 32.3773 16.9675 33.0919Z" fill="#05E39C"></path>
<path fill-rule="evenodd" clip-rule="evenodd" d="M16.9675 33.0919C15.3449 32.3773 14.2148 30.7548 14.2148 28.8704C14.2148 26.986 15.3449 25.3662 16.9675 24.6489C17.0899 24.703 17.2094 24.7628 17.329 24.8283C15.9029 25.6139 14.9379 27.1283 14.9379 28.8704C14.9379 30.6125 15.9029 32.1269 17.329 32.9125C17.2095 32.978 17.0899 33.0378 16.9675 33.0919Z" fill="#0ED290"></path>
<path fill-rule="evenodd" clip-rule="evenodd" d="M46.4158 13.1829L41.3574 20.1399H44.6025V28.839H48.2291V20.1399H51.4742L46.4158 13.1829Z" fill="#05E39C"></path>
<path fill-rule="evenodd" clip-rule="evenodd" d="M46.4158 13.1829L41.3574 20.1399H44.6025V28.839H46.4158V13.1829Z" fill="#0ED290"></path>
<path fill-rule="evenodd" clip-rule="evenodd" d="M29.6053 22.995L24.5469 29.952H27.792V38.6513H31.4186V29.952H34.6637L29.6053 22.995Z" fill="#05E39C"></path>
<path fill-rule="evenodd" clip-rule="evenodd" d="M29.6053 22.995L24.5469 29.952H27.792V38.6513H29.6053V22.995Z" fill="#0ED290"></path>
<path fill-rule="evenodd" clip-rule="evenodd" d="M38.3848 42.9325H54.4452C55.2735 42.9325 55.9511 43.61 55.9511 44.4384V46.3114C55.9511 47.1397 55.2736 47.8173 54.4452 47.8173H38.3848C37.5565 47.8173 36.8789 47.1398 36.8789 46.3114V44.4384C36.879 43.61 37.5565 42.9325 38.3848 42.9325Z" fill="#FAC149"></path>
<path fill-rule="evenodd" clip-rule="evenodd" d="M38.3848 38.0477H54.4452C55.2735 38.0477 55.9511 38.7281 55.9511 39.5535V41.4266C55.9511 42.2549 55.2736 42.9324 54.4452 42.9324H38.3848C37.5565 42.9324 36.8789 42.2549 36.8789 41.4266V39.5535C36.879 38.7281 37.5565 38.0477 38.3848 38.0477Z" fill="#FEA613"></path>
<path fill-rule="evenodd" clip-rule="evenodd" d="M38.3848 33.1658H54.4452C55.2735 33.1658 55.9511 33.8433 55.9511 34.6716V36.5418C55.9511 37.3701 55.2736 38.0476 54.4452 38.0476H38.3848C37.5565 38.0476 36.8789 37.3701 36.8789 36.5418V34.6717C36.879 33.8433 37.5565 33.1658 38.3848 33.1658Z" fill="#FAC149"></path>
<path fill-rule="evenodd" clip-rule="evenodd" d="M25.2656 42.9325H41.326C42.1544 42.9325 42.8319 43.61 42.8319 44.4384V46.3114C42.8319 47.1397 42.1544 47.8173 41.326 47.8173H25.2656C24.4372 47.8173 23.7598 47.1398 23.7598 46.3114V44.4384C23.7597 43.61 24.4372 42.9325 25.2656 42.9325Z" fill="#FEA613"></path>
<path fill-rule="evenodd" clip-rule="evenodd" d="M25.2656 38.0477H41.326C42.1544 38.0477 42.8319 38.7281 42.8319 39.5535V41.4266C42.8319 42.2549 42.1544 42.9324 41.326 42.9324H25.2656C24.4372 42.9324 23.7598 42.2549 23.7598 41.4266V39.5535C23.7597 38.7281 24.4372 38.0477 25.2656 38.0477Z" fill="#FAC149"></path>
<path fill-rule="evenodd" clip-rule="evenodd" d="M38.3848 28.2811H54.4452C55.2735 28.2811 55.9511 28.9586 55.9511 29.787V31.66C55.9511 32.4883 55.2736 33.1659 54.4452 33.1659H38.3848C37.5565 33.1659 36.8789 32.4884 36.8789 31.66V29.787C36.879 28.9586 37.5565 28.2811 38.3848 28.2811Z" fill="#FEA613"></path>
<path fill-rule="evenodd" clip-rule="evenodd" d="M25.2656 38.0477H26.8426C26.0141 38.0477 25.3367 38.7252 25.3367 39.5535V41.4266C25.3367 42.2549 26.0141 42.9324 26.8426 42.9324H25.2656C24.4372 42.9324 23.7598 42.2549 23.7598 41.4266V39.5535C23.7597 38.7252 24.4372 38.0477 25.2656 38.0477Z" fill="#FEA613"></path>
<path fill-rule="evenodd" clip-rule="evenodd" d="M25.2656 42.9325H26.8426C26.0141 42.9325 25.3367 43.61 25.3367 44.4384V46.3114C25.3367 47.1397 26.0141 47.8173 26.8426 47.8173H25.2656C24.4372 47.8173 23.7598 47.1398 23.7598 46.3114V44.4384C23.7597 43.61 24.4372 42.9325 25.2656 42.9325Z" fill="#ED9A09"></path>
<path fill-rule="evenodd" clip-rule="evenodd" d="M38.3848 33.1658H39.9618C39.1335 33.1658 38.4559 33.8433 38.4559 34.6716V36.5418C38.4559 37.3701 39.1334 38.0476 39.9618 38.0476H38.3848C37.5565 38.0476 36.8789 37.3701 36.8789 36.5418V34.6717C36.879 33.8433 37.5565 33.1658 38.3848 33.1658Z" fill="#FEA613"></path>
<path fill-rule="evenodd" clip-rule="evenodd" d="M38.3848 28.2811H39.9618C39.1335 28.2811 38.4559 28.9586 38.4559 29.787V31.66C38.4559 32.4883 39.1334 33.1659 39.9618 33.1659H38.3848C37.5565 33.1659 36.8789 32.4884 36.8789 31.66V29.787C36.879 28.9586 37.5565 28.2811 38.3848 28.2811Z" fill="#ED9A09"></path>
<path d="M16.9668 44.0967C16.5784 44.0967 16.2637 43.782 16.2637 43.3936V32.4513C16.2637 32.0629 16.5784 31.7482 16.9668 31.7482C17.3552 31.7482 17.6699 32.0629 17.6699 32.4513V43.3936C17.67 43.782 17.3552 44.0967 16.9668 44.0967Z" fill="#0ED290"></path>
<path fill-rule="evenodd" clip-rule="evenodd" d="M7.04688 47.8171C7.78695 46.3056 9.71412 45.2267 11.9771 45.2211C12.6603 43.3736 14.6501 42.0386 17.0042 42.0386C19.3554 42.0386 21.3481 43.3736 22.0284 45.2211C24.2943 45.2268 26.2215 46.3056 26.9587 47.8171H7.04688Z" fill="#08C284"></path>
</svg>