<svg width="60" height="60" viewBox="0 0 60 60" fill="none" xmlns="http://www.w3.org/2000/svg">
<g clip-path="url(#clip0_1266_991)">
<path d="M39.6313 23.9234C42.6584 26.0862 46.3669 27.3588 50.3721 27.3588V19.6556C49.614 19.6558 48.858 19.5767 48.1164 19.4197V25.4832C44.1115 25.4832 40.4035 24.2108 37.3758 22.0481V37.7681C37.3758 45.6322 30.9974 52.0067 23.1299 52.0067C20.1943 52.0067 17.4658 51.1197 15.1992 49.5984C17.7862 52.2422 21.3938 53.8822 25.3849 53.8822C33.2531 53.8822 39.6316 47.5077 39.6316 39.6433V23.9234H39.6313ZM42.414 16.1519C40.8669 14.4626 39.851 12.2796 39.6313 9.86603V8.87531H37.4938C38.0318 11.9428 39.8673 14.5634 42.414 16.1519ZM20.1754 43.5639C19.3111 42.4313 18.8438 41.0455 18.8459 39.6208C18.8459 36.0241 21.7633 33.1079 25.3627 33.1079C26.0334 33.1075 26.7001 33.2105 27.3395 33.413V25.5376C26.5923 25.4353 25.8384 25.3918 25.0848 25.4078V31.5376C24.4451 31.3348 23.7781 31.232 23.1071 31.2326C19.5078 31.2326 16.5906 34.1485 16.5906 37.7456C16.5906 40.2891 18.0487 42.4912 20.1754 43.5639Z" fill="#FF004F"></path>
<path d="M37.3754 22.0479C40.4033 24.2106 44.111 25.483 48.116 25.483V19.4195C45.8804 18.9435 43.9014 17.776 42.4134 16.1519C39.8665 14.5633 38.0314 11.9426 37.4934 8.87531H31.8788V39.643C31.866 43.2299 28.9536 46.1342 25.362 46.1342C23.2457 46.1342 21.3654 45.1259 20.1747 43.5637C18.0483 42.4912 16.59 40.289 16.59 37.7458C16.59 34.149 19.5073 31.2327 23.1065 31.2327C23.7961 31.2327 24.4607 31.34 25.0842 31.5377V25.408C17.3548 25.5676 11.1387 31.8799 11.1387 39.6431C11.1387 43.5185 12.6866 47.0317 15.199 49.5987C17.4655 51.1197 20.194 52.007 23.1297 52.007C30.9973 52.007 37.3755 45.6321 37.3755 37.7681L37.3754 22.0479Z" fill="black"></path>
<path d="M48.1157 19.4193V17.7802C46.0997 17.7832 44.1235 17.219 42.4131 16.1519C43.9272 17.8086 45.9208 18.951 48.1157 19.4197M37.4928 8.87514C37.4416 8.58205 37.4022 8.28701 37.3749 7.99073V7H29.6225V37.768C29.6101 41.3546 26.6978 44.2588 23.106 44.2588C22.0877 44.2604 21.0834 44.0224 20.1742 43.5641C21.3649 45.1259 23.2452 46.134 25.3615 46.134C28.9529 46.134 31.8656 43.23 31.8783 39.6431V8.8753L37.4928 8.87514ZM25.0842 25.4078V23.6625C24.4364 23.5739 23.7833 23.5296 23.1295 23.5299C15.261 23.5299 8.88281 29.9047 8.88281 37.768C8.88281 42.698 11.3895 47.0427 15.1988 49.5984C12.6864 47.0315 11.1385 43.5182 11.1385 39.643C11.1385 31.8799 17.3545 25.5674 25.0842 25.4078Z" fill="#00F2EA"></path>
</g>
<defs>
<clipPath id="clip0_1266_991">
<rect width="41.4897" height="47" fill="white" transform="translate(8.88281 7)"></rect>
</clipPath>
</defs>
</svg>