<svg width="86" height="86" viewBox="0 0 86 86" fill="none" xmlns="http://www.w3.org/2000/svg">
<g id="Token 2049">
<g id="Group 41">
<g id="DUBAI">
<path d="M4.31445 58.2278V40.9765H10.9733C13.7221 40.9765 15.9772 41.715 17.7387 43.1921C19.5081 44.6692 20.3928 46.6756 20.3928 49.2111V49.9931C20.3928 52.5287 19.5081 54.535 17.7387 56.0121C15.9772 57.4892 13.7221 58.2278 10.9733 58.2278H4.31445ZM8.31922 55.9766H10.9496C12.5925 55.9766 13.8919 55.4513 14.8477 54.4007C15.8035 53.3502 16.2814 51.877 16.2814 49.9813V49.2348C16.2814 47.3312 15.8035 45.8541 14.8477 44.8035C13.8919 43.753 12.5925 43.2277 10.9496 43.2277H8.31922V55.9766Z" fill="white"></path>
<path d="M23.9354 51.8652V40.9765H27.952V51.9837C27.952 53.4134 28.2838 54.4837 28.9473 55.1946C29.6108 55.8976 30.5508 56.2491 31.7672 56.2491C32.9758 56.2491 33.9197 55.8976 34.599 55.1946C35.2783 54.4837 35.618 53.3976 35.618 51.9363V40.9765H38.5208V51.8652C38.5208 54.1322 37.8297 55.8186 36.4474 56.9245C35.0729 58.0303 33.347 58.5832 31.2696 58.5832C29.1843 58.5832 27.4426 58.0303 26.0445 56.9245C24.6463 55.8186 23.9433 54.1322 23.9354 51.8652Z" fill="white"></path>
<path d="M42.9166 58.2278V40.9765H50.1204C52.3637 40.9765 54.1213 41.3398 55.393 42.0665C56.6726 42.7933 57.3124 43.9425 57.3124 45.5144C57.3124 46.4702 57.0715 47.2562 56.5897 47.8723C56.1078 48.4884 55.5036 48.9031 54.7769 49.1164V49.1637C55.6773 49.3849 56.4119 49.851 56.9807 50.5619C57.5494 51.2649 57.8338 52.1772 57.8338 53.2988C57.8338 54.8707 57.1623 56.0872 55.8195 56.9482C54.4846 57.8012 52.7152 58.2278 50.5114 58.2278H42.9166ZM46.9095 56.0714H50.464C51.6252 56.0714 52.4743 55.8147 53.0115 55.3012C53.5565 54.7878 53.829 54.0808 53.829 53.1804C53.829 52.2799 53.5565 51.5769 53.0115 51.0713C52.4743 50.5579 51.6252 50.3012 50.464 50.3012H46.9095V56.0714ZM46.9095 48.2159H50.073C51.2263 48.2159 52.0557 47.9947 52.5612 47.5524C53.0667 47.1021 53.3195 46.4702 53.3195 45.6566C53.3195 44.843 53.0667 44.223 52.5612 43.7964C52.0557 43.362 51.2263 43.1448 50.073 43.1448H46.9095V48.2159Z" fill="white"></path>
<path d="M59.0186 58.2278L65.4167 40.8936H69.5637L76.104 58.2278H71.7556L67.5376 45.9884C67.4033 45.625 67.273 45.2577 67.1466 44.8865C67.0281 44.5152 66.9333 44.1677 66.8622 43.8438H66.7319C66.6608 44.1756 66.5621 44.531 66.4357 44.9102C66.3172 45.2814 66.1908 45.6408 66.0566 45.9884L61.8622 58.2278H59.0186ZM62.0162 54.0808L62.7508 51.8178L71.5779 51.8296L72.3125 54.0808H62.0162Z" fill="white"></path>
<path d="M78.3552 58.2278V40.9765H82.36V58.2278H78.3552Z" fill="white"></path>
</g>
<path id="Subtract" fill-rule="evenodd" clip-rule="evenodd" d="M12.3109 32.153V31.7578C12.3109 30.3686 12.7301 29.2988 13.5684 28.5483C14.4066 27.7939 15.4944 27.4166 16.8317 27.4166C18.169 27.4166 19.2587 27.7939 20.101 28.5483C20.9433 29.2988 21.3644 30.3686 21.3644 31.7578V32.153C21.3644 33.5421 20.9433 34.6139 20.101 35.3684C19.2587 36.1189 18.169 36.4941 16.8317 36.4941C15.4944 36.4941 14.4066 36.1189 13.5684 35.3684C12.7301 34.6139 12.3109 33.5421 12.3109 32.153ZM14.3887 32.1649C14.3887 33.1829 14.6082 33.9633 15.0473 34.5062C15.4864 35.0451 16.0812 35.3145 16.8317 35.3145C17.5862 35.3145 18.1829 35.0451 18.622 34.5062C19.0611 33.9633 19.2807 33.1829 19.2807 32.1649V31.7398C19.2807 30.7259 19.0611 29.9495 18.622 29.4106C18.1829 28.8677 17.5862 28.5962 16.8317 28.5962C16.0772 28.5962 15.4805 28.8677 15.0413 29.4106C14.6062 29.9495 14.3887 30.7259 14.3887 31.7398V32.1649ZM3.64062 28.7459V27.5963H11.3649V28.7459H8.51467V36.3145H6.49081V28.7459H3.64062ZM23.2566 27.5963V36.3145H25.2804V33.6379L26.0219 32.8412L28.6216 36.3145H31.1784L27.3682 31.3945L30.903 27.5963H29.2144L25.2864 31.9733V27.5963H23.2566ZM32.1544 28.7391V27.5963H38.8727V28.7399H34.3291V28.7391H32.1544ZM32.1544 31.2474V36.3145H38.9445V35.1708H34.1723V32.3925H38.2619V31.2488H34.1723V31.2474H32.1544ZM40.5732 27.5963V36.3145H41.9265V31.0811C41.9265 30.9255 41.9185 30.7518 41.9025 30.5602C41.8865 30.3686 41.8646 30.2029 41.8366 30.0632H41.9265C41.9704 30.191 42.0283 30.3327 42.1001 30.4884C42.1759 30.644 42.2618 30.8077 42.3576 30.9794L45.7287 36.3145H47.6208V27.5963H46.2856V32.632C46.2856 32.7837 46.2935 32.9853 46.3095 33.2367C46.3255 33.4842 46.3454 33.6778 46.3694 33.8176H46.2975C46.2377 33.6898 46.1618 33.5262 46.07 33.3266C45.9782 33.127 45.8804 32.9374 45.7766 32.7577L42.5552 27.5963H40.5732ZM52.4638 36.3145V35.4702L56.272 31.9134C56.6472 31.5462 56.9626 31.1969 57.2181 30.8656C57.4775 30.5343 57.6073 30.175 57.6073 29.7878C57.6073 29.3607 57.4556 29.0134 57.1522 28.7459C56.8528 28.4785 56.4377 28.3447 55.9067 28.3447C55.3479 28.3447 54.8968 28.4924 54.5535 28.7878C54.2142 29.0832 54.0445 29.5203 54.0445 30.0991V30.2429H52.3919V30.0991C52.3919 29.2928 52.7173 28.6441 53.3679 28.1531C54.0226 27.6621 54.8669 27.4166 55.9008 27.4166C56.9227 27.4166 57.737 27.6402 58.3438 28.0873C58.9545 28.5304 59.2599 29.0772 59.2599 29.7279C59.2599 30.2429 59.1062 30.7079 58.7988 31.1231C58.4915 31.5342 58.0663 32.0013 57.5234 32.5242L54.799 35.3564H59.4276V36.3145H52.4638ZM59.7988 30.5542V33.3505C59.7988 34.3125 60.1042 35.077 60.7149 35.6438C61.3257 36.2107 62.174 36.4941 63.2597 36.4941C64.3375 36.4941 65.1838 36.2107 65.7986 35.6438C66.4133 35.077 66.7207 34.3125 66.7207 33.3505V30.5542C66.7207 29.5962 66.4133 28.8337 65.7986 28.2669C65.1838 27.7 64.3375 27.4166 63.2597 27.4166C62.174 27.4166 61.3257 27.7 60.7149 28.2669C60.1042 28.8337 59.7988 29.5962 59.7988 30.5542ZM61.8945 34.9732C61.6031 34.574 61.4574 34.0511 61.4574 33.4044V30.5003C61.4574 29.8656 61.6031 29.3487 61.8945 28.9495C62.1899 28.5463 62.645 28.3447 63.2597 28.3447C63.8705 28.3447 64.3236 28.5463 64.619 28.9495C64.9144 29.3487 65.0621 29.8656 65.0621 30.5003V33.4044C65.0621 34.0511 64.9144 34.574 64.619 34.9732C64.3236 35.3684 63.8705 35.566 63.2597 35.566C62.645 35.566 62.1899 35.3684 61.8945 34.9732ZM71.4091 36.3145V34.6439H67.2596V33.4164L71.6306 27.5963H73.0438V33.2966H74.3251V34.6439H73.0438V36.3145H71.4091ZM71.4091 29.662V33.2966H68.505L71.3372 29.662H71.4091ZM75.2532 28.225C74.5786 28.7639 74.2413 29.4664 74.2413 30.3327C74.2413 31.1869 74.5407 31.8775 75.1395 32.4044C75.7422 32.9314 76.5366 33.1948 77.5226 33.1948C78.4487 33.1948 79.1932 32.9314 79.7561 32.4044C79.8138 32.3504 79.8686 32.2946 79.9204 32.2371C79.8105 33.3761 79.4284 34.2262 78.7741 34.7876C77.9877 35.4622 76.9338 35.7995 75.6125 35.7995H75.4808V36.7276H75.6005C77.5007 36.7276 78.9756 36.2626 80.0255 35.3325C81.0794 34.4024 81.6063 33.109 81.6063 31.4524V31.2728C81.6063 29.9275 81.237 28.9495 80.4985 28.3387C79.76 27.724 78.8679 27.4166 77.822 27.4166C76.7841 27.4166 75.9279 27.6861 75.2532 28.225ZM79.9406 30.7694C79.89 29.9512 79.6927 29.3565 79.3489 28.9854C78.9497 28.5463 78.4407 28.3268 77.822 28.3268C77.2113 28.3268 76.7362 28.5044 76.3969 28.8597C76.0616 29.211 75.8939 29.702 75.8939 30.3327C75.8939 30.9514 76.0636 31.4324 76.4029 31.7757C76.7422 32.115 77.2152 32.2847 77.822 32.2847C78.3968 32.2847 78.8998 32.109 79.3309 31.7578C79.6543 31.4967 79.8575 31.1672 79.9406 30.7694Z" fill="white"></path>
</g>
</g>
</svg>