<svg viewBox="0 0 70 70" fill="none" xmlns="http://www.w3.org/2000/svg">
<g clip-path="url(#clip0_2534_16760)">
<path d="M35 63C50.464 63 63 50.464 63 35C63 19.536 50.464 7 35 7C19.536 7 7 19.536 7 35C7 50.464 19.536 63 35 63Z" fill="#0088CC"></path>
<path fill-rule="evenodd" clip-rule="evenodd" d="M27.2002 25.5H42.9002C43.5002 25.5 44.0002 25.6 44.6002 25.9C45.3002 26.2 45.7002 26.7 45.9002 27.1C45.9002 27.1 45.9002 27.2 46.0002 27.2C46.3002 27.7 46.5002 28.3 46.5002 29C46.5002 29.6 46.4002 30.2 46.0002 30.8L36.1002 47.8C35.9002 48.2 35.5002 48.4 35.0002 48.4C34.6002 48.4 34.2002 48.2 33.9002 47.8L24.2002 30.8C24.0002 30.4 23.6002 29.9 23.6002 29.1C23.5002 28.4 23.7002 27.8 24.0002 27.2C24.3002 26.6 24.8002 26.1 25.5002 25.9C26.1002 25.5 26.8002 25.5 27.2002 25.5ZM33.8002 27.9H27.2002C26.8002 27.9 26.6002 27.9 26.5002 28C26.3002 28.1 26.2002 28.2 26.1002 28.4C26.0002 28.5 26.0002 28.7 26.0002 28.9C26.0002 29 26.1002 29.1 26.3002 29.5L33.8002 42.5V27.9ZM36.2002 27.9V42.6L43.8002 29.5C43.9002 29.3 43.9002 29.1 43.9002 28.9C43.9002 28.7 43.9002 28.5 43.8002 28.4C43.7002 28.3 43.7002 28.2 43.6002 28.2L43.5002 28.1C43.3002 28 43.1002 28 42.8002 28H36.2002V27.9Z" fill="white"></path>
</g>
<defs>
<clipPath id="clip0_2534_16760">
<rect width="56" height="56" fill="white" transform="translate(7 7)"></rect>
</clipPath>
</defs>
</svg>