<svg width="60" height="60" viewBox="0 0 60 60" fill="none" xmlns="http://www.w3.org/2000/svg">
<path d="M51.4301 28.6281C50.8723 34.9134 47.5501 40.3926 42.6904 43.8513C39.0459 42.8471 31.3599 43.4176 30.0831 42.3266C28.893 41.3224 27.9012 45.0538 28.4714 47.6573C18.4302 46.7027 10.4589 38.6821 9.56641 28.6282C9.77739 26.1736 10.422 23.8309 11.4135 21.6986C14.7361 14.496 22.0377 9.48773 30.5047 9.48773C38.9593 9.48773 46.2609 14.496 49.5831 21.6986C50.5748 23.8307 51.2194 26.1736 51.4301 28.6281Z" fill="#419AE8"></path>
<path d="M51.5176 30.5C51.5176 36.5619 48.9514 42.029 44.8357 45.8722C41.0797 49.3679 36.0466 51.5125 30.5053 51.5125C29.2656 51.5125 28.0383 51.401 26.8605 51.1904C16.9806 49.4795 9.48047 40.8638 9.48047 30.5C9.48047 29.8678 9.505 29.2356 9.56704 28.6281C10.4596 38.6819 18.4308 46.7026 28.4721 47.6572C29.1415 47.7189 29.8234 47.7564 30.5053 47.7564C35.0548 47.7564 39.2571 46.3181 42.6911 43.8513C47.5508 40.3926 50.873 34.9133 51.4308 28.6281C51.4928 29.2356 51.5176 29.8678 51.5176 30.5Z" fill="#3376BF"></path>
<path d="M49.5835 21.6986C48.7034 23.5333 47.0177 25.2562 44.5135 26.6942C44.0919 26.9423 43.6579 27.1778 43.1993 27.3885C40.3852 28.7523 37.0754 29.5951 33.6415 29.9051H33.6291C28.0878 30.4133 22.2363 29.5579 17.6992 27.3268C17.2776 27.1406 16.8812 26.9176 16.4844 26.6942C13.9803 25.2562 12.2942 23.5333 11.4141 21.6986C13.3728 17.4339 16.7323 13.9507 20.8977 11.8061C23.7859 10.3182 27.0464 9.48773 30.5051 9.48773C30.815 9.48773 31.125 9.50016 31.4348 9.51259C31.7323 9.52502 32.0174 9.53745 32.3025 9.57463C32.3398 9.5622 32.3894 9.57463 32.4266 9.58706C32.6372 9.59916 32.8479 9.61192 33.0585 9.64877C33.4925 9.69838 33.9266 9.76053 34.3479 9.84732C34.5836 9.88461 34.8315 9.93389 35.0669 9.9835C35.129 9.99593 35.191 10.0208 35.2655 10.0331C35.5257 10.0952 35.786 10.1572 36.0464 10.2317C36.3562 10.3181 36.6662 10.405 36.9761 10.5044C37.0874 10.5416 37.1992 10.5785 37.3108 10.6158C37.5586 10.7027 37.8066 10.7895 38.042 10.8885C38.0916 10.9012 38.1289 10.9133 38.1661 10.9381C38.4884 11.0622 38.8107 11.1983 39.1205 11.3349C39.7032 11.5951 40.2733 11.8802 40.8311 12.2025C41.1163 12.3638 41.4016 12.5249 41.6743 12.7111C41.8849 12.8472 42.108 12.9838 42.3189 13.1324C42.7898 13.4547 43.261 13.8018 43.7072 14.1613C43.9675 14.372 44.2154 14.5826 44.4511 14.806C44.5997 14.9301 44.7487 15.0663 44.8849 15.2025C45.0834 15.3761 45.2693 15.562 45.443 15.7482C45.6288 15.934 45.8147 16.1322 45.9884 16.3183C47.4637 17.905 48.6661 19.715 49.5835 21.6986Z" fill="#69C3FA"></path>
<path d="M33.6297 29.9051C28.5345 32.9174 31.6089 31.7149 29.0303 33.2152C26.4644 34.7024 24.7908 36.1779 26.1297 38.1984C27.4686 40.2068 27.6917 42.3266 26.1297 40.6532C24.5677 38.9795 19.7576 41.2106 18.5307 39.2025C17.291 37.1944 17.8488 34.2811 17.0677 30.5124C16.7826 29.1237 17.0552 28.1572 17.6999 27.3267C22.2369 29.5579 28.0884 30.4132 33.6297 29.9051Z" fill="#6FD450"></path>
<path d="M41.9969 20.1489C43.1248 22.4421 38.7612 26.9051 33.6415 29.9051H33.6291C28.0877 30.4133 22.2363 29.5579 17.6992 27.3268C18.7779 25.9134 20.8853 24.8719 22.9926 22.7273C25.9553 19.7274 24.7404 20.4838 22.7199 18.2027C22.4473 17.9052 22.1621 17.5457 21.877 17.124C20.2158 14.6819 19.9058 14.0621 20.315 13.0083C20.4389 12.6739 20.6374 12.3019 20.8977 11.8061C23.7858 10.3182 27.0464 9.48773 30.5051 9.48773C30.815 9.48773 31.1249 9.50016 31.4348 9.51259C31.7322 9.52502 32.0174 9.53745 32.3025 9.57463C32.3398 9.5622 32.3894 9.57463 32.4266 9.58706C32.6372 9.59916 32.8479 9.61192 33.0585 9.64877C33.4925 9.69838 33.9265 9.76053 34.3478 9.84732C34.5836 9.88461 34.8315 9.93389 35.0669 9.9835C35.1289 9.99593 35.191 10.0208 35.2654 10.0331C35.5257 10.0952 35.786 10.1572 36.0463 10.2317C36.3562 10.3181 36.6662 10.405 36.9761 10.5044C37.0874 10.5416 37.1991 10.5785 37.3108 10.6158C37.5586 10.7027 37.8066 10.7895 38.042 10.8885C38.0916 10.9012 38.1289 10.9133 38.166 10.9381C38.4883 11.0622 38.8106 11.1983 39.1205 11.3349C39.7032 11.5951 40.2733 11.8802 40.8311 12.2025C41.1162 12.3638 41.4016 12.5249 41.6743 12.7111C41.8849 12.8472 42.108 12.9838 42.3189 13.1324C42.7898 13.4547 43.261 13.8018 43.7072 14.1613C43.9674 14.372 44.2154 14.5826 44.4511 14.806C44.5997 14.9301 44.7487 15.0663 44.8848 15.2025C45.0834 15.3761 45.2693 15.562 45.443 15.7482C45.6288 15.934 45.8147 16.1322 45.9884 16.3183C44.3643 17.0747 41.823 17.347 40.0503 17.5952C38.6496 17.7811 37.732 17.9548 38.0916 18.3265C39.4307 19.6901 40.8811 17.843 41.9969 20.1489Z" fill="#7DEA5D"></path>
<path d="M45.9882 16.3182C44.3641 17.0746 41.8228 17.3469 40.0501 17.5951C38.9345 16.7271 37.8807 15.847 36.8268 15.5122C34.2361 14.6817 33.7401 16.5536 30.4922 18.3263C28.4839 19.4297 25.0378 18.8224 22.7195 18.2025C22.4468 17.905 22.1617 17.5455 21.8766 17.1239C20.2154 14.6817 19.9054 14.0619 20.3146 13.0081C20.4385 12.6737 20.637 12.3017 20.8973 11.8059C23.7854 10.318 27.0459 9.48755 30.5047 9.48755C35.513 9.48755 40.1121 11.2478 43.707 14.1611C44.5252 14.8183 45.2815 15.5498 45.9882 16.3182Z" fill="#AEB2F4"></path>
<path d="M30.4989 37.5242C28.6046 36.2765 33.7288 37.3006 35.1822 38.8658C36.6357 40.4309 35.9648 41.996 33.9525 40.7664C31.9401 39.5367 31.5171 38.195 30.4989 37.5242Z" fill="#7DEA5D"></path>
<path d="M42.6913 43.8512C39.2574 46.3182 35.055 47.7564 30.5055 47.7564C29.8236 47.7564 29.1417 47.7188 28.4722 47.6571C27.902 45.0537 28.8939 41.3222 30.0839 42.3264C31.3608 43.4176 39.0468 42.8471 42.6913 43.8512Z" fill="#6FD450"></path>
<path d="M44.8365 45.8721C41.0806 49.3678 36.0474 51.5123 30.5062 51.5123C29.2665 51.5123 28.0392 51.4009 26.8613 51.1902C27.3574 50.0991 28.845 49.4173 28.4729 47.6695V47.6571C29.1424 47.7189 29.8243 47.7564 30.5062 47.7564C35.0557 47.7564 39.258 46.3181 42.692 43.8513C43.1756 43.9878 43.597 44.1488 43.9068 44.3474C44.4276 44.6694 44.7251 45.2026 44.8365 45.8721Z" fill="#66B94B"></path>
<path d="M43.7068 14.1611C43.3597 14.3842 42.9753 14.5824 42.5665 14.7314C37.0869 16.7646 40.769 14.6073 36.182 13.8512C31.6076 13.1073 33.058 14.4958 28.1986 16.9628C25.0497 18.5744 21.8268 15.909 20.3145 13.0081C20.4383 12.6737 20.6369 12.3017 20.8971 11.8059C23.7853 10.318 27.0458 9.48755 30.5045 9.48755C35.5127 9.48755 40.1119 11.2478 43.7068 14.1611Z" fill="#D7DAFF"></path>
<path d="M15.4635 33.2088C15.6925 32.9905 17.0758 37.2336 16.1613 36.9542C15.2467 36.6746 14.4357 34.1882 15.4635 33.2088Z" fill="#6FD450"></path>
<path d="M13.0078 31.6787C12.9999 31.4274 15.3955 30.9259 14.9214 31.7192C14.4473 32.5124 13.0434 32.8067 13.0078 31.6787Z" fill="#6FD450"></path>
<path d="M50.514 36.9462C50.1917 37.9628 49.7828 38.9423 49.3116 39.8844C49.4108 42.8099 48.6049 45.2396 46.9191 46.9133C45.233 48.5994 42.8033 49.4175 39.8655 49.3181C38.5886 49.2812 37.2124 49.0579 35.7621 48.6735C25.5721 45.9463 15.0597 35.4339 12.3197 25.2314C11.9357 23.7812 11.7247 22.405 11.6878 21.1283C11.5884 18.1902 12.3942 15.7604 14.0803 14.0868C15.766 12.401 18.196 11.5826 21.1463 11.6819C21.2207 11.657 21.2953 11.6198 21.3694 11.5826C21.5059 11.5209 21.63 11.4465 21.7662 11.3844C22.1133 11.2355 22.4605 11.0869 22.82 10.9504C22.8941 10.9132 22.9562 10.8883 23.0306 10.8514C23.3778 10.7273 23.7497 10.5911 24.0966 10.4918C19.4357 9.58679 15.543 10.4546 12.9892 12.9959C10.4602 15.5249 9.58004 19.4174 10.485 24.0661C10.5843 24.5743 10.7084 25.0948 10.8446 25.6281C12.2704 30.9588 15.7288 36.3884 20.1793 40.8265C24.6174 45.2643 30.0347 48.7355 35.3654 50.1613C35.8862 50.2975 36.3944 50.4215 36.9025 50.5081C41.5638 51.4133 45.4561 50.5456 48.01 48.0043C50.5389 45.4753 51.419 41.5829 50.514 36.9462Z" fill="#4C6479"></path>
<path d="M49.1755 20.8802C49.3243 21.1529 49.4608 21.4256 49.5847 21.6986C49.907 22.3801 50.1921 23.0869 50.4278 23.8183C52.5725 25.8264 53.7253 28.1199 53.7253 30.5C53.7253 32.8429 52.6094 35.0867 50.5392 37.0704C50.5144 37.1076 50.4772 37.1325 50.4399 37.1696L50.4278 37.1817C49.4981 38.0622 48.3697 38.8802 47.0805 39.6242C41.1551 43.0457 32.8243 44.2481 25.2004 43.2315C24.1838 43.095 23.1672 42.9215 22.1881 42.6986C19.1754 42.054 16.3489 41.0249 13.9193 39.6242C12.6178 38.8802 11.4896 38.0497 10.5599 37.1817C8.42751 35.1736 7.27471 32.8676 7.27471 30.5C7.27471 28.1571 8.39033 25.9133 10.4604 23.9297C10.3367 23.2978 10.2498 22.69 10.2126 22.095C7.312 24.5247 5.75 27.4256 5.75 30.5C5.75 34.0952 7.89456 37.4672 11.8118 40.1198C12.2334 40.4174 12.6796 40.6901 13.1507 40.9631C16.4233 42.8471 20.4027 44.0868 24.6176 44.6821C25.6464 44.8431 26.7002 44.9423 27.7541 45.0165C28.6715 45.0785 29.5888 45.1034 30.5062 45.1034C36.7787 45.1034 43.0639 43.7147 47.8491 40.9631C48.32 40.6901 48.7665 40.4174 49.188 40.1074C49.225 40.0827 49.2746 40.0454 49.3118 40.0206C49.8326 39.6611 50.3284 39.2894 50.787 38.905C53.7004 36.4753 55.25 33.5744 55.25 30.5C55.25 26.8927 53.1053 23.5208 49.1755 20.8802ZM11.688 20.967V21.1282C11.725 21.0413 11.7746 20.967 11.8118 20.8801C11.7747 20.9049 11.725 20.9422 11.688 20.967Z" fill="#4C6479"></path>
<path d="M48.0098 12.9959C45.456 10.4546 41.5635 9.58679 36.9147 10.4918C36.9396 10.4918 36.9519 10.5042 36.9768 10.5042C37.0881 10.5415 37.1998 10.5783 37.3115 10.6156C37.3981 10.6405 37.4725 10.6777 37.547 10.7025C37.6215 10.7273 37.6959 10.7646 37.7701 10.7893C37.7825 10.7893 37.7949 10.7893 37.8074 10.8017C37.9811 10.8635 38.1545 10.9379 38.3407 11.0124C38.6009 11.1117 38.8612 11.223 39.1214 11.3347C39.1463 11.3471 39.1587 11.3596 39.1835 11.3596C39.2208 11.3844 39.2704 11.3967 39.3073 11.4216C39.4935 11.5082 39.6792 11.5951 39.8654 11.6819C42.8032 11.5826 45.2329 12.4009 46.919 14.0868C48.58 15.7357 49.386 18.1156 49.3115 20.9794V21.1527C49.2742 22.4296 49.0637 23.781 48.6792 25.2313C46.919 31.8265 41.8858 38.5578 35.7992 43.2314C34.9685 43.8637 34.1131 44.4711 33.2455 45.0165C30.6544 46.6901 27.9272 47.9547 25.2372 48.6734C23.7866 49.0579 22.4231 49.2812 21.1462 49.318C18.1959 49.4173 15.7659 48.5992 14.0802 46.9132C12.4189 45.2643 11.6132 42.8967 11.6877 40.0332C11.1544 39.6737 10.671 39.3018 10.2122 38.905C9.86506 42.686 10.8196 45.8349 12.9891 48.0043C15.5428 50.5457 19.4356 51.4134 24.0844 50.5081C24.5926 50.4215 25.1132 50.2975 25.634 50.1613C29.291 49.1818 32.9852 47.2479 36.3819 44.6942C37.2124 44.0622 38.018 43.4049 38.8117 42.6984C39.506 42.1034 40.1755 41.4712 40.8201 40.8265C45.2703 36.376 48.7289 30.9587 50.1545 25.6281C50.291 25.0948 50.4148 24.5743 50.5141 24.0661C50.5266 24.0165 50.5266 23.9793 50.539 23.9296C50.6631 23.2976 50.7496 22.6899 50.7868 22.0949C51.1338 18.3142 50.1667 15.153 48.0098 12.9959ZM10.4848 36.9586C10.4727 36.9959 10.4727 37.0455 10.4599 37.0827C10.4848 37.1199 10.522 37.1448 10.5593 37.1816C10.5345 37.1075 10.5097 37.0331 10.4848 36.9586Z" fill="#4C6479"></path>
<path d="M20.3337 23C20.2024 23 20.0987 22.962 20.0227 22.886C19.9535 22.8099 19.9086 22.727 19.8879 22.6372L18.8512 16.0126C18.8512 16.0057 18.8512 15.9988 18.8512 15.9919C18.8512 15.985 18.8512 15.978 18.8512 15.9711C18.8512 15.9089 18.8719 15.8571 18.9134 15.8156C18.9549 15.7672 19.0067 15.7431 19.0689 15.7431H20.6758C20.89 15.7431 21.0075 15.8294 21.0283 16.0022L21.5363 19.4856L22.1272 17.6402C22.141 17.5849 22.1721 17.5227 22.2205 17.4536C22.2689 17.3845 22.3518 17.35 22.4693 17.35H23.3712C23.4887 17.35 23.5717 17.3845 23.62 17.4536C23.6684 17.5227 23.703 17.5849 23.7237 17.6402L24.3043 19.4752L24.8226 16.0022C24.8433 15.8294 24.9574 15.7431 25.1647 15.7431H26.7716C26.8338 15.7431 26.8857 15.7672 26.9271 15.8156C26.9755 15.8571 26.9997 15.9089 26.9997 15.9711C26.9997 15.978 26.9997 15.985 26.9997 15.9919C26.9997 15.9988 26.9962 16.0057 26.9893 16.0126L25.9526 22.6372C25.9457 22.727 25.9008 22.8099 25.8178 22.886C25.7418 22.962 25.6382 23 25.5068 23H24.2732C24.1488 23 24.0554 22.9689 23.9932 22.9067C23.931 22.8376 23.8896 22.7788 23.8688 22.7305L22.9254 20.1802L21.9717 22.7305C21.9578 22.7788 21.9164 22.8376 21.8473 22.9067C21.7851 22.9689 21.6918 23 21.5674 23H20.3337ZM28.1999 23C28.1308 23 28.0686 22.9758 28.0133 22.9274C27.958 22.8721 27.9304 22.8065 27.9304 22.7305V16.0126C27.9304 15.9366 27.958 15.8744 28.0133 15.826C28.0686 15.7707 28.1308 15.7431 28.1999 15.7431H33.2798C33.3558 15.7431 33.4215 15.7707 33.4768 15.826C33.5321 15.8744 33.5597 15.9366 33.5597 16.0126V17.2359C33.5597 17.305 33.5321 17.3672 33.4768 17.4225C33.4215 17.4778 33.3558 17.5055 33.2798 17.5055H30.0764V18.5318H33.0517C33.1277 18.5318 33.1934 18.5594 33.2487 18.6147C33.304 18.6631 33.3316 18.7253 33.3316 18.8013V19.921C33.3316 19.997 33.304 20.0627 33.2487 20.118C33.1934 20.1663 33.1277 20.1905 33.0517 20.1905H30.0764V21.2376H33.3627C33.4387 21.2376 33.5044 21.2652 33.5597 21.3205C33.615 21.3758 33.6426 21.4415 33.6426 21.5175V22.7305C33.6426 22.8065 33.615 22.8721 33.5597 22.9274C33.5044 22.9758 33.4387 23 33.3627 23H28.1999ZM34.9729 23C34.9038 23 34.8416 22.9758 34.7863 22.9274C34.731 22.8721 34.7034 22.8065 34.7034 22.7305V16.0126C34.7034 15.9366 34.731 15.8744 34.7863 15.826C34.8416 15.7707 34.9038 15.7431 34.9729 15.7431H38.28C38.909 15.7431 39.4239 15.826 39.8247 15.9919C40.2256 16.1577 40.5228 16.3962 40.7163 16.7072C40.9098 17.0182 41.0066 17.4018 41.0066 17.8579C41.0066 18.0929 40.9582 18.3037 40.8614 18.4903C40.7716 18.67 40.661 18.8221 40.5297 18.9465C40.3984 19.064 40.274 19.1504 40.1565 19.2057C40.426 19.3231 40.661 19.5236 40.8614 19.8069C41.0619 20.0834 41.1621 20.4013 41.1621 20.7607C41.1621 21.2445 41.0515 21.6523 40.8303 21.984C40.6161 22.3158 40.3016 22.568 39.8869 22.7408C39.4792 22.9136 38.9781 23 38.3837 23H34.9729ZM36.9323 21.4346H38.1453C38.3802 21.4346 38.553 21.3655 38.6636 21.2272C38.7742 21.0821 38.8295 20.9231 38.8295 20.7503C38.8295 20.5707 38.7707 20.4151 38.6532 20.2838C38.5358 20.1456 38.3664 20.0765 38.1453 20.0765H36.9323V21.4346ZM36.9323 18.5525H38.0416C38.2628 18.5525 38.4252 18.4903 38.5288 18.3659C38.6325 18.2415 38.6843 18.0964 38.6843 17.9305C38.6843 17.7646 38.6325 17.6195 38.5288 17.4951C38.4252 17.3707 38.2628 17.3085 38.0416 17.3085H36.9323V18.5525ZM24.8231 33.1037C24.2494 33.1037 23.7587 33.0346 23.3509 32.8963C22.9501 32.7581 22.6218 32.5853 22.3661 32.378C22.1173 32.1637 21.9341 31.9356 21.8166 31.6938C21.6991 31.4519 21.6369 31.2272 21.63 31.0199C21.63 30.9577 21.6507 30.9059 21.6922 30.8644C21.7337 30.816 21.7855 30.7918 21.8477 30.7918H23.5686C23.6585 30.7918 23.7276 30.8091 23.776 30.8437C23.8244 30.8713 23.8693 30.9162 23.9108 30.9784C23.9591 31.0614 24.0248 31.1339 24.1077 31.1961C24.1907 31.2514 24.2909 31.2929 24.4084 31.3205C24.5259 31.3413 24.6676 31.3516 24.8334 31.3516C25.1306 31.3516 25.3552 31.286 25.5073 31.1547C25.6593 31.0164 25.7354 30.8367 25.7354 30.6156C25.7354 30.3944 25.6593 30.2354 25.5073 30.1387C25.3552 30.035 25.1375 29.9832 24.8542 29.9832H23.6308C23.5548 29.9832 23.4892 29.9555 23.4339 29.9002C23.3855 29.845 23.3613 29.7828 23.3613 29.7136V28.9983C23.3613 28.9016 23.3786 28.8221 23.4131 28.7599C23.4546 28.6908 23.4995 28.6424 23.5479 28.6147L25.1133 27.5055H22.3142C22.2382 27.5055 22.1725 27.4778 22.1173 27.4225C22.0689 27.3672 22.0447 27.305 22.0447 27.2359V26.0126C22.0447 25.9366 22.0689 25.8744 22.1173 25.826C22.1725 25.7707 22.2382 25.7431 22.3142 25.7431H27.3526C27.4286 25.7431 27.4908 25.7707 27.5392 25.826C27.5945 25.8744 27.6222 25.9366 27.6222 26.0126V27.1115C27.6222 27.2014 27.6049 27.2774 27.5703 27.3396C27.5358 27.4018 27.4943 27.4502 27.4459 27.4847L26.0464 28.6251L26.0878 28.6458C26.4541 28.7149 26.7859 28.8324 27.0831 28.9983C27.3803 29.1573 27.6153 29.3819 27.788 29.6722C27.9608 29.9625 28.0472 30.3288 28.0472 30.7711C28.0472 31.2411 27.9055 31.6523 27.6222 32.0048C27.3457 32.3503 26.9656 32.6199 26.4818 32.8134C26.0049 33.0069 25.452 33.1037 24.8231 33.1037ZM29.1937 33C29.1177 33 29.0521 32.9758 28.9968 32.9274C28.9484 32.8721 28.9242 32.8065 28.9242 32.7305V31.1754C28.9242 31.0994 28.9484 31.0337 28.9968 30.9784C29.0521 30.9231 29.1177 30.8955 29.1937 30.8955H30.7488C30.8248 30.8955 30.8905 30.9231 30.9458 30.9784C31.0011 31.0337 31.0287 31.0994 31.0287 31.1754V32.7305C31.0287 32.8065 31.0011 32.8721 30.9458 32.9274C30.8905 32.9758 30.8248 33 30.7488 33H29.1937ZM35.092 33.1037C34.5806 33.1037 34.1348 33.0346 33.7547 32.8963C33.3746 32.7581 33.0566 32.568 32.8009 32.3261C32.5521 32.0842 32.3586 31.8009 32.2204 31.476C32.0821 31.1443 32.0027 30.7884 31.9819 30.4082C31.9681 30.2216 31.9577 30.0005 31.9508 29.7447C31.9508 29.489 31.9508 29.2333 31.9508 28.9776C31.9577 28.7149 31.9681 28.4869 31.9819 28.2934C32.0027 27.9132 32.0821 27.5642 32.2204 27.2463C32.3655 26.9214 32.5694 26.6415 32.832 26.4065C33.0946 26.1646 33.4126 25.978 33.7858 25.8467C34.159 25.7085 34.5944 25.6394 35.092 25.6394C35.5827 25.6394 36.0147 25.7085 36.3879 25.8467C36.768 25.978 37.086 26.1646 37.3417 26.4065C37.6043 26.6415 37.8048 26.9214 37.943 27.2463C38.0881 27.5642 38.1745 27.9132 38.2022 28.2934C38.216 28.4869 38.2229 28.7149 38.2229 28.9776C38.2229 29.2333 38.2229 29.489 38.2229 29.7447C38.2229 30.0005 38.216 30.2216 38.2022 30.4082C38.1745 30.7884 38.0916 31.1443 37.9533 31.476C37.822 31.8009 37.6285 32.0842 37.3728 32.3261C37.1171 32.568 36.7991 32.7581 36.419 32.8963C36.0389 33.0346 35.5966 33.1037 35.092 33.1037ZM35.092 31.3309C35.3685 31.3309 35.5689 31.2411 35.6933 31.0614C35.8177 30.8817 35.8834 30.6467 35.8903 30.3564C35.9041 30.156 35.911 29.9383 35.911 29.7033C35.911 29.4683 35.911 29.2333 35.911 28.9983C35.911 28.7564 35.9041 28.5422 35.8903 28.3556C35.8834 28.0791 35.8177 27.851 35.6933 27.6713C35.5758 27.4847 35.3754 27.388 35.092 27.3811C34.8087 27.388 34.6082 27.4847 34.4907 27.6713C34.3733 27.851 34.3076 28.0791 34.2938 28.3556C34.2869 28.5422 34.28 28.7564 34.273 28.9983C34.273 29.2333 34.273 29.4683 34.273 29.7033C34.28 29.9383 34.2869 30.156 34.2938 30.3564C34.3076 30.6467 34.3733 30.8817 34.4907 31.0614C34.6152 31.2411 34.8156 31.3309 35.092 31.3309Z" fill="#354F66"></path>
</svg>