<svg width="53" height="52" viewBox="0 0 53 52" fill="none" xmlns="http://www.w3.org/2000/svg">
<g clip-path="url(#clip0_83_922)">
<g filter="url(#filter0_d_83_922)">
<path d="M11.3333 8.66666C8.94003 8.66666 7 10.6167 7 13V43.3333C7 45.7167 8.94003 47.6667 11.3333 47.6667H24.3333H28.6667H41.6667C44.0608 47.6667 46 45.7167 46 43.3333V13C46 10.6167 44.0608 8.66666 41.6667 8.66666H28.6667H24.3333H11.3333Z" fill="#BDC3C7"/>
<path d="M11.3333 6.5C8.94003 6.5 7 8.44003 7 10.8333V41.1667C7 43.5608 8.94003 45.5 11.3333 45.5H24.3333H28.6667H41.6667C44.0608 45.5 46 43.5608 46 41.1667V10.8333C46 8.44003 44.0608 6.5 41.6667 6.5H28.6667H24.3333H11.3333Z" fill="#ECF0F1"/>
<path d="M11.3333 6.5C8.94003 6.5 7 8.45 7 10.8333V17.3333H46V10.8333C46 8.45 44.0608 6.5 41.6667 6.5H28.6667H24.3333H11.3333Z" fill="#E74C3C"/>
<path d="M16.75 11.9167C16.75 12.3435 16.6659 12.7661 16.5026 13.1604C16.3393 13.5547 16.0999 13.913 15.7981 14.2148C15.4963 14.5165 15.138 14.7559 14.7437 14.9193C14.3494 15.0826 13.9268 15.1667 13.5 15.1667C13.0732 15.1667 12.6506 15.0826 12.2563 14.9193C11.862 14.7559 11.5037 14.5165 11.2019 14.2148C10.9001 13.913 10.6607 13.5547 10.4974 13.1604C10.3341 12.7661 10.25 12.3435 10.25 11.9167C10.25 11.4899 10.3341 11.0672 10.4974 10.6729C10.6607 10.2786 10.9001 9.92035 11.2019 9.61856C11.5037 9.31677 11.862 9.07738 12.2563 8.91405C12.6506 8.75072 13.0732 8.66666 13.5 8.66666C13.9268 8.66666 14.3494 8.75072 14.7437 8.91405C15.138 9.07738 15.4963 9.31677 15.7981 9.61856C16.0999 9.92035 16.3393 10.2786 16.5026 10.6729C16.6659 11.0672 16.75 11.4899 16.75 11.9167Z" fill="#C0392B"/>
<path d="M13.4999 2.16666C12.3033 2.16666 11.3333 3.13667 11.3333 4.33332V10.8333C11.3333 12.03 12.3033 13 13.4999 13C14.6966 13 15.6666 12.03 15.6666 10.8333V4.33332C15.6666 3.13667 14.6966 2.16666 13.4999 2.16666Z" fill="#BDC3C7"/>
<path d="M42.75 11.9167C42.75 12.3435 42.6659 12.7661 42.5026 13.1604C42.3393 13.5547 42.0999 13.913 41.7981 14.2148C41.4963 14.5165 41.138 14.7559 40.7437 14.9193C40.3494 15.0826 39.9268 15.1667 39.5 15.1667C39.0732 15.1667 38.6506 15.0826 38.2563 14.9193C37.862 14.7559 37.5037 14.5165 37.2019 14.2148C36.9001 13.913 36.6607 13.5547 36.4974 13.1604C36.3341 12.7661 36.25 12.3435 36.25 11.9167C36.25 11.4899 36.3341 11.0672 36.4974 10.6729C36.6607 10.2786 36.9001 9.92035 37.2019 9.61856C37.5037 9.31677 37.862 9.07738 38.2563 8.91405C38.6506 8.75072 39.0732 8.66666 39.5 8.66666C39.9268 8.66666 40.3494 8.75072 40.7437 8.91405C41.138 9.07738 41.4963 9.31677 41.7981 9.61856C42.0999 9.92035 42.3393 10.2786 42.5026 10.6729C42.6659 11.0672 42.75 11.4899 42.75 11.9167Z" fill="#C0392B"/>
<path d="M39.5007 2.16666C38.3047 2.16666 37.334 3.03332 37.334 4.33332V10.8333C37.334 11.9167 38.3047 13 39.5007 13C40.6967 13 41.6673 11.9167 41.6673 10.8333V4.33332C41.6673 3.03332 40.6967 2.16666 39.5007 2.16666Z" fill="#BDC3C7"/>
<path d="M11.3333 23.8333V28.1666H15.6666V23.8333H11.3333ZM17.8333 23.8333V28.1666H22.1666V23.8333H17.8333ZM24.3333 23.8333V28.1666H28.6666V23.8333H24.3333ZM30.8333 23.8333V28.1666H35.1666V23.8333H30.8333ZM37.3333 23.8333V28.1666H41.6666V23.8333H37.3333Z" fill="#BDC3C7"/>
<path d="M11.3333 30.3333V34.6666H15.6666V30.3333H11.3333ZM17.8333 30.3333V34.6666H22.1666V30.3333H17.8333ZM24.3333 30.3333V34.6666H28.6666V30.3333H24.3333ZM30.8333 30.3333V34.6666H35.1666V30.3333H30.8333ZM37.3333 30.3333V34.6666H41.6666V30.3333H37.3333Z" fill="#BDC3C7"/>
<path d="M11.3333 36.8333V41.1666H15.6666V36.8333H11.3333ZM17.8333 36.8333V41.1666H22.1666V36.8333H17.8333ZM24.3333 36.8333V41.1666H28.6666V36.8333H24.3333ZM30.8333 36.8333V41.1666H35.1666V36.8333H30.8333ZM37.3333 36.8333V41.1666H41.6666V36.8333H37.3333Z" fill="#BDC3C7"/>
<path d="M46 17.3333H7V19.5H46V17.3333Z" fill="#C0392B"/>
</g>
</g>
<defs>
<filter id="filter0_d_83_922" x="-1" y="-5.83334" width="55" height="61.5" filterUnits="userSpaceOnUse" color-interpolation-filters="sRGB">
<feFlood flood-opacity="0" result="BackgroundImageFix"/>
<feColorMatrix in="SourceAlpha" type="matrix" values="0 0 0 0 0 0 0 0 0 0 0 0 0 0 0 0 0 0 127 0" result="hardAlpha"/>
<feOffset/>
<feGaussianBlur stdDeviation="4"/>
<feComposite in2="hardAlpha" operator="out"/>
<feColorMatrix type="matrix" values="0 0 0 0 0.905882 0 0 0 0 0.298039 0 0 0 0 0.235294 0 0 0 0.8 0"/>
<feBlend mode="normal" in2="BackgroundImageFix" result="effect1_dropShadow_83_922"/>
<feBlend mode="normal" in="SourceGraphic" in2="effect1_dropShadow_83_922" result="shape"/>
</filter>
<clipPath id="clip0_83_922">
<rect width="52" height="52" fill="white" transform="translate(0.5)"/>
</clipPath>
</defs>
</svg>
