<svg width="52" height="52" viewBox="0 0 52 52" fill="none" xmlns="http://www.w3.org/2000/svg">
<path d="M17.4172 7.94885C15.765 7.94885 10.7836 9.96924 9.89019 10.3731C8.99675 10.777 8.0045 12.0376 6.87851 14.1182C5.75253 16.1989 4.84763 18.6302 3.37895 22.2078C1.91028 25.7854 1.56778 32.6838 1.61673 34.7889C1.66569 36.894 1.90685 38.5372 4.06372 39.7824C6.22058 41.0277 8.12749 42.3288 10.1347 43.1121C12.1419 43.8954 13.5122 44.458 14.4423 43.6747C15.3725 42.8914 15.9849 41.5208 15.9849 41.5208C15.9849 41.5208 16.8662 40.2972 15.2017 39.5628C13.5372 38.8285 12.7051 38.3138 12.7785 37.555C12.852 36.7962 12.9736 36.3807 13.3898 36.4787C13.8059 36.5766 14.7857 38.3386 18.5553 39.1463C22.3249 39.9541 26.0001 39.8322 26.0001 39.8322C26.0001 39.8322 29.6753 39.9541 33.4449 39.1463C37.2145 38.3386 38.1943 36.5766 38.6104 36.4787C39.0265 36.3807 39.1482 36.7962 39.2216 37.555C39.295 38.3138 38.4629 38.8285 36.7984 39.5628C35.1339 40.2972 36.0152 41.5208 36.0152 41.5208C36.0152 41.5208 36.6277 42.8914 37.5578 43.6747C38.488 44.458 39.8583 43.8954 41.8655 43.1121C43.8727 42.3288 45.7796 41.0277 47.9364 39.7824C50.0933 38.5372 50.3344 36.894 50.3834 34.7889C50.4324 32.6838 50.0899 25.7854 48.6212 22.2078C47.1525 18.6302 46.2476 16.1989 45.1216 14.1182C43.9956 12.0376 43.0034 10.777 42.1099 10.3731C41.2165 9.96924 36.2352 7.94885 34.5829 7.94885C32.9307 7.94885 32.4421 9.09987 32.4421 9.09987L31.8666 10.3731C31.8666 10.3731 27.9963 9.63785 26.0255 9.6368C24.0546 9.63574 20.1336 10.3731 20.1336 10.3731L19.5581 9.09987C19.5581 9.09987 19.0695 7.94885 17.4172 7.94885ZM17.5968 23.2236C17.617 23.2234 17.6372 23.2234 17.6574 23.2236C20.0663 23.2236 22.0191 25.3314 22.0191 27.9315C22.0191 30.5316 20.0663 32.6394 17.6574 32.6394C15.2484 32.6394 13.2956 30.5316 13.2956 27.9315C13.2954 25.3567 15.2116 23.2594 17.5968 23.2236ZM34.3428 23.2236C34.363 23.2234 34.3831 23.2234 34.4033 23.2236C36.7886 23.2594 38.7047 25.3567 38.7045 27.9315C38.7045 30.5316 36.7517 32.6394 34.3428 32.6394C31.9338 32.6394 29.981 30.5316 29.981 27.9315C29.981 25.3314 31.9338 23.2236 34.3428 23.2236Z" fill="url(#paint0_linear_83_1026)"/>
<path d="M37.9511 34.1079L37.2553 34.5068L37.4473 34.8666L38.161 34.4558L37.9511 34.1079ZM14.0739 34.2339L13.876 34.5907L14.5927 34.9776L14.7846 34.6207L14.0739 34.2339ZM36.1757 35.0406L35.435 35.3644L35.594 35.7363L36.3407 35.4094L36.1757 35.0406ZM15.8702 35.1485L15.6993 35.5174L16.449 35.8503L16.608 35.4754L15.8702 35.1485ZM34.3104 35.8023L33.5457 36.0632L33.6747 36.45L34.4454 36.1861L34.3104 35.8023ZM17.7296 35.9162L17.5946 36.3001L18.3653 36.564L18.4943 36.1801L17.7296 35.9162ZM32.3881 36.4111L31.6054 36.618L31.7074 37.0108L32.4961 36.8039L32.3881 36.4111ZM19.6458 36.525L19.5469 36.9209L20.3356 37.1188L20.4346 36.7229L19.6458 36.525ZM30.4269 36.8699L29.6322 37.0138L29.7011 37.4157L30.5048 37.2687L30.4269 36.8699ZM21.6161 36.9629L21.5442 37.3647L22.3509 37.4937L22.4138 37.0918L21.6161 36.9629ZM28.4386 37.1758L27.6319 37.2508L27.6679 37.6556L28.4806 37.5806L28.4386 37.1758ZM23.6104 37.2328L23.5744 37.6376L24.3901 37.6976L24.4141 37.2897L23.6104 37.2328ZM26.4293 37.3167L25.6196 37.3287L25.6227 37.7336L26.4384 37.7245L26.4293 37.3167Z" fill="#024292"/>
<defs>
<linearGradient id="paint0_linear_83_1026" x1="26.0001" y1="8.50584" x2="26.0001" y2="41.2249" gradientUnits="userSpaceOnUse">
<stop stop-color="#0CC8EF"/>
<stop offset="1" stop-color="#047AFA"/>
</linearGradient>
</defs>
</svg>
