<svg width="24" height="24" viewBox="0 0 24 24" fill="none" xmlns="http://www.w3.org/2000/svg">
<path d="M19.1249 12.375C20.469 12.375 21.5587 11.2854 21.5587 9.94126C21.5587 8.59713 20.469 7.50751 19.1249 7.50751C17.7808 7.50751 16.6912 8.59713 16.6912 9.94126C16.6912 11.2854 17.7808 12.375 19.1249 12.375Z" fill="#7C7C7C"/>
<path d="M4.87491 12.375C6.21903 12.375 7.30866 11.2854 7.30866 9.94126C7.30866 8.59713 6.21903 7.50751 4.87491 7.50751C3.53079 7.50751 2.44116 8.59713 2.44116 9.94126C2.44116 11.2854 3.53079 12.375 4.87491 12.375Z" fill="#7C7C7C"/>
<path d="M6.48751 14.8556C6.43376 14.9319 6.38126 15.0094 6.33001 15.0881C5.62335 16.1786 5.24819 17.4506 5.25001 18.75H18.75C18.7514 17.4573 18.3796 16.1917 17.6794 15.105C17.6281 15.0263 17.5756 14.9488 17.5219 14.8725C16.8985 13.9903 16.0725 13.2707 15.1132 12.774C14.154 12.2773 13.0896 12.018 12.0094 12.018C10.9292 12.018 9.86475 12.2773 8.90552 12.774C7.94629 13.2707 7.12028 13.9903 6.49688 14.8725L6.48751 14.8556Z" fill="#7C7C7C"/>
<path d="M0 17.25H3.88875C4.21843 15.4735 5.1222 13.8544 6.46125 12.6413C5.72714 12.3887 4.94332 12.315 4.17501 12.4265C3.4067 12.538 2.67612 12.8313 2.04408 13.2822C1.41204 13.733 0.896804 14.3283 0.541263 15.0184C0.185722 15.7086 0.000153044 16.4737 0 17.25Z" fill="#7C7C7C"/>
<path d="M12 12C13.8608 12 15.3694 10.4915 15.3694 8.63061C15.3694 6.76975 13.8608 5.26123 12 5.26123C10.1391 5.26123 8.63062 6.76975 8.63062 8.63061C8.63062 10.4915 10.1391 12 12 12Z" fill="#7C7C7C"/>
<path d="M19.1251 12.375C18.5852 12.3753 18.0492 12.4653 17.5388 12.6412C18.8779 13.8543 19.7816 15.4735 20.1113 17.25H24.0001C24.0001 15.9571 23.4865 14.7171 22.5722 13.8029C21.658 12.8886 20.418 12.375 19.1251 12.375Z" fill="#7C7C7C"/>
</svg>
