<svg width="24" height="24" viewBox="0 0 24 24" fill="none" xmlns="http://www.w3.org/2000/svg">
<g clip-path="url(#clip0_83_47)">
<path fill-rule="evenodd" clip-rule="evenodd" d="M18.2101 8.80091C17.9522 8.80091 17.6945 8.70247 17.4976 8.5056L15.496 6.50401C15.3038 6.31184 15.2007 6.05872 15.2007 5.79153C15.2007 5.51963 15.3038 5.26651 15.496 5.07904L17.5538 3.0212C17.746 2.82903 17.9991 2.72589 18.2663 2.72589C18.5382 2.72589 18.7913 2.82903 18.9788 3.0212L20.9804 5.02279C21.3741 5.41654 21.3741 6.05871 20.9804 6.45246L18.9226 8.5103C18.7257 8.70247 18.4678 8.80091 18.2101 8.80091Z" fill="#7C7C7C"/>
<path fill-rule="evenodd" clip-rule="evenodd" d="M22.7617 17.6555C22.7383 17.6555 22.7102 17.6508 22.6867 17.6462C22.5648 17.6133 22.4804 17.5008 22.4804 17.3743C22.4945 15.2227 21.9179 13.1321 20.7695 11.1541C20.1907 10.16 19.5866 9.40715 19.1581 8.92929C19.1913 8.90167 19.2233 8.87249 19.254 8.84171L21.2842 6.8115C22.2864 7.97182 23.0209 9.19454 23.4695 10.4556C23.8867 11.6321 24.0602 12.8414 23.9851 14.0555C23.8539 16.1227 23.0429 17.4633 23.0101 17.5196C22.9492 17.6087 22.8554 17.6555 22.7617 17.6555ZM15.0731 4.84782C14.5958 4.41892 13.8393 3.8103 12.8382 3.22742C10.8648 2.079 8.77422 1.50243 6.62266 1.5165C6.4961 1.5165 6.3883 1.43212 6.35076 1.31027C6.31793 1.18841 6.36483 1.05714 6.47262 0.991533C6.52887 0.958702 7.86952 0.147778 9.93666 0.0165092C11.1507 -0.06316 12.3601 0.110241 13.5366 0.532115C14.8004 0.981729 16.0257 1.71846 17.1883 2.72399L15.1647 4.74761C15.1324 4.77983 15.1019 4.81328 15.0731 4.84782Z" fill="#7C7C7C"/>
<path fill-rule="evenodd" clip-rule="evenodd" d="M19.2888 2.66893L19.7616 2.19617C20.0335 1.92427 20.3944 1.77429 20.7834 1.77429C21.1678 1.77429 21.5335 1.92427 21.8053 2.19617C22.3678 2.75867 22.3678 3.67744 21.8053 4.23994L21.3325 4.7127L21.3117 4.69138L19.3101 2.6898L19.2888 2.66893Z" fill="#7C7C7C"/>
<path fill-rule="evenodd" clip-rule="evenodd" d="M1.92109 24.0024C1.84607 24.0024 1.77575 23.9743 1.72421 23.918L0.0788925 22.2774C-0.0289017 22.1696 -0.0289017 21.9914 0.0788925 21.8789L3.78149 18.1752L5.82106 20.2149L2.11796 23.918C2.06642 23.9743 1.9961 24.0024 1.92109 24.0024ZM4.17989 17.7767L7.67621 14.2794L9.71638 16.3196L6.21952 19.8165L4.17989 17.7767ZM8.07461 13.8809L11.5709 10.3835L13.6117 12.4243L10.1148 15.9211L8.07461 13.8809ZM11.9693 9.98498L15.1415 6.81177L15.1646 6.83541L17.1662 8.83699L17.1828 8.85322L14.0101 12.0259L11.9693 9.98498Z" fill="#7C7C7C"/>
</g>
<defs>
<clipPath id="clip0_83_47">
<rect width="24" height="24" fill="white"/>
</clipPath>
</defs>
</svg>
